M48
; DRILL file {KiCad 9.0.3} date 2026-05-07T12:20:54+0100
; FORMAT={-:-/ absolute / metric / decimal}
; #@! TF.CreationDate,2026-05-07T12:20:54+01:00
; #@! TF.GenerationSoftware,Kicad,Pcbnew,9.0.3
; #@! TF.FileFunction,NonPlated,1,4,NPTH
FMAT,2
METRIC
; #@! TA.AperFunction,NonPlated,NPTH,ComponentDrill
T1C0.500
; #@! TA.AperFunction,NonPlated,NPTH,ComponentDrill
T2C0.991
; #@! TA.AperFunction,NonPlated,NPTH,ComponentDrill
T3C2.375
; #@! TA.AperFunction,NonPlated,NPTH,ComponentDrill
T4C3.200
; #@! TA.AperFunction,NonPlated,NPTH,ComponentDrill
T5C3.450
%
G90
G05
T1
X53.236Y-93.932
X53.246Y-94.732
X53.246Y-95.522
X54.826Y-93.932
X54.836Y-94.732
X54.836Y-95.532
X129.561Y-171.568
X129.571Y-169.978
X129.666Y-19.553
X129.676Y-17.963
X130.361Y-169.978
X130.361Y-171.568
X130.466Y-17.963
X130.466Y-19.553
X131.161Y-169.968
X131.161Y-171.558
X131.266Y-17.953
X131.266Y-19.543
X205.152Y-93.086
X205.162Y-93.886
X205.162Y-94.676
X206.742Y-93.086
X206.752Y-93.886
X206.752Y-94.686
X241.193Y-170.895
X241.197Y-70.49
X241.198Y-122.747
X241.203Y-169.305
X241.207Y-68.9
X241.208Y-121.157
X241.209Y-19.534
X241.219Y-17.944
X241.993Y-169.305
X241.993Y-170.895
X241.997Y-68.9
X241.997Y-70.49
X241.998Y-121.157
X241.998Y-122.747
X242.009Y-17.944
X242.009Y-19.534
X242.793Y-169.295
X242.793Y-170.885
X242.797Y-68.89
X242.797Y-70.48
X242.798Y-121.147
X242.798Y-122.737
X242.809Y-17.934
X242.809Y-19.524
X277.278Y-93.002
X277.288Y-93.802
X277.288Y-94.592
X278.868Y-93.002
X278.878Y-93.802
X278.878Y-94.602
T2
X152.838Y-27.701
X153.854Y-32.781
X154.87Y-27.701
X237.722Y-102.093
X238.738Y-97.013
X239.754Y-102.093
T3
X151.314Y-29.606
X151.314Y-32.781
X156.394Y-29.606
X156.394Y-32.781
X236.198Y-97.013
X236.198Y-100.188
X241.278Y-97.013
X241.278Y-100.188
T4
X101.477Y-39.769
X116.18Y-154.611
X191.865Y-97.666
X215.005Y-78.998
X268.868Y-112.703
T5
X220.456Y-107.37
X250.426Y-102.67
M30
