G04 #@! TF.GenerationSoftware,KiCad,Pcbnew,9.0.3*
G04 #@! TF.CreationDate,2026-04-28T20:03:09+01:00*
G04 #@! TF.ProjectId,Night light PCB,4e696768-7420-46c6-9967-687420504342,rev?*
G04 #@! TF.SameCoordinates,Original*
G04 #@! TF.FileFunction,AssemblyDrawing,Bot*
%FSLAX46Y46*%
G04 Gerber Fmt 4.6, Leading zero omitted, Abs format (unit mm)*
G04 Created by KiCad (PCBNEW 9.0.3) date 2026-04-28 20:03:09*
%MOMM*%
%LPD*%
G01*
G04 APERTURE LIST*
%ADD10C,0.150000*%
%ADD11C,0.254000*%
%ADD12C,0.040000*%
%ADD13C,0.100000*%
G04 APERTURE END LIST*
D10*
X237787429Y-103951009D02*
X237644572Y-103998628D01*
X237644572Y-103998628D02*
X237596953Y-104046247D01*
X237596953Y-104046247D02*
X237549334Y-104141485D01*
X237549334Y-104141485D02*
X237549334Y-104284342D01*
X237549334Y-104284342D02*
X237596953Y-104379580D01*
X237596953Y-104379580D02*
X237644572Y-104427200D01*
X237644572Y-104427200D02*
X237739810Y-104474819D01*
X237739810Y-104474819D02*
X238120762Y-104474819D01*
X238120762Y-104474819D02*
X238120762Y-103474819D01*
X238120762Y-103474819D02*
X237787429Y-103474819D01*
X237787429Y-103474819D02*
X237692191Y-103522438D01*
X237692191Y-103522438D02*
X237644572Y-103570057D01*
X237644572Y-103570057D02*
X237596953Y-103665295D01*
X237596953Y-103665295D02*
X237596953Y-103760533D01*
X237596953Y-103760533D02*
X237644572Y-103855771D01*
X237644572Y-103855771D02*
X237692191Y-103903390D01*
X237692191Y-103903390D02*
X237787429Y-103951009D01*
X237787429Y-103951009D02*
X238120762Y-103951009D01*
X236692191Y-104474819D02*
X236692191Y-103951009D01*
X236692191Y-103951009D02*
X236739810Y-103855771D01*
X236739810Y-103855771D02*
X236835048Y-103808152D01*
X236835048Y-103808152D02*
X237025524Y-103808152D01*
X237025524Y-103808152D02*
X237120762Y-103855771D01*
X236692191Y-104427200D02*
X236787429Y-104474819D01*
X236787429Y-104474819D02*
X237025524Y-104474819D01*
X237025524Y-104474819D02*
X237120762Y-104427200D01*
X237120762Y-104427200D02*
X237168381Y-104331961D01*
X237168381Y-104331961D02*
X237168381Y-104236723D01*
X237168381Y-104236723D02*
X237120762Y-104141485D01*
X237120762Y-104141485D02*
X237025524Y-104093866D01*
X237025524Y-104093866D02*
X236787429Y-104093866D01*
X236787429Y-104093866D02*
X236692191Y-104046247D01*
X236358857Y-103808152D02*
X235977905Y-103808152D01*
X236216000Y-103474819D02*
X236216000Y-104331961D01*
X236216000Y-104331961D02*
X236168381Y-104427200D01*
X236168381Y-104427200D02*
X236073143Y-104474819D01*
X236073143Y-104474819D02*
X235977905Y-104474819D01*
X235787428Y-103808152D02*
X235406476Y-103808152D01*
X235644571Y-103474819D02*
X235644571Y-104331961D01*
X235644571Y-104331961D02*
X235596952Y-104427200D01*
X235596952Y-104427200D02*
X235501714Y-104474819D01*
X235501714Y-104474819D02*
X235406476Y-104474819D01*
X234692190Y-104427200D02*
X234787428Y-104474819D01*
X234787428Y-104474819D02*
X234977904Y-104474819D01*
X234977904Y-104474819D02*
X235073142Y-104427200D01*
X235073142Y-104427200D02*
X235120761Y-104331961D01*
X235120761Y-104331961D02*
X235120761Y-103951009D01*
X235120761Y-103951009D02*
X235073142Y-103855771D01*
X235073142Y-103855771D02*
X234977904Y-103808152D01*
X234977904Y-103808152D02*
X234787428Y-103808152D01*
X234787428Y-103808152D02*
X234692190Y-103855771D01*
X234692190Y-103855771D02*
X234644571Y-103951009D01*
X234644571Y-103951009D02*
X234644571Y-104046247D01*
X234644571Y-104046247D02*
X235120761Y-104141485D01*
X234215999Y-104474819D02*
X234215999Y-103808152D01*
X234215999Y-103998628D02*
X234168380Y-103903390D01*
X234168380Y-103903390D02*
X234120761Y-103855771D01*
X234120761Y-103855771D02*
X234025523Y-103808152D01*
X234025523Y-103808152D02*
X233930285Y-103808152D01*
X233692189Y-103808152D02*
X233454094Y-104474819D01*
X233215999Y-103808152D02*
X233454094Y-104474819D01*
X233454094Y-104474819D02*
X233549332Y-104712914D01*
X233549332Y-104712914D02*
X233596951Y-104760533D01*
X233596951Y-104760533D02*
X233692189Y-104808152D01*
X236501714Y-105951009D02*
X236358857Y-105998628D01*
X236358857Y-105998628D02*
X236311238Y-106046247D01*
X236311238Y-106046247D02*
X236263619Y-106141485D01*
X236263619Y-106141485D02*
X236263619Y-106284342D01*
X236263619Y-106284342D02*
X236311238Y-106379580D01*
X236311238Y-106379580D02*
X236358857Y-106427200D01*
X236358857Y-106427200D02*
X236454095Y-106474819D01*
X236454095Y-106474819D02*
X236835047Y-106474819D01*
X236835047Y-106474819D02*
X236835047Y-105474819D01*
X236835047Y-105474819D02*
X236501714Y-105474819D01*
X236501714Y-105474819D02*
X236406476Y-105522438D01*
X236406476Y-105522438D02*
X236358857Y-105570057D01*
X236358857Y-105570057D02*
X236311238Y-105665295D01*
X236311238Y-105665295D02*
X236311238Y-105760533D01*
X236311238Y-105760533D02*
X236358857Y-105855771D01*
X236358857Y-105855771D02*
X236406476Y-105903390D01*
X236406476Y-105903390D02*
X236501714Y-105951009D01*
X236501714Y-105951009D02*
X236835047Y-105951009D01*
X235977904Y-105474819D02*
X235406476Y-105474819D01*
X235692190Y-106474819D02*
X235692190Y-105474819D01*
X234549333Y-106474819D02*
X235120761Y-106474819D01*
X234835047Y-106474819D02*
X234835047Y-105474819D01*
X234835047Y-105474819D02*
X234930285Y-105617676D01*
X234930285Y-105617676D02*
X235025523Y-105712914D01*
X235025523Y-105712914D02*
X235120761Y-105760533D01*
D11*
X71054318Y-97628809D02*
X71054318Y-97024047D01*
X71054318Y-97024047D02*
X69784318Y-97024047D01*
X70389080Y-98052142D02*
X70389080Y-98475476D01*
X71054318Y-98656904D02*
X71054318Y-98052142D01*
X71054318Y-98052142D02*
X69784318Y-98052142D01*
X69784318Y-98052142D02*
X69784318Y-98656904D01*
X71054318Y-99201190D02*
X69784318Y-99201190D01*
X69784318Y-99201190D02*
X69784318Y-99503571D01*
X69784318Y-99503571D02*
X69844794Y-99685000D01*
X69844794Y-99685000D02*
X69965746Y-99805952D01*
X69965746Y-99805952D02*
X70086699Y-99866429D01*
X70086699Y-99866429D02*
X70328603Y-99926905D01*
X70328603Y-99926905D02*
X70510032Y-99926905D01*
X70510032Y-99926905D02*
X70751937Y-99866429D01*
X70751937Y-99866429D02*
X70872889Y-99805952D01*
X70872889Y-99805952D02*
X70993842Y-99685000D01*
X70993842Y-99685000D02*
X71054318Y-99503571D01*
X71054318Y-99503571D02*
X71054318Y-99201190D01*
X71054318Y-101136429D02*
X71054318Y-100410714D01*
X71054318Y-100773571D02*
X69784318Y-100773571D01*
X69784318Y-100773571D02*
X69965746Y-100652619D01*
X69965746Y-100652619D02*
X70086699Y-100531667D01*
X70086699Y-100531667D02*
X70147175Y-100410714D01*
X98015376Y-45153267D02*
X98539116Y-44850886D01*
X98539116Y-44850886D02*
X97904116Y-43751033D01*
X97316140Y-44788820D02*
X96949523Y-45000487D01*
X97125020Y-45667314D02*
X97648759Y-45364933D01*
X97648759Y-45364933D02*
X97013759Y-44265081D01*
X97013759Y-44265081D02*
X96490020Y-44567462D01*
X96653654Y-45939457D02*
X96018654Y-44839605D01*
X96018654Y-44839605D02*
X95756785Y-44990795D01*
X95756785Y-44990795D02*
X95629901Y-45133884D01*
X95629901Y-45133884D02*
X95585630Y-45299108D01*
X95585630Y-45299108D02*
X95593732Y-45434093D01*
X95593732Y-45434093D02*
X95662310Y-45673827D01*
X95662310Y-45673827D02*
X95753025Y-45830949D01*
X95753025Y-45830949D02*
X95926351Y-46010207D01*
X95926351Y-46010207D02*
X96039201Y-46084716D01*
X96039201Y-46084716D02*
X96204425Y-46128988D01*
X96204425Y-46128988D02*
X96391785Y-46090648D01*
X96391785Y-46090648D02*
X96653654Y-45939457D01*
X95031652Y-45549115D02*
X94949040Y-45526979D01*
X94949040Y-45526979D02*
X94814054Y-45535081D01*
X94814054Y-45535081D02*
X94552185Y-45686272D01*
X94552185Y-45686272D02*
X94477675Y-45799122D01*
X94477675Y-45799122D02*
X94455539Y-45881734D01*
X94455539Y-45881734D02*
X94463641Y-46016720D01*
X94463641Y-46016720D02*
X94524118Y-46121467D01*
X94524118Y-46121467D02*
X94667206Y-46248351D01*
X94667206Y-46248351D02*
X95658550Y-46513981D01*
X95658550Y-46513981D02*
X94977689Y-46907076D01*
X156941058Y-42264457D02*
X157464797Y-42566838D01*
X157464797Y-42566838D02*
X158099797Y-41466985D01*
X156907060Y-41476677D02*
X156540443Y-41265010D01*
X156050702Y-41750409D02*
X156574441Y-42052790D01*
X156574441Y-42052790D02*
X157209441Y-40952938D01*
X157209441Y-40952938D02*
X156685702Y-40650557D01*
X155579336Y-41478266D02*
X156214336Y-40378414D01*
X156214336Y-40378414D02*
X155952467Y-40227223D01*
X155952467Y-40227223D02*
X155765107Y-40188883D01*
X155765107Y-40188883D02*
X155599883Y-40233155D01*
X155599883Y-40233155D02*
X155487033Y-40307664D01*
X155487033Y-40307664D02*
X155313706Y-40486922D01*
X155313706Y-40486922D02*
X155222992Y-40644044D01*
X155222992Y-40644044D02*
X155154414Y-40883778D01*
X155154414Y-40883778D02*
X155146311Y-41018763D01*
X155146311Y-41018763D02*
X155190583Y-41183987D01*
X155190583Y-41183987D02*
X155317467Y-41327076D01*
X155317467Y-41327076D02*
X155579336Y-41478266D01*
X155219232Y-39803890D02*
X154538371Y-39410795D01*
X154538371Y-39410795D02*
X154663084Y-40041453D01*
X154663084Y-40041453D02*
X154505962Y-39950739D01*
X154505962Y-39950739D02*
X154370976Y-39942636D01*
X154370976Y-39942636D02*
X154288364Y-39964772D01*
X154288364Y-39964772D02*
X154175514Y-40039282D01*
X154175514Y-40039282D02*
X154024323Y-40301151D01*
X154024323Y-40301151D02*
X154016221Y-40436137D01*
X154016221Y-40436137D02*
X154038357Y-40518749D01*
X154038357Y-40518749D02*
X154112867Y-40631599D01*
X154112867Y-40631599D02*
X154427110Y-40813028D01*
X154427110Y-40813028D02*
X154562096Y-40821130D01*
X154562096Y-40821130D02*
X154644708Y-40798995D01*
X164980514Y-143900291D02*
X165504254Y-143597910D01*
X165504254Y-143597910D02*
X164869254Y-142498057D01*
X164281278Y-143535844D02*
X163914661Y-143747511D01*
X164090158Y-144414338D02*
X164613897Y-144111957D01*
X164613897Y-144111957D02*
X163978897Y-143012105D01*
X163978897Y-143012105D02*
X163455158Y-143314486D01*
X163618792Y-144686481D02*
X162983792Y-143586629D01*
X162983792Y-143586629D02*
X162721923Y-143737819D01*
X162721923Y-143737819D02*
X162595039Y-143880908D01*
X162595039Y-143880908D02*
X162550768Y-144046132D01*
X162550768Y-144046132D02*
X162558870Y-144181117D01*
X162558870Y-144181117D02*
X162627448Y-144420851D01*
X162627448Y-144420851D02*
X162718163Y-144577973D01*
X162718163Y-144577973D02*
X162891489Y-144757231D01*
X162891489Y-144757231D02*
X163004339Y-144831740D01*
X163004339Y-144831740D02*
X163169563Y-144876012D01*
X163169563Y-144876012D02*
X163356923Y-144837672D01*
X163356923Y-144837672D02*
X163618792Y-144686481D01*
X161624242Y-144860389D02*
X162047575Y-145593624D01*
X161644206Y-144290207D02*
X162359647Y-144924626D01*
X162359647Y-144924626D02*
X161678786Y-145317721D01*
X104906196Y-149631481D02*
X105429935Y-149933862D01*
X105429935Y-149933862D02*
X106064935Y-148834009D01*
X104872198Y-148843701D02*
X104505581Y-148632034D01*
X104015840Y-149117433D02*
X104539579Y-149419814D01*
X104539579Y-149419814D02*
X105174579Y-148319962D01*
X105174579Y-148319962D02*
X104650840Y-148017581D01*
X103544474Y-148845290D02*
X104179474Y-147745438D01*
X104179474Y-147745438D02*
X103917605Y-147594247D01*
X103917605Y-147594247D02*
X103730245Y-147555907D01*
X103730245Y-147555907D02*
X103565021Y-147600179D01*
X103565021Y-147600179D02*
X103452171Y-147674688D01*
X103452171Y-147674688D02*
X103278844Y-147853946D01*
X103278844Y-147853946D02*
X103188130Y-148011068D01*
X103188130Y-148011068D02*
X103119552Y-148250802D01*
X103119552Y-148250802D02*
X103111449Y-148385787D01*
X103111449Y-148385787D02*
X103155721Y-148551011D01*
X103155721Y-148551011D02*
X103282605Y-148694100D01*
X103282605Y-148694100D02*
X103544474Y-148845290D01*
X102555883Y-146808057D02*
X103079622Y-147110438D01*
X103079622Y-147110438D02*
X102829615Y-147664415D01*
X102829615Y-147664415D02*
X102807479Y-147581803D01*
X102807479Y-147581803D02*
X102732969Y-147468953D01*
X102732969Y-147468953D02*
X102471100Y-147317763D01*
X102471100Y-147317763D02*
X102336114Y-147309660D01*
X102336114Y-147309660D02*
X102253502Y-147331796D01*
X102253502Y-147331796D02*
X102140652Y-147406306D01*
X102140652Y-147406306D02*
X101989461Y-147668175D01*
X101989461Y-147668175D02*
X101981359Y-147803161D01*
X101981359Y-147803161D02*
X102003495Y-147885773D01*
X102003495Y-147885773D02*
X102078005Y-147998623D01*
X102078005Y-147998623D02*
X102339874Y-148149814D01*
X102339874Y-148149814D02*
X102474860Y-148157916D01*
X102474860Y-148157916D02*
X102557472Y-148135780D01*
X190054318Y-89008809D02*
X190054318Y-88404047D01*
X190054318Y-88404047D02*
X188784318Y-88404047D01*
X189389080Y-89432142D02*
X189389080Y-89855476D01*
X190054318Y-90036904D02*
X190054318Y-89432142D01*
X190054318Y-89432142D02*
X188784318Y-89432142D01*
X188784318Y-89432142D02*
X188784318Y-90036904D01*
X190054318Y-90581190D02*
X188784318Y-90581190D01*
X188784318Y-90581190D02*
X188784318Y-90883571D01*
X188784318Y-90883571D02*
X188844794Y-91065000D01*
X188844794Y-91065000D02*
X188965746Y-91185952D01*
X188965746Y-91185952D02*
X189086699Y-91246429D01*
X189086699Y-91246429D02*
X189328603Y-91306905D01*
X189328603Y-91306905D02*
X189510032Y-91306905D01*
X189510032Y-91306905D02*
X189751937Y-91246429D01*
X189751937Y-91246429D02*
X189872889Y-91185952D01*
X189872889Y-91185952D02*
X189993842Y-91065000D01*
X189993842Y-91065000D02*
X190054318Y-90883571D01*
X190054318Y-90883571D02*
X190054318Y-90581190D01*
X188784318Y-92395476D02*
X188784318Y-92153571D01*
X188784318Y-92153571D02*
X188844794Y-92032619D01*
X188844794Y-92032619D02*
X188905270Y-91972143D01*
X188905270Y-91972143D02*
X189086699Y-91851190D01*
X189086699Y-91851190D02*
X189328603Y-91790714D01*
X189328603Y-91790714D02*
X189812413Y-91790714D01*
X189812413Y-91790714D02*
X189933365Y-91851190D01*
X189933365Y-91851190D02*
X189993842Y-91911667D01*
X189993842Y-91911667D02*
X190054318Y-92032619D01*
X190054318Y-92032619D02*
X190054318Y-92274524D01*
X190054318Y-92274524D02*
X189993842Y-92395476D01*
X189993842Y-92395476D02*
X189933365Y-92455952D01*
X189933365Y-92455952D02*
X189812413Y-92516429D01*
X189812413Y-92516429D02*
X189510032Y-92516429D01*
X189510032Y-92516429D02*
X189389080Y-92455952D01*
X189389080Y-92455952D02*
X189328603Y-92395476D01*
X189328603Y-92395476D02*
X189268127Y-92274524D01*
X189268127Y-92274524D02*
X189268127Y-92032619D01*
X189268127Y-92032619D02*
X189328603Y-91911667D01*
X189328603Y-91911667D02*
X189389080Y-91851190D01*
X189389080Y-91851190D02*
X189510032Y-91790714D01*
D10*
X71174819Y-102190476D02*
X71174819Y-102809523D01*
X71174819Y-102809523D02*
X71555771Y-102476190D01*
X71555771Y-102476190D02*
X71555771Y-102619047D01*
X71555771Y-102619047D02*
X71603390Y-102714285D01*
X71603390Y-102714285D02*
X71651009Y-102761904D01*
X71651009Y-102761904D02*
X71746247Y-102809523D01*
X71746247Y-102809523D02*
X71984342Y-102809523D01*
X71984342Y-102809523D02*
X72079580Y-102761904D01*
X72079580Y-102761904D02*
X72127200Y-102714285D01*
X72127200Y-102714285D02*
X72174819Y-102619047D01*
X72174819Y-102619047D02*
X72174819Y-102333333D01*
X72174819Y-102333333D02*
X72127200Y-102238095D01*
X72127200Y-102238095D02*
X72079580Y-102190476D01*
X71174819Y-103142857D02*
X71174819Y-103761904D01*
X71174819Y-103761904D02*
X71555771Y-103428571D01*
X71555771Y-103428571D02*
X71555771Y-103571428D01*
X71555771Y-103571428D02*
X71603390Y-103666666D01*
X71603390Y-103666666D02*
X71651009Y-103714285D01*
X71651009Y-103714285D02*
X71746247Y-103761904D01*
X71746247Y-103761904D02*
X71984342Y-103761904D01*
X71984342Y-103761904D02*
X72079580Y-103714285D01*
X72079580Y-103714285D02*
X72127200Y-103666666D01*
X72127200Y-103666666D02*
X72174819Y-103571428D01*
X72174819Y-103571428D02*
X72174819Y-103285714D01*
X72174819Y-103285714D02*
X72127200Y-103190476D01*
X72127200Y-103190476D02*
X72079580Y-103142857D01*
X72174819Y-104761904D02*
X71698628Y-104428571D01*
X72174819Y-104190476D02*
X71174819Y-104190476D01*
X71174819Y-104190476D02*
X71174819Y-104571428D01*
X71174819Y-104571428D02*
X71222438Y-104666666D01*
X71222438Y-104666666D02*
X71270057Y-104714285D01*
X71270057Y-104714285D02*
X71365295Y-104761904D01*
X71365295Y-104761904D02*
X71508152Y-104761904D01*
X71508152Y-104761904D02*
X71603390Y-104714285D01*
X71603390Y-104714285D02*
X71651009Y-104666666D01*
X71651009Y-104666666D02*
X71698628Y-104571428D01*
X71698628Y-104571428D02*
X71698628Y-104190476D01*
D12*
X70668200Y-103332857D02*
X70544391Y-103246190D01*
X70668200Y-103184285D02*
X70408200Y-103184285D01*
X70408200Y-103184285D02*
X70408200Y-103283333D01*
X70408200Y-103283333D02*
X70420581Y-103308095D01*
X70420581Y-103308095D02*
X70432962Y-103320476D01*
X70432962Y-103320476D02*
X70457724Y-103332857D01*
X70457724Y-103332857D02*
X70494867Y-103332857D01*
X70494867Y-103332857D02*
X70519629Y-103320476D01*
X70519629Y-103320476D02*
X70532010Y-103308095D01*
X70532010Y-103308095D02*
X70544391Y-103283333D01*
X70544391Y-103283333D02*
X70544391Y-103184285D01*
X70494867Y-103555714D02*
X70668200Y-103555714D01*
X70395820Y-103493809D02*
X70581534Y-103431904D01*
X70581534Y-103431904D02*
X70581534Y-103592857D01*
X70668200Y-103828095D02*
X70668200Y-103679523D01*
X70668200Y-103753809D02*
X70408200Y-103753809D01*
X70408200Y-103753809D02*
X70445343Y-103729047D01*
X70445343Y-103729047D02*
X70470105Y-103704285D01*
X70470105Y-103704285D02*
X70482486Y-103679523D01*
D10*
X93829819Y-47766346D02*
X93293708Y-48075870D01*
X93293708Y-48075870D02*
X93772859Y-48239118D01*
X93772859Y-48239118D02*
X93649141Y-48310546D01*
X93649141Y-48310546D02*
X93590472Y-48399405D01*
X93590472Y-48399405D02*
X93573043Y-48464453D01*
X93573043Y-48464453D02*
X93579422Y-48570741D01*
X93579422Y-48570741D02*
X93698470Y-48776938D01*
X93698470Y-48776938D02*
X93787328Y-48835607D01*
X93787328Y-48835607D02*
X93852377Y-48853037D01*
X93852377Y-48853037D02*
X93958665Y-48846657D01*
X93958665Y-48846657D02*
X94206101Y-48703800D01*
X94206101Y-48703800D02*
X94264770Y-48614942D01*
X94264770Y-48614942D02*
X94282200Y-48549893D01*
X93005033Y-48242537D02*
X92468922Y-48552060D01*
X92468922Y-48552060D02*
X92948073Y-48715308D01*
X92948073Y-48715308D02*
X92824355Y-48786737D01*
X92824355Y-48786737D02*
X92765686Y-48875595D01*
X92765686Y-48875595D02*
X92748256Y-48940644D01*
X92748256Y-48940644D02*
X92754636Y-49046932D01*
X92754636Y-49046932D02*
X92873684Y-49253129D01*
X92873684Y-49253129D02*
X92962542Y-49311798D01*
X92962542Y-49311798D02*
X93027591Y-49329227D01*
X93027591Y-49329227D02*
X93133879Y-49322848D01*
X93133879Y-49322848D02*
X93381315Y-49179990D01*
X93381315Y-49179990D02*
X93439984Y-49091132D01*
X93439984Y-49091132D02*
X93457414Y-49026083D01*
X92102896Y-49918086D02*
X92153476Y-49339026D01*
X92597768Y-49632371D02*
X92097768Y-48766346D01*
X92097768Y-48766346D02*
X91767854Y-48956822D01*
X91767854Y-48956822D02*
X91709185Y-49045681D01*
X91709185Y-49045681D02*
X91691755Y-49110729D01*
X91691755Y-49110729D02*
X91698134Y-49217018D01*
X91698134Y-49217018D02*
X91769563Y-49340735D01*
X91769563Y-49340735D02*
X91858421Y-49399405D01*
X91858421Y-49399405D02*
X91923470Y-49416834D01*
X91923470Y-49416834D02*
X92029758Y-49410455D01*
X92029758Y-49410455D02*
X92359673Y-49219978D01*
D12*
X92587178Y-47898792D02*
X92600329Y-47748237D01*
X92715845Y-47824506D02*
X92585845Y-47599340D01*
X92585845Y-47599340D02*
X92500067Y-47648864D01*
X92500067Y-47648864D02*
X92484813Y-47671967D01*
X92484813Y-47671967D02*
X92480281Y-47688879D01*
X92480281Y-47688879D02*
X92481940Y-47716514D01*
X92481940Y-47716514D02*
X92500511Y-47748681D01*
X92500511Y-47748681D02*
X92523614Y-47763935D01*
X92523614Y-47763935D02*
X92540527Y-47768467D01*
X92540527Y-47768467D02*
X92568162Y-47766808D01*
X92568162Y-47766808D02*
X92653940Y-47717284D01*
X92307511Y-47860110D02*
X92394178Y-48010221D01*
X92311599Y-47743379D02*
X92458067Y-47873260D01*
X92458067Y-47873260D02*
X92318678Y-47953737D01*
X92169337Y-47868403D02*
X92152424Y-47863872D01*
X92152424Y-47863872D02*
X92124789Y-47865530D01*
X92124789Y-47865530D02*
X92071178Y-47896483D01*
X92071178Y-47896483D02*
X92055924Y-47919586D01*
X92055924Y-47919586D02*
X92051392Y-47936499D01*
X92051392Y-47936499D02*
X92053051Y-47964133D01*
X92053051Y-47964133D02*
X92065432Y-47985578D01*
X92065432Y-47985578D02*
X92094726Y-48011554D01*
X92094726Y-48011554D02*
X92297678Y-48065935D01*
X92297678Y-48065935D02*
X92158289Y-48146411D01*
D10*
X152879998Y-40015871D02*
X152343887Y-39706347D01*
X152343887Y-39706347D02*
X152442086Y-40202928D01*
X152442086Y-40202928D02*
X152318368Y-40131500D01*
X152318368Y-40131500D02*
X152212080Y-40125120D01*
X152212080Y-40125120D02*
X152147031Y-40142550D01*
X152147031Y-40142550D02*
X152058173Y-40201219D01*
X152058173Y-40201219D02*
X151939125Y-40407415D01*
X151939125Y-40407415D02*
X151932745Y-40513703D01*
X151932745Y-40513703D02*
X151950175Y-40578752D01*
X151950175Y-40578752D02*
X152008844Y-40667611D01*
X152008844Y-40667611D02*
X152256280Y-40810468D01*
X152256280Y-40810468D02*
X152362568Y-40816847D01*
X152362568Y-40816847D02*
X152427617Y-40799418D01*
X152055212Y-39539680D02*
X151519101Y-39230157D01*
X151519101Y-39230157D02*
X151617300Y-39726738D01*
X151617300Y-39726738D02*
X151493582Y-39655309D01*
X151493582Y-39655309D02*
X151387294Y-39648929D01*
X151387294Y-39648929D02*
X151322245Y-39666359D01*
X151322245Y-39666359D02*
X151233387Y-39725028D01*
X151233387Y-39725028D02*
X151114339Y-39931225D01*
X151114339Y-39931225D02*
X151107959Y-40037513D01*
X151107959Y-40037513D02*
X151125389Y-40102562D01*
X151125389Y-40102562D02*
X151184058Y-40191420D01*
X151184058Y-40191420D02*
X151431494Y-40334277D01*
X151431494Y-40334277D02*
X151537782Y-40340657D01*
X151537782Y-40340657D02*
X151602831Y-40323227D01*
X150153075Y-39596182D02*
X150679846Y-39350456D01*
X150647947Y-39881896D02*
X151147947Y-39015871D01*
X151147947Y-39015871D02*
X150818033Y-38825395D01*
X150818033Y-38825395D02*
X150711744Y-38819015D01*
X150711744Y-38819015D02*
X150646696Y-38836445D01*
X150646696Y-38836445D02*
X150557837Y-38895114D01*
X150557837Y-38895114D02*
X150486409Y-39018832D01*
X150486409Y-39018832D02*
X150480029Y-39125120D01*
X150480029Y-39125120D02*
X150497459Y-39190169D01*
X150497459Y-39190169D02*
X150556128Y-39279027D01*
X150556128Y-39279027D02*
X150886042Y-39469503D01*
D12*
X152143976Y-39005936D02*
X152280936Y-38942047D01*
X152272643Y-39080222D02*
X152402643Y-38855055D01*
X152402643Y-38855055D02*
X152316865Y-38805531D01*
X152316865Y-38805531D02*
X152289230Y-38803872D01*
X152289230Y-38803872D02*
X152272317Y-38808404D01*
X152272317Y-38808404D02*
X152249214Y-38823658D01*
X152249214Y-38823658D02*
X152230643Y-38855825D01*
X152230643Y-38855825D02*
X152228984Y-38883460D01*
X152228984Y-38883460D02*
X152233516Y-38900372D01*
X152233516Y-38900372D02*
X152248770Y-38923476D01*
X152248770Y-38923476D02*
X152334547Y-38972999D01*
X152037643Y-38744396D02*
X151950976Y-38894507D01*
X152140778Y-38689571D02*
X152101532Y-38881357D01*
X152101532Y-38881357D02*
X151962143Y-38800880D01*
X151984476Y-38613626D02*
X151845087Y-38533150D01*
X151845087Y-38533150D02*
X151870619Y-38662261D01*
X151870619Y-38662261D02*
X151838452Y-38643690D01*
X151838452Y-38643690D02*
X151810817Y-38642031D01*
X151810817Y-38642031D02*
X151793905Y-38646563D01*
X151793905Y-38646563D02*
X151770801Y-38661817D01*
X151770801Y-38661817D02*
X151739849Y-38715428D01*
X151739849Y-38715428D02*
X151738190Y-38743063D01*
X151738190Y-38743063D02*
X151742722Y-38759976D01*
X151742722Y-38759976D02*
X151757976Y-38783079D01*
X151757976Y-38783079D02*
X151822309Y-38820222D01*
X151822309Y-38820222D02*
X151849944Y-38821880D01*
X151849944Y-38821880D02*
X151866857Y-38817349D01*
D10*
X167993161Y-139629848D02*
X167457050Y-139939372D01*
X167457050Y-139939372D02*
X167936201Y-140102620D01*
X167936201Y-140102620D02*
X167812483Y-140174048D01*
X167812483Y-140174048D02*
X167753814Y-140262907D01*
X167753814Y-140262907D02*
X167736385Y-140327955D01*
X167736385Y-140327955D02*
X167742764Y-140434243D01*
X167742764Y-140434243D02*
X167861812Y-140640440D01*
X167861812Y-140640440D02*
X167950670Y-140699109D01*
X167950670Y-140699109D02*
X168015719Y-140716539D01*
X168015719Y-140716539D02*
X168122007Y-140710159D01*
X168122007Y-140710159D02*
X168369443Y-140567302D01*
X168369443Y-140567302D02*
X168428112Y-140478444D01*
X168428112Y-140478444D02*
X168445542Y-140413395D01*
X167168375Y-140106039D02*
X166632264Y-140415562D01*
X166632264Y-140415562D02*
X167111415Y-140578810D01*
X167111415Y-140578810D02*
X166987697Y-140650239D01*
X166987697Y-140650239D02*
X166929028Y-140739097D01*
X166929028Y-140739097D02*
X166911598Y-140804146D01*
X166911598Y-140804146D02*
X166917978Y-140910434D01*
X166917978Y-140910434D02*
X167037026Y-141116631D01*
X167037026Y-141116631D02*
X167125884Y-141175300D01*
X167125884Y-141175300D02*
X167190933Y-141192729D01*
X167190933Y-141192729D02*
X167297221Y-141186350D01*
X167297221Y-141186350D02*
X167544657Y-141043492D01*
X167544657Y-141043492D02*
X167603326Y-140954634D01*
X167603326Y-140954634D02*
X167620756Y-140889585D01*
X166266238Y-141781588D02*
X166316818Y-141202528D01*
X166761110Y-141495873D02*
X166261110Y-140629848D01*
X166261110Y-140629848D02*
X165931196Y-140820324D01*
X165931196Y-140820324D02*
X165872527Y-140909183D01*
X165872527Y-140909183D02*
X165855097Y-140974231D01*
X165855097Y-140974231D02*
X165861476Y-141080520D01*
X165861476Y-141080520D02*
X165932905Y-141204237D01*
X165932905Y-141204237D02*
X166021763Y-141262907D01*
X166021763Y-141262907D02*
X166086812Y-141280336D01*
X166086812Y-141280336D02*
X166193100Y-141273957D01*
X166193100Y-141273957D02*
X166523015Y-141083480D01*
D12*
X167920522Y-141788794D02*
X167933673Y-141638239D01*
X168049189Y-141714508D02*
X167919189Y-141489342D01*
X167919189Y-141489342D02*
X167833411Y-141538866D01*
X167833411Y-141538866D02*
X167818157Y-141561969D01*
X167818157Y-141561969D02*
X167813625Y-141578881D01*
X167813625Y-141578881D02*
X167815284Y-141606516D01*
X167815284Y-141606516D02*
X167833855Y-141638683D01*
X167833855Y-141638683D02*
X167856958Y-141653937D01*
X167856958Y-141653937D02*
X167873871Y-141658469D01*
X167873871Y-141658469D02*
X167901506Y-141656810D01*
X167901506Y-141656810D02*
X167987284Y-141607286D01*
X167640855Y-141750112D02*
X167727522Y-141900223D01*
X167644943Y-141633381D02*
X167791411Y-141763262D01*
X167791411Y-141763262D02*
X167652022Y-141843739D01*
X167426411Y-141873921D02*
X167513078Y-142024032D01*
X167430498Y-141757191D02*
X167576966Y-141887072D01*
X167576966Y-141887072D02*
X167437578Y-141967548D01*
D10*
X109958343Y-149774369D02*
X109422232Y-149464845D01*
X109422232Y-149464845D02*
X109520431Y-149961426D01*
X109520431Y-149961426D02*
X109396713Y-149889998D01*
X109396713Y-149889998D02*
X109290425Y-149883618D01*
X109290425Y-149883618D02*
X109225376Y-149901048D01*
X109225376Y-149901048D02*
X109136518Y-149959717D01*
X109136518Y-149959717D02*
X109017470Y-150165913D01*
X109017470Y-150165913D02*
X109011090Y-150272201D01*
X109011090Y-150272201D02*
X109028520Y-150337250D01*
X109028520Y-150337250D02*
X109087189Y-150426109D01*
X109087189Y-150426109D02*
X109334625Y-150568966D01*
X109334625Y-150568966D02*
X109440913Y-150575345D01*
X109440913Y-150575345D02*
X109505962Y-150557916D01*
X109133557Y-149298178D02*
X108597446Y-148988655D01*
X108597446Y-148988655D02*
X108695645Y-149485236D01*
X108695645Y-149485236D02*
X108571927Y-149413807D01*
X108571927Y-149413807D02*
X108465639Y-149407427D01*
X108465639Y-149407427D02*
X108400590Y-149424857D01*
X108400590Y-149424857D02*
X108311732Y-149483526D01*
X108311732Y-149483526D02*
X108192684Y-149689723D01*
X108192684Y-149689723D02*
X108186304Y-149796011D01*
X108186304Y-149796011D02*
X108203734Y-149861060D01*
X108203734Y-149861060D02*
X108262403Y-149949918D01*
X108262403Y-149949918D02*
X108509839Y-150092775D01*
X108509839Y-150092775D02*
X108616127Y-150099155D01*
X108616127Y-150099155D02*
X108681176Y-150081725D01*
X107231420Y-149354680D02*
X107758191Y-149108954D01*
X107726292Y-149640394D02*
X108226292Y-148774369D01*
X108226292Y-148774369D02*
X107896378Y-148583893D01*
X107896378Y-148583893D02*
X107790089Y-148577513D01*
X107790089Y-148577513D02*
X107725041Y-148594943D01*
X107725041Y-148594943D02*
X107636182Y-148653612D01*
X107636182Y-148653612D02*
X107564754Y-148777330D01*
X107564754Y-148777330D02*
X107558374Y-148883618D01*
X107558374Y-148883618D02*
X107575804Y-148948667D01*
X107575804Y-148948667D02*
X107634473Y-149037525D01*
X107634473Y-149037525D02*
X107964387Y-149228001D01*
D12*
X108052321Y-150790935D02*
X108189281Y-150727046D01*
X108180988Y-150865221D02*
X108310988Y-150640054D01*
X108310988Y-150640054D02*
X108225210Y-150590530D01*
X108225210Y-150590530D02*
X108197575Y-150588871D01*
X108197575Y-150588871D02*
X108180662Y-150593403D01*
X108180662Y-150593403D02*
X108157559Y-150608657D01*
X108157559Y-150608657D02*
X108138988Y-150640824D01*
X108138988Y-150640824D02*
X108137329Y-150668459D01*
X108137329Y-150668459D02*
X108141861Y-150685371D01*
X108141861Y-150685371D02*
X108157115Y-150708475D01*
X108157115Y-150708475D02*
X108242892Y-150757998D01*
X107945988Y-150529395D02*
X107859321Y-150679506D01*
X108049123Y-150474570D02*
X108009877Y-150666356D01*
X108009877Y-150666356D02*
X107870488Y-150585879D01*
X107764154Y-150324340D02*
X107871377Y-150386245D01*
X107871377Y-150386245D02*
X107820194Y-150499657D01*
X107820194Y-150499657D02*
X107815662Y-150482745D01*
X107815662Y-150482745D02*
X107800408Y-150459641D01*
X107800408Y-150459641D02*
X107746797Y-150428689D01*
X107746797Y-150428689D02*
X107719162Y-150427030D01*
X107719162Y-150427030D02*
X107702250Y-150431562D01*
X107702250Y-150431562D02*
X107679146Y-150446816D01*
X107679146Y-150446816D02*
X107648194Y-150500427D01*
X107648194Y-150500427D02*
X107646535Y-150528062D01*
X107646535Y-150528062D02*
X107651067Y-150544975D01*
X107651067Y-150544975D02*
X107666321Y-150568078D01*
X107666321Y-150568078D02*
X107719932Y-150599030D01*
X107719932Y-150599030D02*
X107747567Y-150600689D01*
X107747567Y-150600689D02*
X107764480Y-150596157D01*
D10*
X187759819Y-84200476D02*
X187759819Y-84819523D01*
X187759819Y-84819523D02*
X188140771Y-84486190D01*
X188140771Y-84486190D02*
X188140771Y-84629047D01*
X188140771Y-84629047D02*
X188188390Y-84724285D01*
X188188390Y-84724285D02*
X188236009Y-84771904D01*
X188236009Y-84771904D02*
X188331247Y-84819523D01*
X188331247Y-84819523D02*
X188569342Y-84819523D01*
X188569342Y-84819523D02*
X188664580Y-84771904D01*
X188664580Y-84771904D02*
X188712200Y-84724285D01*
X188712200Y-84724285D02*
X188759819Y-84629047D01*
X188759819Y-84629047D02*
X188759819Y-84343333D01*
X188759819Y-84343333D02*
X188712200Y-84248095D01*
X188712200Y-84248095D02*
X188664580Y-84200476D01*
X187759819Y-85152857D02*
X187759819Y-85771904D01*
X187759819Y-85771904D02*
X188140771Y-85438571D01*
X188140771Y-85438571D02*
X188140771Y-85581428D01*
X188140771Y-85581428D02*
X188188390Y-85676666D01*
X188188390Y-85676666D02*
X188236009Y-85724285D01*
X188236009Y-85724285D02*
X188331247Y-85771904D01*
X188331247Y-85771904D02*
X188569342Y-85771904D01*
X188569342Y-85771904D02*
X188664580Y-85724285D01*
X188664580Y-85724285D02*
X188712200Y-85676666D01*
X188712200Y-85676666D02*
X188759819Y-85581428D01*
X188759819Y-85581428D02*
X188759819Y-85295714D01*
X188759819Y-85295714D02*
X188712200Y-85200476D01*
X188712200Y-85200476D02*
X188664580Y-85152857D01*
X188759819Y-86771904D02*
X188283628Y-86438571D01*
X188759819Y-86200476D02*
X187759819Y-86200476D01*
X187759819Y-86200476D02*
X187759819Y-86581428D01*
X187759819Y-86581428D02*
X187807438Y-86676666D01*
X187807438Y-86676666D02*
X187855057Y-86724285D01*
X187855057Y-86724285D02*
X187950295Y-86771904D01*
X187950295Y-86771904D02*
X188093152Y-86771904D01*
X188093152Y-86771904D02*
X188188390Y-86724285D01*
X188188390Y-86724285D02*
X188236009Y-86676666D01*
X188236009Y-86676666D02*
X188283628Y-86581428D01*
X188283628Y-86581428D02*
X188283628Y-86200476D01*
D12*
X189593200Y-85342857D02*
X189469391Y-85256190D01*
X189593200Y-85194285D02*
X189333200Y-85194285D01*
X189333200Y-85194285D02*
X189333200Y-85293333D01*
X189333200Y-85293333D02*
X189345581Y-85318095D01*
X189345581Y-85318095D02*
X189357962Y-85330476D01*
X189357962Y-85330476D02*
X189382724Y-85342857D01*
X189382724Y-85342857D02*
X189419867Y-85342857D01*
X189419867Y-85342857D02*
X189444629Y-85330476D01*
X189444629Y-85330476D02*
X189457010Y-85318095D01*
X189457010Y-85318095D02*
X189469391Y-85293333D01*
X189469391Y-85293333D02*
X189469391Y-85194285D01*
X189419867Y-85565714D02*
X189593200Y-85565714D01*
X189320820Y-85503809D02*
X189506534Y-85441904D01*
X189506534Y-85441904D02*
X189506534Y-85602857D01*
X189333200Y-85813333D02*
X189333200Y-85763809D01*
X189333200Y-85763809D02*
X189345581Y-85739047D01*
X189345581Y-85739047D02*
X189357962Y-85726666D01*
X189357962Y-85726666D02*
X189395105Y-85701904D01*
X189395105Y-85701904D02*
X189444629Y-85689523D01*
X189444629Y-85689523D02*
X189543677Y-85689523D01*
X189543677Y-85689523D02*
X189568439Y-85701904D01*
X189568439Y-85701904D02*
X189580820Y-85714285D01*
X189580820Y-85714285D02*
X189593200Y-85739047D01*
X189593200Y-85739047D02*
X189593200Y-85788571D01*
X189593200Y-85788571D02*
X189580820Y-85813333D01*
X189580820Y-85813333D02*
X189568439Y-85825714D01*
X189568439Y-85825714D02*
X189543677Y-85838095D01*
X189543677Y-85838095D02*
X189481772Y-85838095D01*
X189481772Y-85838095D02*
X189457010Y-85825714D01*
X189457010Y-85825714D02*
X189444629Y-85813333D01*
X189444629Y-85813333D02*
X189432248Y-85788571D01*
X189432248Y-85788571D02*
X189432248Y-85739047D01*
X189432248Y-85739047D02*
X189444629Y-85714285D01*
X189444629Y-85714285D02*
X189457010Y-85701904D01*
X189457010Y-85701904D02*
X189481772Y-85689523D01*
D13*
X209226000Y-117315000D02*
X262206000Y-117315000D01*
X209226000Y-92725000D02*
X209226000Y-117315000D01*
X209226000Y-92725000D02*
X262206000Y-92725000D01*
X262206000Y-92725000D02*
X262206000Y-117315000D01*
X69080000Y-97450000D02*
X71880000Y-97450000D01*
X71880000Y-97450000D02*
X71880000Y-100650000D01*
X69080000Y-100650000D02*
X69080000Y-97450000D01*
X71880000Y-100650000D02*
X69080000Y-100650000D01*
X97183072Y-43354052D02*
X98583072Y-45778924D01*
X98583072Y-45778924D02*
X95811790Y-47378924D01*
X94411790Y-44954052D02*
X97183072Y-43354052D01*
X95811790Y-47378924D02*
X94411790Y-44954052D01*
X158083072Y-40644052D02*
X156683072Y-43068924D01*
X156683072Y-43068924D02*
X153911790Y-41468924D01*
X155311790Y-39044052D02*
X158083072Y-40644052D01*
X153911790Y-41468924D02*
X155311790Y-39044052D01*
X162776928Y-146125948D02*
X161376928Y-143701076D01*
X161376928Y-143701076D02*
X164148210Y-142101076D01*
X165548210Y-144525948D02*
X162776928Y-146125948D01*
X164148210Y-142101076D02*
X165548210Y-144525948D01*
X101876928Y-148835948D02*
X103276928Y-146411076D01*
X103276928Y-146411076D02*
X106048210Y-148011076D01*
X104648210Y-150435948D02*
X101876928Y-148835948D01*
X106048210Y-148011076D02*
X104648210Y-150435948D01*
X190880000Y-92030000D02*
X188080000Y-92030000D01*
X188080000Y-92030000D02*
X188080000Y-88830000D01*
X190880000Y-88830000D02*
X190880000Y-92030000D01*
X188080000Y-88830000D02*
X190880000Y-88830000D01*
X70280000Y-102975000D02*
X70280000Y-104025000D01*
X70820000Y-102975000D02*
X70280000Y-102975000D01*
X70280000Y-104025000D02*
X70820000Y-104025000D01*
X70820000Y-104025000D02*
X70820000Y-102975000D01*
X92702991Y-47383672D02*
X91793665Y-47908672D01*
X92972991Y-47851326D02*
X92702991Y-47383672D01*
X91793665Y-47908672D02*
X92063665Y-48376326D01*
X92063665Y-48376326D02*
X92972991Y-47851326D01*
X152647990Y-38848673D02*
X151738664Y-38323673D01*
X152377990Y-39316327D02*
X152647990Y-38848673D01*
X151738664Y-38323673D02*
X151468664Y-38791327D01*
X151468664Y-38791327D02*
X152377990Y-39316327D01*
X167397009Y-142266328D02*
X168306335Y-141741328D01*
X167127009Y-141798674D02*
X167397009Y-142266328D01*
X168306335Y-141741328D02*
X168036335Y-141273674D01*
X168036335Y-141273674D02*
X167127009Y-141798674D01*
X107377009Y-150576326D02*
X108286335Y-151101326D01*
X107647009Y-150108672D02*
X107377009Y-150576326D01*
X108286335Y-151101326D02*
X108556335Y-150633672D01*
X108556335Y-150633672D02*
X107647009Y-150108672D01*
X189745000Y-86035000D02*
X189745000Y-84985000D01*
X189205000Y-86035000D02*
X189745000Y-86035000D01*
X189745000Y-84985000D02*
X189205000Y-84985000D01*
X189205000Y-84985000D02*
X189205000Y-86035000D01*
M02*
