M48
; DRILL file {KiCad 9.0.3} date 2026-04-28T20:02:28+0100
; FORMAT={-:-/ absolute / metric / decimal}
; #@! TF.CreationDate,2026-04-28T20:02:28+01:00
; #@! TF.GenerationSoftware,Kicad,Pcbnew,9.0.3
; #@! TF.FileFunction,MixedPlating,1,4
FMAT,2
METRIC
; #@! TA.AperFunction,Plated,PTH,ViaDrill
T1C0.300
; #@! TA.AperFunction,Plated,PTH,ComponentDrill
T2C0.650
; #@! TA.AperFunction,Plated,PTH,ComponentDrill
T3C0.800
; #@! TA.AperFunction,Plated,PTH,ComponentDrill
T4C0.900
; #@! TA.AperFunction,Plated,PTH,ComponentDrill
T5C1.000
; #@! TA.AperFunction,Plated,PTH,ComponentDrill
T6C1.020
; #@! TA.AperFunction,Plated,PTH,ComponentDrill
T7C1.600
; #@! TA.AperFunction,NonPlated,NPTH,ComponentDrill
T8C0.500
; #@! TA.AperFunction,NonPlated,NPTH,ComponentDrill
T9C0.991
; #@! TA.AperFunction,NonPlated,NPTH,ComponentDrill
T10C2.375
; #@! TA.AperFunction,NonPlated,NPTH,ComponentDrill
T11C3.200
; #@! TA.AperFunction,NonPlated,NPTH,ComponentDrill
T12C3.450
%
G90
G05
T1
X71.65Y-103.6
X77.15Y-55.01
X78.25Y-93.0
X78.85Y-100.15
X81.5Y-55.3
X84.75Y-45.291
X86.874Y-61.334
X86.891Y-62.034
X87.8Y-48.5
X88.521Y-45.461
X88.72Y-44.79
X89.5Y-47.7
X89.74Y-39.93
X89.83Y-40.64
X89.9Y-41.8
X90.35Y-46.0
X90.44Y-39.945
X90.44Y-40.645
X92.35Y-48.85
X109.1Y-151.3
X119.428Y-35.159
X121.535Y-36.645
X122.154Y-26.46
X123.843Y-26.419
X125.254Y-26.419
X125.7Y-150.4
X126.25Y-31.85
X127.75Y-26.5
X129.4Y-26.9
X132.05Y-38.7
X133.8Y-41.35
X136.95Y-159.5
X143.8Y-35.4
X150.2Y-40.0
X150.35Y-44.75
X150.85Y-38.1
X151.5Y-49.1
X152.25Y-46.9
X153.4Y-46.2
X153.65Y-154.55
X153.85Y-26.95
X155.1Y-34.15
X156.95Y-48.05
X157.629Y-47.315
X157.698Y-48.607
X159.2Y-35.273
X160.05Y-39.4
X160.55Y-48.35
X160.64Y-47.09
X161.1Y-33.85
X161.6Y-47.5
X162.422Y-41.595
X162.842Y-47.437
X163.627Y-47.165
X164.455Y-36.112
X165.262Y-47.268
X165.7Y-59.6
X166.022Y-36.75
X168.155Y-46.736
X168.9Y-141.15
X169.35Y-49.0
X172.1Y-44.8
X174.0Y-73.15
X174.2Y-74.45
X174.6Y-75.8
X175.65Y-78.5
X176.446Y-80.177
X176.455Y-79.251
X177.312Y-80.211
X178.087Y-80.474
X179.4Y-80.35
X179.825Y-74.125
X180.0Y-125.8
X180.271Y-80.114
X180.516Y-72.801
X180.963Y-79.628
X181.777Y-71.62
X182.101Y-84.943
X182.285Y-83.633
X183.328Y-73.293
X184.3Y-104.7
X186.6Y-114.75
X187.411Y-80.374
X187.893Y-77.494
X189.5Y-84.15
X213.476Y-111.341
X214.466Y-111.381
X214.475Y-110.071
X214.506Y-112.665
X233.395Y-93.689
X236.156Y-74.603
X236.163Y-73.814
X237.26Y-92.763
X237.934Y-95.57
X238.78Y-103.295
X241.028Y-93.823
X241.534Y-87.619
X241.952Y-85.842
X243.788Y-86.93
X244.494Y-85.359
X247.543Y-80.284
X248.683Y-91.445
X248.882Y-88.88
X249.475Y-85.372
X249.925Y-86.198
X252.584Y-85.659
X252.727Y-77.459
X252.776Y-87.009
X254.818Y-80.59
X255.297Y-81.791
X255.864Y-91.371
X257.125Y-81.011
X257.797Y-83.371
X258.331Y-80.984
X258.935Y-83.371
X258.964Y-87.223
X259.538Y-81.062
X260.158Y-83.526
T2
X109.358Y-37.239
X112.948Y-37.239
X112.948Y-40.829
T3
X84.849Y-135.789
X88.291Y-142.691
X141.34Y-39.135
X144.34Y-39.135
T4
X70.78Y-123.426
X74.78Y-130.355
X76.843Y-119.926
X80.843Y-126.855
T5
X61.592Y-74.292
X65.825Y-108.16
X71.817Y-108.474
X79.567Y-75.234
X89.774Y-55.767
X90.716Y-130.77
X91.024Y-57.933
X97.144Y-138.43
T6
X211.816Y-98.67
X211.816Y-111.37
T7
X86.464Y-150.943
X94.159Y-144.973
T8
X53.206Y-93.93
X53.206Y-94.73
X53.216Y-95.53
X54.796Y-93.94
X54.796Y-94.73
X54.806Y-95.53
X129.575Y-171.56
X129.585Y-169.97
X129.607Y-19.559
X129.617Y-17.969
X130.375Y-169.97
X130.375Y-171.56
X130.407Y-17.969
X130.407Y-19.559
X131.175Y-169.96
X131.175Y-171.55
X131.207Y-17.959
X131.207Y-19.549
X205.146Y-93.144
X205.16Y-93.944
X205.184Y-94.744
X206.736Y-93.126
X206.75Y-93.916
X206.774Y-94.716
X241.206Y-19.539
X241.209Y-70.679
X241.209Y-122.744
X241.216Y-17.949
X241.219Y-69.089
X241.219Y-121.154
X241.219Y-169.281
X241.223Y-170.871
X242.006Y-17.949
X242.006Y-19.539
X242.009Y-69.089
X242.009Y-70.679
X242.009Y-121.154
X242.009Y-122.744
X242.009Y-169.274
X242.023Y-170.864
X242.806Y-17.939
X242.806Y-19.529
X242.809Y-169.257
X242.809Y-69.079
X242.809Y-70.669
X242.809Y-121.144
X242.809Y-122.734
X242.823Y-170.847
X277.247Y-93.035
X277.261Y-93.835
X277.285Y-94.635
X278.837Y-93.017
X278.851Y-93.807
X278.875Y-94.607
T9
X152.838Y-27.701
X153.854Y-32.781
X154.87Y-27.701
X237.722Y-102.093
X238.738Y-97.013
X239.754Y-102.093
T10
X151.314Y-29.606
X151.314Y-32.781
X156.394Y-29.606
X156.394Y-32.781
X236.198Y-97.013
X236.198Y-100.188
X241.278Y-97.013
X241.278Y-100.188
T11
X101.477Y-39.769
X116.18Y-154.611
X191.865Y-97.666
X215.005Y-78.998
X268.868Y-112.703
T12
X220.456Y-107.37
X250.426Y-102.67
M30
