G04 #@! TF.GenerationSoftware,KiCad,Pcbnew,9.0.3*
G04 #@! TF.CreationDate,2026-04-28T20:03:08+01:00*
G04 #@! TF.ProjectId,Night light PCB,4e696768-7420-46c6-9967-687420504342,rev?*
G04 #@! TF.SameCoordinates,Original*
G04 #@! TF.FileFunction,Soldermask,Bot*
G04 #@! TF.FilePolarity,Negative*
%FSLAX46Y46*%
G04 Gerber Fmt 4.6, Leading zero omitted, Abs format (unit mm)*
G04 Created by KiCad (PCBNEW 9.0.3) date 2026-04-28 20:03:08*
%MOMM*%
%LPD*%
G01*
G04 APERTURE LIST*
G04 Aperture macros list*
%AMRoundRect*
0 Rectangle with rounded corners*
0 $1 Rounding radius*
0 $2 $3 $4 $5 $6 $7 $8 $9 X,Y pos of 4 corners*
0 Add a 4 corners polygon primitive as box body*
4,1,4,$2,$3,$4,$5,$6,$7,$8,$9,$2,$3,0*
0 Add four circle primitives for the rounded corners*
1,1,$1+$1,$2,$3*
1,1,$1+$1,$4,$5*
1,1,$1+$1,$6,$7*
1,1,$1+$1,$8,$9*
0 Add four rect primitives between the rounded corners*
20,1,$1+$1,$2,$3,$4,$5,0*
20,1,$1+$1,$4,$5,$6,$7,0*
20,1,$1+$1,$6,$7,$8,$9,0*
20,1,$1+$1,$8,$9,$2,$3,0*%
%AMHorizOval*
0 Thick line with rounded ends*
0 $1 width*
0 $2 $3 position (X,Y) of the first rounded end (center of the circle)*
0 $4 $5 position (X,Y) of the second rounded end (center of the circle)*
0 Add line between two ends*
20,1,$1,$2,$3,$4,$5,0*
0 Add two circle primitives to create the rounded ends*
1,1,$1,$2,$3*
1,1,$1,$4,$5*%
%AMRotRect*
0 Rectangle, with rotation*
0 The origin of the aperture is its center*
0 $1 length*
0 $2 width*
0 $3 Rotation angle, in degrees counterclockwise*
0 Add horizontal line*
21,1,$1,$2,0,0,$3*%
G04 Aperture macros list end*
%ADD10C,1.400000*%
%ADD11C,3.450000*%
%ADD12R,2.000000X2.000000*%
%ADD13C,2.000000*%
%ADD14RoundRect,0.250000X0.949519X-0.144615X0.349519X0.894615X-0.949519X0.144615X-0.349519X-0.894615X0*%
%ADD15HorizOval,1.700000X0.129904X0.075000X-0.129904X-0.075000X0*%
%ADD16C,2.374900*%
%ADD17C,0.990600*%
%ADD18C,2.800000*%
%ADD19R,2.200000X1.110000*%
%ADD20R,2.200000X2.180000*%
%ADD21RotRect,1.110000X2.200000X210.000000*%
%ADD22RotRect,2.180000X2.200000X210.000000*%
%ADD23RotRect,1.110000X2.200000X150.000000*%
%ADD24RotRect,2.180000X2.200000X150.000000*%
%ADD25RotRect,1.110000X2.200000X30.000000*%
%ADD26RotRect,2.180000X2.200000X30.000000*%
%ADD27RotRect,1.110000X2.200000X330.000000*%
%ADD28RotRect,2.180000X2.200000X330.000000*%
%ADD29RoundRect,0.250000X0.717571X-0.638430X0.780374X0.559926X-0.717571X0.638430X-0.780374X-0.559926X0*%
%ADD30HorizOval,1.700000X-0.149794X0.007850X0.149794X-0.007850X0*%
%ADD31C,1.600000*%
%ADD32RoundRect,0.135000X-0.185000X0.135000X-0.185000X-0.135000X0.185000X-0.135000X0.185000X0.135000X0*%
%ADD33RoundRect,0.135000X0.024413X0.227715X-0.209413X0.092715X-0.024413X-0.227715X0.209413X-0.092715X0*%
%ADD34RoundRect,0.135000X0.209413X0.092715X-0.024413X0.227715X-0.209413X-0.092715X0.024413X-0.227715X0*%
%ADD35RoundRect,0.135000X-0.024413X-0.227715X0.209413X-0.092715X0.024413X0.227715X-0.209413X0.092715X0*%
%ADD36RoundRect,0.135000X-0.209413X-0.092715X0.024413X-0.227715X0.209413X0.092715X-0.024413X0.227715X0*%
%ADD37RoundRect,0.135000X0.185000X-0.135000X0.185000X0.135000X-0.185000X0.135000X-0.185000X-0.135000X0*%
%ADD38C,1.800000*%
%ADD39C,1.192000*%
%ADD40C,0.500000*%
%ADD41C,3.200000*%
G04 APERTURE END LIST*
D10*
X70780415Y-123426325D03*
X76842593Y-119926325D03*
X80842593Y-126854528D03*
X74780415Y-130354528D03*
D11*
X250426000Y-102670000D03*
D12*
X211816000Y-111370000D03*
D13*
X211816000Y-98670000D03*
X90716062Y-130769778D03*
X97143938Y-138430222D03*
D14*
X91023527Y-57932532D03*
D15*
X89773527Y-55767468D03*
D16*
X241278000Y-97013000D03*
D17*
X238738000Y-97013000D03*
D16*
X236198000Y-97013000D03*
X241278000Y-100188000D03*
X236198000Y-100188000D03*
D17*
X239754000Y-102093000D03*
X237722000Y-102093000D03*
D16*
X151314000Y-32781000D03*
D17*
X153854000Y-32781000D03*
D16*
X156394000Y-32781000D03*
X151314000Y-29606000D03*
X156394000Y-29606000D03*
D17*
X152838000Y-27701000D03*
X154870000Y-27701000D03*
D18*
X86464247Y-150942681D03*
X94159000Y-144973000D03*
D19*
X70480000Y-97710000D03*
D20*
X70480000Y-99855000D03*
D21*
X97657905Y-44696488D03*
D22*
X95800281Y-45768988D03*
D23*
X157157905Y-41726488D03*
D24*
X155300281Y-40653988D03*
D25*
X162302095Y-144783512D03*
D26*
X164159719Y-143711012D03*
D27*
X102802095Y-147753512D03*
D28*
X104659719Y-148826012D03*
D19*
X189480000Y-91770000D03*
D20*
X189480000Y-89625000D03*
D29*
X65824868Y-108159968D03*
D30*
X71816645Y-108473984D03*
X61591579Y-74292000D03*
X79566911Y-75234047D03*
D31*
X144340000Y-39135000D03*
X141340000Y-39135000D03*
D32*
X70550000Y-102990000D03*
X70550000Y-104010000D03*
D33*
X92825001Y-47624999D03*
X91941655Y-48134999D03*
D34*
X152500000Y-39075000D03*
X151616654Y-38565000D03*
D35*
X167274999Y-142025001D03*
X168158345Y-141515001D03*
D36*
X107524999Y-150349999D03*
X108408345Y-150859999D03*
D37*
X189475000Y-86020000D03*
X189475000Y-85000000D03*
D38*
X84848986Y-135788825D03*
X88291013Y-142691176D03*
D39*
X112948000Y-40829000D03*
X112948000Y-37239000D03*
X109358000Y-37239000D03*
D40*
X241223012Y-170870951D03*
X241219136Y-169280924D03*
X242009106Y-169274030D03*
X242022981Y-170863970D03*
X242808988Y-169257049D03*
X242822864Y-170846989D03*
X129575312Y-171560000D03*
X129585312Y-169970000D03*
X130375312Y-169970000D03*
X130375312Y-171560000D03*
X131175312Y-169960000D03*
X131175312Y-171550000D03*
D41*
X191865000Y-97666000D03*
D40*
X277247160Y-93035084D03*
X278837092Y-93017333D03*
X278850880Y-93807213D03*
X277261122Y-93834962D03*
X278874840Y-94606916D03*
X277285082Y-94634666D03*
D41*
X116180000Y-154611000D03*
D40*
X129607000Y-19559000D03*
X129617000Y-17969000D03*
X130407000Y-17969000D03*
X130407000Y-19559000D03*
X131207000Y-17959000D03*
X131207000Y-19549000D03*
X205146160Y-93144084D03*
X206736092Y-93126333D03*
X206749880Y-93916213D03*
X205160122Y-93943962D03*
X206773840Y-94715916D03*
X205184082Y-94743666D03*
D41*
X268868000Y-112703000D03*
D40*
X241209000Y-122744000D03*
X241219000Y-121154000D03*
X242009000Y-121154000D03*
X242009000Y-122744000D03*
X242809000Y-121144000D03*
X242809000Y-122734000D03*
D41*
X101477000Y-39769000D03*
D40*
X53206000Y-93930000D03*
X54796000Y-93940000D03*
X54796000Y-94730000D03*
X53206000Y-94730000D03*
X54806000Y-95530000D03*
X53216000Y-95530000D03*
X241209000Y-70679000D03*
X241219000Y-69089000D03*
X242009000Y-69089000D03*
X242009000Y-70679000D03*
X242809000Y-69079000D03*
X242809000Y-70669000D03*
X241206000Y-19539000D03*
X241216000Y-17949000D03*
X242006000Y-17949000D03*
X242006000Y-19539000D03*
X242806000Y-17939000D03*
X242806000Y-19529000D03*
D41*
X215005000Y-78998000D03*
M02*
