M48
; DRILL file {KiCad 9.0.3} date 2026-04-28T20:01:59+0100
; FORMAT={-:-/ absolute / metric / decimal}
; #@! TF.CreationDate,2026-04-28T20:01:59+01:00
; #@! TF.GenerationSoftware,Kicad,Pcbnew,9.0.3
; #@! TF.FileFunction,NonPlated,1,4,NPTH
FMAT,2
METRIC
; #@! TA.AperFunction,NonPlated,NPTH,ComponentDrill
T1C0.500
; #@! TA.AperFunction,NonPlated,NPTH,ComponentDrill
T2C0.991
; #@! TA.AperFunction,NonPlated,NPTH,ComponentDrill
T3C2.375
; #@! TA.AperFunction,NonPlated,NPTH,ComponentDrill
T4C3.200
; #@! TA.AperFunction,NonPlated,NPTH,ComponentDrill
T5C3.450
%
G90
G05
T1
X53.206Y-93.93
X53.206Y-94.73
X53.216Y-95.53
X54.796Y-93.94
X54.796Y-94.73
X54.806Y-95.53
X129.575Y-171.56
X129.585Y-169.97
X129.607Y-19.559
X129.617Y-17.969
X130.375Y-169.97
X130.375Y-171.56
X130.407Y-17.969
X130.407Y-19.559
X131.175Y-169.96
X131.175Y-171.55
X131.207Y-17.959
X131.207Y-19.549
X205.146Y-93.144
X205.16Y-93.944
X205.184Y-94.744
X206.736Y-93.126
X206.75Y-93.916
X206.774Y-94.716
X241.206Y-19.539
X241.209Y-70.679
X241.209Y-122.744
X241.216Y-17.949
X241.219Y-69.089
X241.219Y-121.154
X241.219Y-169.281
X241.223Y-170.871
X242.006Y-17.949
X242.006Y-19.539
X242.009Y-69.089
X242.009Y-70.679
X242.009Y-121.154
X242.009Y-122.744
X242.009Y-169.274
X242.023Y-170.864
X242.806Y-17.939
X242.806Y-19.529
X242.809Y-169.257
X242.809Y-69.079
X242.809Y-70.669
X242.809Y-121.144
X242.809Y-122.734
X242.823Y-170.847
X277.247Y-93.035
X277.261Y-93.835
X277.285Y-94.635
X278.837Y-93.017
X278.851Y-93.807
X278.875Y-94.607
T2
X152.838Y-27.701
X153.854Y-32.781
X154.87Y-27.701
X237.722Y-102.093
X238.738Y-97.013
X239.754Y-102.093
T3
X151.314Y-29.606
X151.314Y-32.781
X156.394Y-29.606
X156.394Y-32.781
X236.198Y-97.013
X236.198Y-100.188
X241.278Y-97.013
X241.278Y-100.188
T4
X101.477Y-39.769
X116.18Y-154.611
X191.865Y-97.666
X215.005Y-78.998
X268.868Y-112.703
T5
X220.456Y-107.37
X250.426Y-102.67
M30
