G04 #@! TF.GenerationSoftware,KiCad,Pcbnew,9.0.3*
G04 #@! TF.CreationDate,2026-04-28T20:03:08+01:00*
G04 #@! TF.ProjectId,Night light PCB,4e696768-7420-46c6-9967-687420504342,rev?*
G04 #@! TF.SameCoordinates,Original*
G04 #@! TF.FileFunction,Profile,NP*
%FSLAX46Y46*%
G04 Gerber Fmt 4.6, Leading zero omitted, Abs format (unit mm)*
G04 Created by KiCad (PCBNEW 9.0.3) date 2026-04-28 20:03:08*
%MOMM*%
%LPD*%
G01*
G04 APERTURE LIST*
G04 #@! TA.AperFunction,Profile*
%ADD10C,0.050000*%
G04 #@! TD*
G04 APERTURE END LIST*
D10*
X244011997Y-171042000D02*
G75*
G02*
X244018000Y-169053982I6003J994000D01*
G01*
X279109000Y-170857000D02*
X279097115Y-95815969D01*
X244011997Y-122962844D02*
G75*
G02*
X244008000Y-120927152I-2997J1017844D01*
G01*
X132361000Y-19759894D02*
G75*
G02*
X204944873Y-91919854I-2381000J-74980106D01*
G01*
X240008003Y-68714156D02*
G75*
G02*
X239996958Y-70744206I-2003J-1015044D01*
G01*
X52972000Y-19776000D02*
X52975000Y-21745000D01*
X284660000Y-164200000D02*
G75*
G02*
X281460000Y-164200000I-1600000J0D01*
G01*
X281460000Y-164200000D02*
G75*
G02*
X284660000Y-164200000I1600000J0D01*
G01*
X240012000Y-120930000D02*
G75*
G02*
X240000956Y-122959962I-2000J-1015000D01*
G01*
X240000956Y-122959960D02*
X240000825Y-169055004D01*
X240005006Y-17736156D02*
G75*
G02*
X240003006Y-19766246I-2006J-1015044D01*
G01*
X206903837Y-92010901D02*
X206920000Y-70861000D01*
X244011997Y-171042000D02*
X279109000Y-170857000D01*
X244001006Y-17733397D02*
X279016000Y-17725000D01*
X244005003Y-19769000D02*
G75*
G02*
X244001006Y-17733396I-3003J1017800D01*
G01*
X240001000Y-171110882D02*
X132357702Y-171817976D01*
X132361000Y-19759895D02*
G75*
G02*
X132408000Y-17759001I47000J999895D01*
G01*
X128360000Y-169722000D02*
G75*
G02*
X128400612Y-171799832I16000J-1039000D01*
G01*
X240000778Y-169055004D02*
G75*
G02*
X240001000Y-171110999I15222J-1027996D01*
G01*
X44996000Y-171746000D02*
X44963000Y-21740000D01*
X286845000Y-179753000D02*
X286992309Y-179753010D01*
X55009936Y-92742979D02*
G75*
G02*
X53004000Y-92735000I-1002936J11979D01*
G01*
X244018000Y-169053982D02*
X244011997Y-122962844D01*
X206920000Y-70861000D02*
X239996959Y-70744204D01*
X55009936Y-92742979D02*
G75*
G02*
X128408786Y-19759803I74970064J-1997021D01*
G01*
X52971000Y-17772000D02*
X52972000Y-19776000D01*
X52975000Y-21745000D02*
X53004001Y-92735000D01*
X44966000Y-19770000D02*
X44963000Y-21740000D01*
X244004003Y-68711308D02*
X244005003Y-19769000D01*
X53008000Y-96717000D02*
G75*
G02*
X55006044Y-96741418I999000J-14000D01*
G01*
X240005006Y-17734355D02*
X132408000Y-17759001D01*
X207016000Y-95921000D02*
X207070040Y-120939000D01*
X44969122Y-17719993D02*
X44974000Y-9721000D01*
X204974178Y-95951038D02*
G75*
G02*
X132359134Y-169706213I-74994178J1211038D01*
G01*
X206903837Y-92010910D02*
G75*
G02*
X204944874Y-91919870I-977837J80910D01*
G01*
X244008000Y-120927152D02*
X277076000Y-120922000D01*
X287061000Y-15056000D02*
X286996000Y-170904000D01*
X240008003Y-68714156D02*
X240003006Y-19766244D01*
X284685000Y-21662000D02*
G75*
G02*
X281485000Y-21662000I-1600000J0D01*
G01*
X281485000Y-21662000D02*
G75*
G02*
X284685000Y-21662000I1600000J0D01*
G01*
X279027209Y-91804448D02*
X279016000Y-17725000D01*
X287068000Y-9829000D02*
X287061000Y-15056000D01*
X277098000Y-70917000D02*
X277098454Y-70734001D01*
X277076000Y-120922000D02*
X277095001Y-95837000D01*
X279027209Y-91804398D02*
G75*
G02*
X277027001Y-91849000I-1000209J-17602D01*
G01*
X128409000Y-17762353D02*
X52971000Y-17772000D01*
X277027000Y-91849000D02*
X277098000Y-70917000D01*
X277095000Y-95837000D02*
G75*
G02*
X279097115Y-95815969I1001000J16000D01*
G01*
X244008000Y-70746999D02*
X277098454Y-70734001D01*
X240012000Y-120930001D02*
X207070040Y-120939000D01*
X44996000Y-171746000D02*
X44991000Y-179736000D01*
X128409000Y-17762353D02*
G75*
G02*
X128408741Y-19757647I0J-997647D01*
G01*
X53008000Y-96717000D02*
X53008000Y-171746000D01*
X44966000Y-19770000D02*
X44969122Y-17719993D01*
X44991000Y-179736000D02*
X286845000Y-179753000D01*
X53008000Y-171746000D02*
X128400612Y-171799831D01*
X44974000Y-9721000D02*
X287068000Y-9829000D01*
X286996000Y-170904000D02*
X286992309Y-179753769D01*
X177480000Y-94740000D02*
G75*
G02*
X82480000Y-94740000I-47500000J0D01*
G01*
X82480000Y-94740000D02*
G75*
G02*
X177480000Y-94740000I47500000J0D01*
G01*
X204974177Y-95951038D02*
G75*
G02*
X207016000Y-95921000I1020823J21038D01*
G01*
X128360000Y-169721315D02*
G75*
G02*
X55007895Y-96741371I1620000J74981315D01*
G01*
X132357647Y-171817976D02*
G75*
G02*
X132358999Y-169702000I19353J1057976D01*
G01*
X244008000Y-70747000D02*
G75*
G02*
X244004003Y-68711396I-3000J1017800D01*
G01*
M02*
