G04 #@! TF.GenerationSoftware,KiCad,Pcbnew,9.0.3*
G04 #@! TF.CreationDate,2026-04-28T20:03:08+01:00*
G04 #@! TF.ProjectId,Night light PCB,4e696768-7420-46c6-9967-687420504342,rev?*
G04 #@! TF.SameCoordinates,Original*
G04 #@! TF.FileFunction,Soldermask,Top*
G04 #@! TF.FilePolarity,Negative*
%FSLAX46Y46*%
G04 Gerber Fmt 4.6, Leading zero omitted, Abs format (unit mm)*
G04 Created by KiCad (PCBNEW 9.0.3) date 2026-04-28 20:03:08*
%MOMM*%
%LPD*%
G01*
G04 APERTURE LIST*
G04 Aperture macros list*
%AMRoundRect*
0 Rectangle with rounded corners*
0 $1 Rounding radius*
0 $2 $3 $4 $5 $6 $7 $8 $9 X,Y pos of 4 corners*
0 Add a 4 corners polygon primitive as box body*
4,1,4,$2,$3,$4,$5,$6,$7,$8,$9,$2,$3,0*
0 Add four circle primitives for the rounded corners*
1,1,$1+$1,$2,$3*
1,1,$1+$1,$4,$5*
1,1,$1+$1,$6,$7*
1,1,$1+$1,$8,$9*
0 Add four rect primitives between the rounded corners*
20,1,$1+$1,$2,$3,$4,$5,0*
20,1,$1+$1,$4,$5,$6,$7,0*
20,1,$1+$1,$6,$7,$8,$9,0*
20,1,$1+$1,$8,$9,$2,$3,0*%
%AMHorizOval*
0 Thick line with rounded ends*
0 $1 width*
0 $2 $3 position (X,Y) of the first rounded end (center of the circle)*
0 $4 $5 position (X,Y) of the second rounded end (center of the circle)*
0 Add line between two ends*
20,1,$1,$2,$3,$4,$5,0*
0 Add two circle primitives to create the rounded ends*
1,1,$1,$2,$3*
1,1,$1,$4,$5*%
%AMRotRect*
0 Rectangle, with rotation*
0 The origin of the aperture is its center*
0 $1 length*
0 $2 width*
0 $3 Rotation angle, in degrees counterclockwise*
0 Add horizontal line*
21,1,$1,$2,0,0,$3*%
G04 Aperture macros list end*
%ADD10RotRect,1.200000X1.400000X320.000000*%
%ADD11R,1.400000X1.200000*%
%ADD12C,1.400000*%
%ADD13C,3.450000*%
%ADD14R,2.000000X2.000000*%
%ADD15C,2.000000*%
%ADD16RoundRect,0.140000X-0.140000X-0.170000X0.140000X-0.170000X0.140000X0.170000X-0.140000X0.170000X0*%
%ADD17RoundRect,0.250000X0.475000X-0.250000X0.475000X0.250000X-0.475000X0.250000X-0.475000X-0.250000X0*%
%ADD18RoundRect,0.250000X-0.475000X0.250000X-0.475000X-0.250000X0.475000X-0.250000X0.475000X0.250000X0*%
%ADD19RoundRect,0.250000X0.250000X0.475000X-0.250000X0.475000X-0.250000X-0.475000X0.250000X-0.475000X0*%
%ADD20RoundRect,0.250000X-0.250000X-0.475000X0.250000X-0.475000X0.250000X0.475000X-0.250000X0.475000X0*%
%ADD21RoundRect,0.250000X1.455061X0.424800X-1.359189X0.671015X-1.455061X-0.424800X1.359189X-0.671015X0*%
%ADD22RoundRect,0.140000X-0.040237X0.216520X-0.220218X0.002028X0.040237X-0.216520X0.220218X-0.002028X0*%
%ADD23RoundRect,0.250000X-0.325000X-1.100000X0.325000X-1.100000X0.325000X1.100000X-0.325000X1.100000X0*%
%ADD24RoundRect,0.250000X-1.100000X0.325000X-1.100000X-0.325000X1.100000X-0.325000X1.100000X0.325000X0*%
%ADD25RoundRect,0.140000X-0.170000X0.140000X-0.170000X-0.140000X0.170000X-0.140000X0.170000X0.140000X0*%
%ADD26RoundRect,0.140000X0.040237X-0.216520X0.220218X-0.002028X-0.040237X0.216520X-0.220218X0.002028X0*%
%ADD27RoundRect,0.140000X0.140000X0.170000X-0.140000X0.170000X-0.140000X-0.170000X0.140000X-0.170000X0*%
%ADD28RoundRect,0.140000X0.170000X-0.140000X0.170000X0.140000X-0.170000X0.140000X-0.170000X-0.140000X0*%
%ADD29RoundRect,0.250000X0.325000X1.100000X-0.325000X1.100000X-0.325000X-1.100000X0.325000X-1.100000X0*%
%ADD30RoundRect,0.140000X0.216520X0.040237X0.002028X0.220218X-0.216520X-0.040237X-0.002028X-0.220218X0*%
%ADD31RotRect,2.550000X3.320000X130.000000*%
%ADD32RotRect,0.300000X0.850000X140.000000*%
%ADD33RotRect,0.300000X0.850000X50.000000*%
%ADD34RotRect,2.700000X2.700000X50.000000*%
%ADD35R,0.600000X1.200000*%
%ADD36R,1.550000X0.700000*%
%ADD37R,1.475000X0.600000*%
%ADD38R,0.600000X1.475000*%
%ADD39R,0.850000X0.300000*%
%ADD40R,0.300000X0.850000*%
%ADD41R,2.700000X2.700000*%
%ADD42RoundRect,0.250000X0.949519X-0.144615X0.349519X0.894615X-0.949519X0.144615X-0.349519X-0.894615X0*%
%ADD43HorizOval,1.700000X0.129904X0.075000X-0.129904X-0.075000X0*%
%ADD44C,2.374900*%
%ADD45C,0.990600*%
%ADD46C,0.787400*%
%ADD47C,2.800000*%
%ADD48RoundRect,0.147500X-0.223872X-0.037331X0.002111X-0.226954X0.223872X0.037331X-0.002111X0.226954X0*%
%ADD49RoundRect,0.147500X0.037331X-0.223872X0.226954X0.002111X-0.037331X0.223872X-0.226954X-0.002111X0*%
%ADD50RoundRect,0.147500X-0.172500X0.147500X-0.172500X-0.147500X0.172500X-0.147500X0.172500X0.147500X0*%
%ADD51RoundRect,0.147500X-0.147500X-0.172500X0.147500X-0.172500X0.147500X0.172500X-0.147500X0.172500X0*%
%ADD52RoundRect,0.250000X0.717571X-0.638430X0.780374X0.559926X-0.717571X0.638430X-0.780374X-0.559926X0*%
%ADD53HorizOval,1.700000X-0.149794X0.007850X0.149794X-0.007850X0*%
%ADD54R,1.200000X0.600000*%
%ADD55RoundRect,0.150000X0.587500X0.150000X-0.587500X0.150000X-0.587500X-0.150000X0.587500X-0.150000X0*%
%ADD56RoundRect,0.150000X-0.587500X-0.150000X0.587500X-0.150000X0.587500X0.150000X-0.587500X0.150000X0*%
%ADD57RoundRect,0.135000X-0.135000X-0.185000X0.135000X-0.185000X0.135000X0.185000X-0.135000X0.185000X0*%
%ADD58RoundRect,0.135000X0.185000X-0.135000X0.185000X0.135000X-0.185000X0.135000X-0.185000X-0.135000X0*%
%ADD59RoundRect,0.135000X-0.185000X0.135000X-0.185000X-0.135000X0.185000X-0.135000X0.185000X0.135000X0*%
%ADD60RoundRect,0.135000X0.135000X0.185000X-0.135000X0.185000X-0.135000X-0.185000X0.135000X-0.185000X0*%
%ADD61C,1.600000*%
%ADD62RoundRect,0.135000X0.222332X0.054942X0.015500X0.228495X-0.222332X-0.054942X-0.015500X-0.228495X0*%
%ADD63RoundRect,0.135000X-0.054942X0.222332X-0.228495X0.015500X0.054942X-0.222332X0.228495X-0.015500X0*%
%ADD64C,1.800000*%
%ADD65R,2.100000X1.400000*%
%ADD66RoundRect,0.062500X0.375000X0.062500X-0.375000X0.062500X-0.375000X-0.062500X0.375000X-0.062500X0*%
%ADD67RoundRect,0.062500X0.062500X0.375000X-0.062500X0.375000X-0.062500X-0.375000X0.062500X-0.375000X0*%
%ADD68R,1.600000X1.600000*%
%ADD69RoundRect,0.150000X-0.875000X-0.150000X0.875000X-0.150000X0.875000X0.150000X-0.875000X0.150000X0*%
%ADD70RoundRect,0.150000X-0.150000X0.512500X-0.150000X-0.512500X0.150000X-0.512500X0.150000X0.512500X0*%
%ADD71C,1.192000*%
%ADD72R,1.100000X0.900000*%
%ADD73R,1.400000X0.900000*%
%ADD74C,0.500000*%
%ADD75C,3.200000*%
%ADD76C,1.270000*%
G04 APERTURE END LIST*
D10*
X185103743Y-80418819D03*
X183689610Y-82104116D03*
X184991885Y-83196855D03*
X186406018Y-81511558D03*
D11*
X253573000Y-89795000D03*
X255773000Y-89795000D03*
X255773000Y-88095000D03*
X253573000Y-88095000D03*
D12*
X70780415Y-123426325D03*
X76842593Y-119926325D03*
X80842593Y-126854528D03*
X74780415Y-130354528D03*
D13*
X250426000Y-102670000D03*
D14*
X211816000Y-111370000D03*
D15*
X211816000Y-98670000D03*
D16*
X76830000Y-60230000D03*
X77790000Y-60230000D03*
D17*
X153877000Y-41955000D03*
X153877000Y-40055000D03*
X151677000Y-41905000D03*
X151677000Y-40005000D03*
D15*
X90716062Y-130769778D03*
X97143938Y-138430222D03*
D18*
X155977000Y-40055000D03*
X155977000Y-41955000D03*
D19*
X238011000Y-76145000D03*
X236111000Y-76145000D03*
X156227000Y-43830000D03*
X154327000Y-43830000D03*
D20*
X236108000Y-78211000D03*
X238008000Y-78211000D03*
D17*
X74720000Y-57900000D03*
X74720000Y-56000000D03*
D21*
X74987844Y-66011158D03*
X69932156Y-65568842D03*
D17*
X81480000Y-58240000D03*
X81480000Y-56340000D03*
X85500000Y-41810000D03*
X85500000Y-39910000D03*
X88510000Y-41810000D03*
X88510000Y-39910000D03*
D22*
X175707538Y-75912299D03*
X175090462Y-76647701D03*
D23*
X129485000Y-29420000D03*
X132435000Y-29420000D03*
D24*
X122065000Y-27515000D03*
X122065000Y-30465000D03*
D25*
X119428000Y-36054000D03*
X119428000Y-37014000D03*
D22*
X183292538Y-84813299D03*
X182675462Y-85548701D03*
D26*
X186830462Y-78836701D03*
X187447538Y-78101299D03*
D24*
X125385000Y-27520000D03*
X125385000Y-30470000D03*
D26*
X176291462Y-75167701D03*
X176908538Y-74432299D03*
D27*
X118283000Y-35034000D03*
X117323000Y-35034000D03*
D26*
X175490462Y-74497701D03*
X176107538Y-73762299D03*
D25*
X117353000Y-33079000D03*
X117353000Y-34039000D03*
D23*
X112903000Y-30084000D03*
X115853000Y-30084000D03*
D26*
X174741462Y-73852701D03*
X175358538Y-73117299D03*
D28*
X132035000Y-37845000D03*
X132035000Y-36885000D03*
D27*
X118283000Y-32084000D03*
X117323000Y-32084000D03*
D22*
X183172538Y-72009299D03*
X182555462Y-72744701D03*
D26*
X184177462Y-75297701D03*
X184794538Y-74562299D03*
D29*
X129025000Y-43750000D03*
X126075000Y-43750000D03*
D30*
X183802701Y-71298538D03*
X183067299Y-70681462D03*
D26*
X183424462Y-74661701D03*
X184041538Y-73926299D03*
D16*
X122255000Y-36665000D03*
X123215000Y-36665000D03*
D27*
X152637000Y-45358000D03*
X151677000Y-45358000D03*
D28*
X122160000Y-38625000D03*
X122160000Y-37665000D03*
D27*
X251811600Y-79338000D03*
X250851600Y-79338000D03*
X251079600Y-89761000D03*
X250119600Y-89761000D03*
D16*
X258037000Y-88106000D03*
X258997000Y-88106000D03*
X252737600Y-79174000D03*
X253697600Y-79174000D03*
X252721600Y-78182000D03*
X253681600Y-78182000D03*
X257633600Y-84324000D03*
X258593600Y-84324000D03*
D28*
X255676600Y-81039000D03*
X255676600Y-80079000D03*
D16*
X257633600Y-85303000D03*
X258593600Y-85303000D03*
D27*
X259533600Y-82380000D03*
X258573600Y-82380000D03*
D28*
X260487600Y-82404000D03*
X260487600Y-81444000D03*
D31*
X84608270Y-145616972D03*
X79041730Y-138983028D03*
D32*
X176679520Y-78251999D03*
X177062542Y-78573393D03*
X177445564Y-78894787D03*
X177828586Y-79216180D03*
X178211609Y-79537574D03*
D33*
X179549999Y-79420480D03*
X179871393Y-79037458D03*
X180192787Y-78654436D03*
X180514180Y-78271414D03*
X180835574Y-77888391D03*
D32*
X180718480Y-76550001D03*
X180335458Y-76228607D03*
X179952436Y-75907213D03*
X179569414Y-75585820D03*
X179186391Y-75264426D03*
D33*
X177848001Y-75381520D03*
X177526607Y-75764542D03*
X177205213Y-76147564D03*
X176883820Y-76530586D03*
X176562426Y-76913609D03*
D34*
X178699000Y-77401000D03*
D35*
X83960000Y-46190000D03*
X84910000Y-46190000D03*
X85860000Y-46190000D03*
X85860000Y-43690000D03*
X84910000Y-43690000D03*
X83960000Y-43690000D03*
D36*
X124785000Y-32370000D03*
X124785000Y-33640000D03*
X124785000Y-34910000D03*
X124785000Y-36180000D03*
X124785000Y-37450000D03*
X124785000Y-38720000D03*
X124785000Y-39990000D03*
X124785000Y-41260000D03*
X130285000Y-41260000D03*
X130285000Y-39990000D03*
X130285000Y-38720000D03*
X130285000Y-37450000D03*
X130285000Y-36180000D03*
X130285000Y-34910000D03*
X130285000Y-33640000D03*
X130285000Y-32370000D03*
D37*
X158184000Y-38795000D03*
X158184000Y-39595000D03*
X158184000Y-40395000D03*
X158184000Y-41195000D03*
X158184000Y-41995000D03*
X158184000Y-42795000D03*
X158184000Y-43595000D03*
X158184000Y-44395000D03*
D38*
X159622000Y-45833000D03*
X160422000Y-45833000D03*
X161222000Y-45833000D03*
X162022000Y-45833000D03*
X162822000Y-45833000D03*
X163622000Y-45833000D03*
X164422000Y-45833000D03*
X165222000Y-45833000D03*
D37*
X166660000Y-44395000D03*
X166660000Y-43595000D03*
X166660000Y-42795000D03*
X166660000Y-41995000D03*
X166660000Y-41195000D03*
X166660000Y-40395000D03*
X166660000Y-39595000D03*
X166660000Y-38795000D03*
D38*
X165222000Y-37357000D03*
X164422000Y-37357000D03*
X163622000Y-37357000D03*
X162822000Y-37357000D03*
X162022000Y-37357000D03*
X161222000Y-37357000D03*
X160422000Y-37357000D03*
X159622000Y-37357000D03*
D39*
X250483600Y-81534000D03*
X250483600Y-82034000D03*
X250483600Y-82534000D03*
X250483600Y-83034000D03*
X250483600Y-83534000D03*
D40*
X251433600Y-84484000D03*
X251933600Y-84484000D03*
X252433600Y-84484000D03*
X252933600Y-84484000D03*
X253433600Y-84484000D03*
D39*
X254383600Y-83534000D03*
X254383600Y-83034000D03*
X254383600Y-82534000D03*
X254383600Y-82034000D03*
X254383600Y-81534000D03*
D40*
X253433600Y-80584000D03*
X252933600Y-80584000D03*
X252433600Y-80584000D03*
X251933600Y-80584000D03*
X251433600Y-80584000D03*
D41*
X252433600Y-82534000D03*
D42*
X91023527Y-57932532D03*
D43*
X89773527Y-55767468D03*
D44*
X241278000Y-97013000D03*
D45*
X238738000Y-97013000D03*
D44*
X236198000Y-97013000D03*
X241278000Y-100188000D03*
X236198000Y-100188000D03*
D45*
X239754000Y-102093000D03*
X237722000Y-102093000D03*
D46*
X238103000Y-98283000D03*
X239373000Y-98283000D03*
X238103000Y-99553000D03*
X239373000Y-99553000D03*
X238103000Y-100823000D03*
X239373000Y-100823000D03*
D44*
X151314000Y-32781000D03*
D45*
X153854000Y-32781000D03*
D44*
X156394000Y-32781000D03*
X151314000Y-29606000D03*
X156394000Y-29606000D03*
D45*
X152838000Y-27701000D03*
X154870000Y-27701000D03*
D46*
X154489000Y-31511000D03*
X153219000Y-31511000D03*
X154489000Y-30241000D03*
X153219000Y-30241000D03*
X154489000Y-28971000D03*
X153219000Y-28971000D03*
D47*
X86464247Y-150942681D03*
X94159000Y-144973000D03*
D48*
X180778468Y-75038248D03*
X181521532Y-75661752D03*
D49*
X181331248Y-74204532D03*
X181954752Y-73461468D03*
D48*
X182092468Y-74817248D03*
X182835532Y-75440752D03*
D50*
X255660600Y-82559000D03*
X255660600Y-83529000D03*
X256668600Y-83366000D03*
X256668600Y-84336000D03*
D51*
X256664600Y-82384000D03*
X257634600Y-82384000D03*
D52*
X65824868Y-108159968D03*
D53*
X71816645Y-108473984D03*
X61591579Y-74292000D03*
X79566911Y-75234047D03*
D54*
X84140000Y-61890000D03*
X84140000Y-59990000D03*
X81640000Y-60940000D03*
D55*
X80297500Y-48112500D03*
X80297500Y-46212500D03*
X78422500Y-47162500D03*
D54*
X74630000Y-52360000D03*
X74630000Y-54260000D03*
X77130000Y-53310000D03*
D56*
X171152000Y-42880000D03*
X171152000Y-44780000D03*
X173027000Y-43830000D03*
D57*
X74810000Y-59340000D03*
X75830000Y-59340000D03*
X155542000Y-45355000D03*
X156562000Y-45355000D03*
D58*
X78970000Y-61170000D03*
X78970000Y-60150000D03*
D59*
X80040000Y-60150000D03*
X80040000Y-61170000D03*
X73140000Y-52680000D03*
X73140000Y-53700000D03*
D57*
X254622600Y-79118000D03*
X255642600Y-79118000D03*
X247639600Y-85398000D03*
X248659600Y-85398000D03*
D58*
X165272000Y-35908000D03*
X165272000Y-34888000D03*
D60*
X248785600Y-86537000D03*
X247765600Y-86537000D03*
D58*
X85590000Y-62340000D03*
X85590000Y-61320000D03*
D57*
X233495600Y-91748000D03*
X234515600Y-91748000D03*
D58*
X82580000Y-44250000D03*
X82580000Y-43230000D03*
D60*
X87780000Y-47650000D03*
X86760000Y-47650000D03*
D57*
X84830000Y-47660000D03*
X85850000Y-47660000D03*
D60*
X83920000Y-47660000D03*
X82900000Y-47660000D03*
D58*
X81870000Y-47670000D03*
X81870000Y-46650000D03*
D57*
X233417600Y-90412000D03*
X234437600Y-90412000D03*
D59*
X248373000Y-89690000D03*
X248373000Y-90710000D03*
D60*
X144845000Y-36245000D03*
X143825000Y-36245000D03*
D61*
X144340000Y-39135000D03*
X141340000Y-39135000D03*
D62*
X179214683Y-73644822D03*
X178433317Y-72989178D03*
D60*
X245896600Y-93533000D03*
X244876600Y-93533000D03*
D58*
X117353000Y-41819000D03*
X117353000Y-40799000D03*
X118403000Y-37039000D03*
X118403000Y-36019000D03*
D60*
X123235000Y-31985000D03*
X122215000Y-31985000D03*
D63*
X182659283Y-78947019D03*
X182003639Y-79728385D03*
D58*
X132035000Y-34005000D03*
X132035000Y-32985000D03*
D59*
X117353000Y-36049000D03*
X117353000Y-37069000D03*
D58*
X132025000Y-35950000D03*
X132025000Y-34930000D03*
X117353000Y-30044000D03*
X117353000Y-29024000D03*
D59*
X133075000Y-36840000D03*
X133075000Y-37860000D03*
D57*
X117318000Y-31059000D03*
X118338000Y-31059000D03*
X131865000Y-40025000D03*
X132885000Y-40025000D03*
X131865000Y-41375000D03*
X132885000Y-41375000D03*
X122165000Y-33650000D03*
X123185000Y-33650000D03*
D60*
X154597000Y-45358000D03*
X153577000Y-45358000D03*
D59*
X123165000Y-37655000D03*
X123165000Y-38675000D03*
D57*
X168567000Y-42805000D03*
X169587000Y-42805000D03*
X122180000Y-34880000D03*
X123200000Y-34880000D03*
D59*
X169547000Y-43813000D03*
X169547000Y-44833000D03*
D60*
X254788600Y-85863000D03*
X253768600Y-85863000D03*
X248781600Y-87934000D03*
X247761600Y-87934000D03*
D57*
X158586000Y-48581000D03*
X159606000Y-48581000D03*
D60*
X159627000Y-47414000D03*
X158607000Y-47414000D03*
X167344000Y-47402000D03*
X166324000Y-47402000D03*
D64*
X84848986Y-135788825D03*
X88291013Y-142691176D03*
D65*
X222830000Y-110614000D03*
X232830000Y-110614000D03*
X222830000Y-115114000D03*
X232830000Y-115114000D03*
X248754000Y-94556000D03*
X258754000Y-94556000D03*
X248754000Y-99056000D03*
X258754000Y-99056000D03*
X222830000Y-77994000D03*
X232830000Y-77994000D03*
X222830000Y-82494000D03*
X232830000Y-82494000D03*
D66*
X79557500Y-58290000D03*
X79557500Y-57790000D03*
X79557500Y-57290000D03*
X79557500Y-56790000D03*
D67*
X78870000Y-56102500D03*
X78370000Y-56102500D03*
X77870000Y-56102500D03*
X77370000Y-56102500D03*
D66*
X76682500Y-56790000D03*
X76682500Y-57290000D03*
X76682500Y-57790000D03*
X76682500Y-58290000D03*
D67*
X77370000Y-58977500D03*
X77870000Y-58977500D03*
X78370000Y-58977500D03*
X78870000Y-58977500D03*
D68*
X78120000Y-57540000D03*
D69*
X236467600Y-80273000D03*
X236467600Y-81543000D03*
X236467600Y-82813000D03*
X236467600Y-84083000D03*
X236467600Y-85353000D03*
X236467600Y-86623000D03*
X236467600Y-87893000D03*
X236467600Y-89163000D03*
X236467600Y-90433000D03*
X236467600Y-91703000D03*
X245767600Y-91703000D03*
X245767600Y-90433000D03*
X245767600Y-89163000D03*
X245767600Y-87893000D03*
X245767600Y-86623000D03*
X245767600Y-85353000D03*
X245767600Y-84083000D03*
X245767600Y-82813000D03*
X245767600Y-81543000D03*
X245767600Y-80273000D03*
D70*
X89440000Y-43772500D03*
X88490000Y-43772500D03*
X87540000Y-43772500D03*
X87540000Y-46047500D03*
X89440000Y-46047500D03*
D71*
X112948000Y-40829000D03*
X112948000Y-37239000D03*
X109358000Y-37239000D03*
D72*
X135685000Y-33720000D03*
D73*
X136835000Y-37020000D03*
D72*
X137985000Y-33720000D03*
D74*
X241223012Y-170870951D03*
X241219136Y-169280924D03*
X242009106Y-169274030D03*
X242022981Y-170863970D03*
X242808988Y-169257049D03*
X242822864Y-170846989D03*
X129575312Y-171560000D03*
X129585312Y-169970000D03*
X130375312Y-169970000D03*
X130375312Y-171560000D03*
X131175312Y-169960000D03*
X131175312Y-171550000D03*
D75*
X191865000Y-97666000D03*
D74*
X277247160Y-93035084D03*
X278837092Y-93017333D03*
X278850880Y-93807213D03*
X277261122Y-93834962D03*
X278874840Y-94606916D03*
X277285082Y-94634666D03*
D75*
X116180000Y-154611000D03*
D74*
X129607000Y-19559000D03*
X129617000Y-17969000D03*
X130407000Y-17969000D03*
X130407000Y-19559000D03*
X131207000Y-17959000D03*
X131207000Y-19549000D03*
X205146160Y-93144084D03*
X206736092Y-93126333D03*
X206749880Y-93916213D03*
X205160122Y-93943962D03*
X206773840Y-94715916D03*
X205184082Y-94743666D03*
D75*
X268868000Y-112703000D03*
D74*
X241209000Y-122744000D03*
X241219000Y-121154000D03*
X242009000Y-121154000D03*
X242009000Y-122744000D03*
X242809000Y-121144000D03*
X242809000Y-122734000D03*
D75*
X101477000Y-39769000D03*
D74*
X53206000Y-93930000D03*
X54796000Y-93940000D03*
X54796000Y-94730000D03*
X53206000Y-94730000D03*
X54806000Y-95530000D03*
X53216000Y-95530000D03*
X241209000Y-70679000D03*
X241219000Y-69089000D03*
X242009000Y-69089000D03*
X242009000Y-70679000D03*
X242809000Y-69079000D03*
X242809000Y-70669000D03*
X241206000Y-19539000D03*
X241216000Y-17949000D03*
X242006000Y-17949000D03*
X242006000Y-19539000D03*
X242806000Y-17939000D03*
X242806000Y-19529000D03*
D75*
X215005000Y-78998000D03*
D76*
X184986500Y-69898500D02*
X187375500Y-63135500D01*
X187375500Y-63135500D02*
X194363500Y-59864500D01*
X194363500Y-59864500D02*
X199866500Y-71703500D01*
X199866500Y-71703500D02*
X198534131Y-72318939D01*
X262036600Y-82410000D02*
X267055600Y-77281000D01*
X274768600Y-77280000D02*
X274766600Y-90336000D01*
X267055600Y-77281000D02*
X274768600Y-77280000D01*
X274766600Y-90336000D02*
X273292000Y-90333000D01*
M02*
