G04 #@! TF.GenerationSoftware,KiCad,Pcbnew,9.0.3*
G04 #@! TF.CreationDate,2026-04-28T20:03:09+01:00*
G04 #@! TF.ProjectId,Night light PCB,4e696768-7420-46c6-9967-687420504342,rev?*
G04 #@! TF.SameCoordinates,Original*
G04 #@! TF.FileFunction,Other,User*
%FSLAX46Y46*%
G04 Gerber Fmt 4.6, Leading zero omitted, Abs format (unit mm)*
G04 Created by KiCad (PCBNEW 9.0.3) date 2026-04-28 20:03:09*
%MOMM*%
%LPD*%
G01*
G04 APERTURE LIST*
%ADD10C,0.050000*%
%ADD11C,0.100000*%
G04 APERTURE END LIST*
D10*
X208726000Y-117820000D02*
X208726000Y-92220000D01*
X208726000Y-92220000D02*
X262706000Y-92220000D01*
X262706000Y-117820000D02*
X208726000Y-117820000D01*
X262706000Y-92220000D02*
X262706000Y-117820000D01*
D11*
X68080000Y-96155000D02*
X68080000Y-101945000D01*
X72880000Y-96155000D02*
X68080000Y-96155000D01*
X68080000Y-101945000D02*
X72880000Y-101945000D01*
X72880000Y-101945000D02*
X72880000Y-96155000D01*
X97804575Y-41840527D02*
X92790287Y-44735527D01*
X100204575Y-45997449D02*
X97804575Y-41840527D01*
X92790287Y-44735527D02*
X95190287Y-48892449D01*
X95190287Y-48892449D02*
X100204575Y-45997449D01*
X159704575Y-40425527D02*
X154690287Y-37530527D01*
X157304575Y-44582449D02*
X159704575Y-40425527D01*
X154690287Y-37530527D02*
X152290287Y-41687449D01*
X152290287Y-41687449D02*
X157304575Y-44582449D01*
X162155425Y-147639473D02*
X167169713Y-144744473D01*
X159755425Y-143482551D02*
X162155425Y-147639473D01*
X167169713Y-144744473D02*
X164769713Y-140587551D01*
X164769713Y-140587551D02*
X159755425Y-143482551D01*
X100255425Y-149054473D02*
X105269713Y-151949473D01*
X102655425Y-144897551D02*
X100255425Y-149054473D01*
X105269713Y-151949473D02*
X107669713Y-147792551D01*
X107669713Y-147792551D02*
X102655425Y-144897551D01*
X191880000Y-93325000D02*
X191880000Y-87535000D01*
X187080000Y-93325000D02*
X191880000Y-93325000D01*
X191880000Y-87535000D02*
X187080000Y-87535000D01*
X187080000Y-87535000D02*
X187080000Y-93325000D01*
D10*
X70080000Y-102570000D02*
X70080000Y-104430000D01*
X71020000Y-102570000D02*
X70080000Y-102570000D01*
X70080000Y-104430000D02*
X71020000Y-104430000D01*
X71020000Y-104430000D02*
X71020000Y-102570000D01*
X92953732Y-47007967D02*
X91342924Y-47937967D01*
X93423732Y-47822031D02*
X92953732Y-47007967D01*
X91342924Y-47937967D02*
X91812924Y-48752031D01*
X91812924Y-48752031D02*
X93423732Y-47822031D01*
X153098731Y-38877968D02*
X151487923Y-37947968D01*
X152628731Y-39692032D02*
X153098731Y-38877968D01*
X151487923Y-37947968D02*
X151017923Y-38762032D01*
X151017923Y-38762032D02*
X152628731Y-39692032D01*
X167146268Y-142642033D02*
X168757076Y-141712033D01*
X166676268Y-141827969D02*
X167146268Y-142642033D01*
X168757076Y-141712033D02*
X168287076Y-140897969D01*
X168287076Y-140897969D02*
X166676268Y-141827969D01*
X106926268Y-150547031D02*
X108537076Y-151477031D01*
X107396268Y-149732967D02*
X106926268Y-150547031D01*
X108537076Y-151477031D02*
X109007076Y-150662967D01*
X109007076Y-150662967D02*
X107396268Y-149732967D01*
X189945000Y-86440000D02*
X189945000Y-84580000D01*
X189005000Y-86440000D02*
X189945000Y-86440000D01*
X189945000Y-84580000D02*
X189005000Y-84580000D01*
X189005000Y-84580000D02*
X189005000Y-86440000D01*
M02*
