G04 #@! TF.GenerationSoftware,KiCad,Pcbnew,9.0.3*
G04 #@! TF.CreationDate,2026-04-28T20:03:06+01:00*
G04 #@! TF.ProjectId,Night light PCB,4e696768-7420-46c6-9967-687420504342,rev?*
G04 #@! TF.SameCoordinates,Original*
G04 #@! TF.FileFunction,Copper,L3,Inr*
G04 #@! TF.FilePolarity,Positive*
%FSLAX46Y46*%
G04 Gerber Fmt 4.6, Leading zero omitted, Abs format (unit mm)*
G04 Created by KiCad (PCBNEW 9.0.3) date 2026-04-28 20:03:06*
%MOMM*%
%LPD*%
G01*
G04 APERTURE LIST*
G04 Aperture macros list*
%AMRoundRect*
0 Rectangle with rounded corners*
0 $1 Rounding radius*
0 $2 $3 $4 $5 $6 $7 $8 $9 X,Y pos of 4 corners*
0 Add a 4 corners polygon primitive as box body*
4,1,4,$2,$3,$4,$5,$6,$7,$8,$9,$2,$3,0*
0 Add four circle primitives for the rounded corners*
1,1,$1+$1,$2,$3*
1,1,$1+$1,$4,$5*
1,1,$1+$1,$6,$7*
1,1,$1+$1,$8,$9*
0 Add four rect primitives between the rounded corners*
20,1,$1+$1,$2,$3,$4,$5,0*
20,1,$1+$1,$4,$5,$6,$7,0*
20,1,$1+$1,$6,$7,$8,$9,0*
20,1,$1+$1,$8,$9,$2,$3,0*%
%AMHorizOval*
0 Thick line with rounded ends*
0 $1 width*
0 $2 $3 position (X,Y) of the first rounded end (center of the circle)*
0 $4 $5 position (X,Y) of the second rounded end (center of the circle)*
0 Add line between two ends*
20,1,$1,$2,$3,$4,$5,0*
0 Add two circle primitives to create the rounded ends*
1,1,$1,$2,$3*
1,1,$1,$4,$5*%
G04 Aperture macros list end*
G04 #@! TA.AperFunction,ComponentPad*
%ADD10C,1.400000*%
G04 #@! TD*
G04 #@! TA.AperFunction,ComponentPad*
%ADD11C,2.000000*%
G04 #@! TD*
G04 #@! TA.AperFunction,ComponentPad*
%ADD12RoundRect,0.250000X0.949519X-0.144615X0.349519X0.894615X-0.949519X0.144615X-0.349519X-0.894615X0*%
G04 #@! TD*
G04 #@! TA.AperFunction,ComponentPad*
%ADD13HorizOval,1.700000X0.129904X0.075000X-0.129904X-0.075000X0*%
G04 #@! TD*
G04 #@! TA.AperFunction,ComponentPad*
%ADD14C,2.800000*%
G04 #@! TD*
G04 #@! TA.AperFunction,ComponentPad*
%ADD15RoundRect,0.250000X0.717571X-0.638430X0.780374X0.559926X-0.717571X0.638430X-0.780374X-0.559926X0*%
G04 #@! TD*
G04 #@! TA.AperFunction,ComponentPad*
%ADD16HorizOval,1.700000X-0.149794X0.007850X0.149794X-0.007850X0*%
G04 #@! TD*
G04 #@! TA.AperFunction,ComponentPad*
%ADD17C,1.600000*%
G04 #@! TD*
G04 #@! TA.AperFunction,ComponentPad*
%ADD18C,1.800000*%
G04 #@! TD*
G04 #@! TA.AperFunction,ComponentPad*
%ADD19C,1.192000*%
G04 #@! TD*
G04 #@! TA.AperFunction,ViaPad*
%ADD20C,0.600000*%
G04 #@! TD*
G04 APERTURE END LIST*
D10*
X70780415Y-123426325D03*
X76842593Y-119926325D03*
X80842593Y-126854528D03*
X74780415Y-130354528D03*
D11*
X90716062Y-130769778D03*
X97143938Y-138430222D03*
D12*
X91023527Y-57932532D03*
D13*
X89773527Y-55767468D03*
D14*
X86464247Y-150942681D03*
X94159000Y-144973000D03*
D15*
X65824868Y-108159968D03*
D16*
X71816645Y-108473984D03*
X61591579Y-74292000D03*
X79566911Y-75234047D03*
D17*
X144340000Y-39135000D03*
X141340000Y-39135000D03*
D18*
X84848986Y-135788825D03*
X88291013Y-142691176D03*
D19*
X112948000Y-40829000D03*
X112948000Y-37239000D03*
X109358000Y-37239000D03*
D20*
X252776000Y-87009000D03*
X255864000Y-91371000D03*
X258964000Y-87223000D03*
X182101000Y-84943000D03*
X182285000Y-83633000D03*
X187893000Y-77494000D03*
X187411000Y-80374000D03*
X156950000Y-48050000D03*
X88521137Y-45461161D03*
X86890903Y-62033799D03*
X119428000Y-35159000D03*
X136950000Y-159500000D03*
X172100000Y-44800000D03*
X122154000Y-26460000D03*
X89830000Y-40640000D03*
X186600000Y-114750000D03*
X121535000Y-36645000D03*
X78850000Y-100150000D03*
X90440084Y-40644892D03*
X78250000Y-93000000D03*
X180000000Y-125800000D03*
X162422000Y-41595000D03*
X165700000Y-59600000D03*
X153650000Y-154550000D03*
X161100000Y-33850000D03*
X180963000Y-79628000D03*
X90439844Y-39944890D03*
X84749615Y-45291000D03*
X123843000Y-26419000D03*
X180516000Y-72801000D03*
X88720000Y-44790000D03*
X81500000Y-55300000D03*
X77150000Y-55010000D03*
X183328000Y-73293000D03*
X125700000Y-150400000D03*
X184300000Y-104700000D03*
X89740000Y-39930000D03*
X87800000Y-48500000D03*
X86874000Y-61334000D03*
X174600000Y-75800000D03*
X125254000Y-26419000D03*
X181777000Y-71620000D03*
X153850000Y-26950000D03*
X157698000Y-48607000D03*
X132050000Y-38700000D03*
X150200000Y-40000000D03*
X71650000Y-103600000D03*
X133800000Y-41350000D03*
X89900000Y-41800000D03*
X92350000Y-48850000D03*
X150850000Y-38100000D03*
X126250000Y-31850000D03*
X174200000Y-74450000D03*
X180271000Y-80114000D03*
X90350000Y-46000000D03*
X168900000Y-141150000D03*
X155100000Y-34150000D03*
X168155000Y-46736000D03*
X174000000Y-73150000D03*
X189500000Y-84150000D03*
X89500000Y-47700000D03*
X109100000Y-151300000D03*
X157629000Y-47315000D03*
X143800000Y-35400000D03*
X179825000Y-74125000D03*
X153400000Y-46200000D03*
X258934600Y-83371000D03*
X257796600Y-83371000D03*
X252583600Y-85659000D03*
X247542600Y-80284000D03*
X255297083Y-81790699D03*
X258330600Y-80984000D03*
X257124600Y-81011000D03*
X238780000Y-103295000D03*
X249924600Y-86198000D03*
X260157600Y-83526000D03*
X259537600Y-81062000D03*
X249474600Y-85372000D03*
X214475000Y-110071000D03*
X252726600Y-77459000D03*
X248881600Y-88880000D03*
X214506000Y-112665000D03*
X236163000Y-73814000D03*
X237934000Y-95570000D03*
X213476000Y-111341000D03*
X236156000Y-74603000D03*
X214466000Y-111381000D03*
X254817600Y-80590000D03*
X233394600Y-93689000D03*
X248683000Y-91445000D03*
X159200000Y-35273000D03*
X160050000Y-39400000D03*
X127750000Y-26500000D03*
X129400000Y-26900000D03*
X176455000Y-79251000D03*
X160639913Y-47090087D03*
X178087000Y-80474000D03*
X163627000Y-47165000D03*
X179400000Y-80350000D03*
X165262000Y-47268000D03*
X176446000Y-80177000D03*
X161600000Y-47500000D03*
X177312000Y-80211000D03*
X162842000Y-47437000D03*
X160550000Y-48350000D03*
X175650000Y-78500000D03*
X152250000Y-46900000D03*
X150350000Y-44750000D03*
X164455059Y-36111513D03*
X166022002Y-36750000D03*
X244494091Y-85358899D03*
X241952000Y-85842000D03*
X169350000Y-49000000D03*
X151500000Y-49100000D03*
X241534000Y-87619000D03*
X243787600Y-86930000D03*
X241028000Y-93823000D03*
X237260000Y-92763000D03*
G04 #@! TA.AperFunction,Conductor*
G36*
X242457334Y-71040994D02*
G01*
X242494827Y-71065090D01*
X242495240Y-71064553D01*
X242501676Y-71069492D01*
X242501681Y-71069495D01*
X242501686Y-71069500D01*
X242615814Y-71135392D01*
X242743108Y-71169500D01*
X242743110Y-71169500D01*
X242874890Y-71169500D01*
X242874892Y-71169500D01*
X243002186Y-71135392D01*
X243116314Y-71069500D01*
X243116316Y-71069497D01*
X243116321Y-71069495D01*
X243122765Y-71064551D01*
X243124728Y-71067109D01*
X243172743Y-71040857D01*
X243242437Y-71045804D01*
X243255156Y-71051369D01*
X243425977Y-71137837D01*
X243653611Y-71211108D01*
X243889908Y-71247844D01*
X243889909Y-71247843D01*
X243889910Y-71247844D01*
X243890658Y-71247841D01*
X244008519Y-71247498D01*
X244008831Y-71247589D01*
X244008831Y-71247498D01*
X260593612Y-71240983D01*
X260660653Y-71260640D01*
X260706429Y-71313426D01*
X260717655Y-71365256D01*
X260692585Y-82695837D01*
X260672752Y-82762833D01*
X260619847Y-82808471D01*
X260550666Y-82818262D01*
X260521133Y-82810124D01*
X260391101Y-82756264D01*
X260391089Y-82756261D01*
X260236445Y-82725500D01*
X260236442Y-82725500D01*
X260078758Y-82725500D01*
X260078755Y-82725500D01*
X259924110Y-82756261D01*
X259924098Y-82756264D01*
X259778427Y-82816602D01*
X259778416Y-82816608D01*
X259703496Y-82866668D01*
X259636818Y-82887545D01*
X259569438Y-82869060D01*
X259546925Y-82851246D01*
X259444892Y-82749213D01*
X259444888Y-82749210D01*
X259313785Y-82661609D01*
X259313772Y-82661602D01*
X259168101Y-82601264D01*
X259168089Y-82601261D01*
X259013445Y-82570500D01*
X259013442Y-82570500D01*
X258855758Y-82570500D01*
X258855755Y-82570500D01*
X258701110Y-82601261D01*
X258701098Y-82601264D01*
X258555427Y-82661602D01*
X258555414Y-82661609D01*
X258434491Y-82742408D01*
X258367813Y-82763286D01*
X258300433Y-82744801D01*
X258296709Y-82742408D01*
X258175785Y-82661609D01*
X258175772Y-82661602D01*
X258030101Y-82601264D01*
X258030089Y-82601261D01*
X257875445Y-82570500D01*
X257875442Y-82570500D01*
X257717758Y-82570500D01*
X257717755Y-82570500D01*
X257563110Y-82601261D01*
X257563098Y-82601264D01*
X257417427Y-82661602D01*
X257417414Y-82661609D01*
X257286311Y-82749210D01*
X257286307Y-82749213D01*
X257174813Y-82860707D01*
X257174810Y-82860711D01*
X257087209Y-82991814D01*
X257087202Y-82991827D01*
X257026864Y-83137498D01*
X257026861Y-83137510D01*
X256996100Y-83292153D01*
X256996100Y-83449846D01*
X257026861Y-83604489D01*
X257026864Y-83604501D01*
X257087202Y-83750172D01*
X257087209Y-83750185D01*
X257174810Y-83881288D01*
X257174813Y-83881292D01*
X257286307Y-83992786D01*
X257286311Y-83992789D01*
X257417414Y-84080390D01*
X257417427Y-84080397D01*
X257563098Y-84140735D01*
X257563103Y-84140737D01*
X257717753Y-84171499D01*
X257717756Y-84171500D01*
X257717758Y-84171500D01*
X257875444Y-84171500D01*
X257875445Y-84171499D01*
X258030097Y-84140737D01*
X258175779Y-84080394D01*
X258296709Y-83999590D01*
X258363386Y-83978713D01*
X258430766Y-83997197D01*
X258434491Y-83999591D01*
X258555414Y-84080390D01*
X258555427Y-84080397D01*
X258701098Y-84140735D01*
X258701103Y-84140737D01*
X258855753Y-84171499D01*
X258855756Y-84171500D01*
X258855758Y-84171500D01*
X259013444Y-84171500D01*
X259013445Y-84171499D01*
X259168097Y-84140737D01*
X259313779Y-84080394D01*
X259388702Y-84030332D01*
X259455379Y-84009454D01*
X259522759Y-84027938D01*
X259545274Y-84045753D01*
X259647307Y-84147786D01*
X259647311Y-84147789D01*
X259778414Y-84235390D01*
X259778427Y-84235397D01*
X259924098Y-84295735D01*
X259924103Y-84295737D01*
X260078753Y-84326499D01*
X260078756Y-84326500D01*
X260078758Y-84326500D01*
X260236444Y-84326500D01*
X260236445Y-84326499D01*
X260391097Y-84295737D01*
X260517456Y-84243397D01*
X260586924Y-84235929D01*
X260649403Y-84267204D01*
X260685055Y-84327293D01*
X260688907Y-84358233D01*
X260609380Y-120300358D01*
X260589547Y-120367354D01*
X260536642Y-120412992D01*
X260485399Y-120424084D01*
X244081830Y-120426638D01*
X244081831Y-120426639D01*
X244073601Y-120426640D01*
X244073400Y-120426587D01*
X244008955Y-120426649D01*
X244007769Y-120426650D01*
X244007749Y-120426651D01*
X244007648Y-120426651D01*
X243934607Y-120426662D01*
X243933604Y-120426728D01*
X243887934Y-120426775D01*
X243651784Y-120464439D01*
X243424429Y-120538608D01*
X243211489Y-120647449D01*
X243161049Y-120684203D01*
X243095275Y-120707773D01*
X243027199Y-120692041D01*
X243026026Y-120691372D01*
X243002188Y-120677609D01*
X243002187Y-120677608D01*
X243002186Y-120677608D01*
X242874892Y-120643500D01*
X242743108Y-120643500D01*
X242615812Y-120677608D01*
X242501686Y-120743500D01*
X242501684Y-120743501D01*
X242491675Y-120753510D01*
X242430349Y-120786991D01*
X242360658Y-120782002D01*
X242323172Y-120757909D01*
X242322760Y-120758447D01*
X242316316Y-120753502D01*
X242316314Y-120753500D01*
X242237113Y-120707773D01*
X242202187Y-120687608D01*
X242138539Y-120670554D01*
X242074892Y-120653500D01*
X241943108Y-120653500D01*
X241815812Y-120687608D01*
X241701686Y-120753500D01*
X241701683Y-120753502D01*
X241701681Y-120753505D01*
X241701678Y-120753506D01*
X241695240Y-120758447D01*
X241694469Y-120757442D01*
X241640358Y-120786990D01*
X241570666Y-120782006D01*
X241533172Y-120757909D01*
X241532760Y-120758447D01*
X241526323Y-120753507D01*
X241526319Y-120753505D01*
X241526316Y-120753502D01*
X241526314Y-120753500D01*
X241447113Y-120707773D01*
X241412187Y-120687608D01*
X241348539Y-120670554D01*
X241284892Y-120653500D01*
X241153108Y-120653500D01*
X241025814Y-120687608D01*
X241025809Y-120687610D01*
X241001981Y-120701367D01*
X240934080Y-120717838D01*
X240868054Y-120694985D01*
X240866864Y-120694126D01*
X240808420Y-120651364D01*
X240595734Y-120542187D01*
X240532493Y-120521452D01*
X240368565Y-120467704D01*
X240132523Y-120429758D01*
X240086909Y-120429659D01*
X240086909Y-120429658D01*
X240078342Y-120429639D01*
X240077755Y-120429483D01*
X240013212Y-120429499D01*
X240012791Y-120429499D01*
X240012790Y-120429498D01*
X239940543Y-120429357D01*
X239938016Y-120429520D01*
X207693225Y-120438329D01*
X207626180Y-120418663D01*
X207580411Y-120365871D01*
X207569191Y-120314600D01*
X207549656Y-111270519D01*
X210806000Y-111270519D01*
X210806000Y-111469480D01*
X210844812Y-111664598D01*
X210844814Y-111664606D01*
X210920948Y-111848411D01*
X210920953Y-111848420D01*
X211031481Y-112013836D01*
X211031484Y-112013840D01*
X211172159Y-112154515D01*
X211172163Y-112154518D01*
X211337579Y-112265046D01*
X211337588Y-112265051D01*
X211521393Y-112341185D01*
X211521401Y-112341187D01*
X211716519Y-112379999D01*
X211716522Y-112380000D01*
X211915478Y-112380000D01*
X211915480Y-112379999D01*
X212110598Y-112341187D01*
X212110606Y-112341185D01*
X212294411Y-112265051D01*
X212294420Y-112265046D01*
X212459836Y-112154518D01*
X212459840Y-112154515D01*
X212600515Y-112013840D01*
X212600518Y-112013836D01*
X212711046Y-111848420D01*
X212711051Y-111848411D01*
X212787185Y-111664606D01*
X212787187Y-111664598D01*
X212825999Y-111469480D01*
X212826000Y-111469478D01*
X212826000Y-111270521D01*
X212825999Y-111270519D01*
X212787187Y-111075401D01*
X212787185Y-111075393D01*
X212711051Y-110891588D01*
X212711046Y-110891579D01*
X212600518Y-110726163D01*
X212600515Y-110726159D01*
X212459840Y-110585484D01*
X212459836Y-110585481D01*
X212294420Y-110474953D01*
X212294411Y-110474948D01*
X212110606Y-110398814D01*
X212110598Y-110398812D01*
X211915479Y-110360000D01*
X211716521Y-110360000D01*
X211521401Y-110398812D01*
X211521393Y-110398814D01*
X211337588Y-110474948D01*
X211337579Y-110474953D01*
X211172163Y-110585481D01*
X211172159Y-110585484D01*
X211031484Y-110726159D01*
X211031481Y-110726163D01*
X210920953Y-110891579D01*
X210920948Y-110891588D01*
X210844814Y-111075393D01*
X210844812Y-111075401D01*
X210806000Y-111270519D01*
X207549656Y-111270519D01*
X207540951Y-107240525D01*
X218480500Y-107240525D01*
X218480500Y-107499474D01*
X218480501Y-107499491D01*
X218514299Y-107756217D01*
X218514300Y-107756222D01*
X218514301Y-107756228D01*
X218514302Y-107756230D01*
X218581324Y-108006364D01*
X218680423Y-108245609D01*
X218680427Y-108245619D01*
X218809906Y-108469883D01*
X218967551Y-108675331D01*
X218967557Y-108675338D01*
X219150661Y-108858442D01*
X219150668Y-108858448D01*
X219356116Y-109016093D01*
X219580380Y-109145572D01*
X219580381Y-109145572D01*
X219580384Y-109145574D01*
X219819634Y-109244675D01*
X220069772Y-109311699D01*
X220326519Y-109345500D01*
X220326526Y-109345500D01*
X220585474Y-109345500D01*
X220585481Y-109345500D01*
X220842228Y-109311699D01*
X221092366Y-109244675D01*
X221331616Y-109145574D01*
X221555884Y-109016093D01*
X221761333Y-108858447D01*
X221944447Y-108675333D01*
X222102093Y-108469884D01*
X222231574Y-108245616D01*
X222330675Y-108006366D01*
X222397699Y-107756228D01*
X222431500Y-107499481D01*
X222431500Y-107240519D01*
X222397699Y-106983772D01*
X222330675Y-106733634D01*
X222231574Y-106494384D01*
X222102093Y-106270116D01*
X221944447Y-106064667D01*
X221944442Y-106064661D01*
X221761338Y-105881557D01*
X221761331Y-105881551D01*
X221555883Y-105723906D01*
X221331619Y-105594427D01*
X221331609Y-105594423D01*
X221092364Y-105495324D01*
X220967297Y-105461813D01*
X220842228Y-105428301D01*
X220842222Y-105428300D01*
X220842217Y-105428299D01*
X220585491Y-105394501D01*
X220585486Y-105394500D01*
X220585481Y-105394500D01*
X220326519Y-105394500D01*
X220326513Y-105394500D01*
X220326508Y-105394501D01*
X220069782Y-105428299D01*
X220069775Y-105428300D01*
X220069772Y-105428301D01*
X220016908Y-105442465D01*
X219819635Y-105495324D01*
X219580390Y-105594423D01*
X219580380Y-105594427D01*
X219356116Y-105723906D01*
X219150668Y-105881551D01*
X219150661Y-105881557D01*
X218967557Y-106064661D01*
X218967551Y-106064668D01*
X218809906Y-106270116D01*
X218680427Y-106494380D01*
X218680423Y-106494390D01*
X218581324Y-106733635D01*
X218514302Y-106983769D01*
X218514299Y-106983782D01*
X218480501Y-107240508D01*
X218480500Y-107240525D01*
X207540951Y-107240525D01*
X207529674Y-102019540D01*
X236976200Y-102019540D01*
X236976200Y-102166459D01*
X236999535Y-102283772D01*
X237004860Y-102310542D01*
X237015106Y-102335279D01*
X237061078Y-102446266D01*
X237061083Y-102446275D01*
X237142698Y-102568419D01*
X237142701Y-102568423D01*
X237246576Y-102672298D01*
X237246580Y-102672301D01*
X237368724Y-102753916D01*
X237368730Y-102753919D01*
X237368731Y-102753920D01*
X237504458Y-102810140D01*
X237648540Y-102838799D01*
X237648544Y-102838800D01*
X237648545Y-102838800D01*
X237795456Y-102838800D01*
X237795456Y-102838799D01*
X237902549Y-102817498D01*
X237972140Y-102823725D01*
X238027318Y-102866588D01*
X238050562Y-102932478D01*
X238041302Y-102986566D01*
X238010263Y-103061503D01*
X238010261Y-103061510D01*
X237979500Y-103216153D01*
X237979500Y-103373846D01*
X238010261Y-103528489D01*
X238010264Y-103528501D01*
X238070602Y-103674172D01*
X238070609Y-103674185D01*
X238158210Y-103805288D01*
X238158213Y-103805292D01*
X238269707Y-103916786D01*
X238269711Y-103916789D01*
X238400814Y-104004390D01*
X238400827Y-104004397D01*
X238546498Y-104064735D01*
X238546503Y-104064737D01*
X238701153Y-104095499D01*
X238701156Y-104095500D01*
X238701158Y-104095500D01*
X238858844Y-104095500D01*
X238858845Y-104095499D01*
X239013497Y-104064737D01*
X239159179Y-104004394D01*
X239290289Y-103916789D01*
X239401789Y-103805289D01*
X239489394Y-103674179D01*
X239549737Y-103528497D01*
X239580500Y-103373842D01*
X239580500Y-103216158D01*
X239580500Y-103216155D01*
X239580499Y-103216153D01*
X239549738Y-103061510D01*
X239549737Y-103061503D01*
X239547552Y-103056228D01*
X239526240Y-103004775D01*
X239518771Y-102935306D01*
X239550046Y-102872827D01*
X239610135Y-102837175D01*
X239664995Y-102835707D01*
X239680543Y-102838799D01*
X239680544Y-102838800D01*
X239680545Y-102838800D01*
X239827456Y-102838800D01*
X239827457Y-102838799D01*
X239971542Y-102810140D01*
X240107269Y-102753920D01*
X240229420Y-102672301D01*
X240333301Y-102568420D01*
X240351940Y-102540525D01*
X248450500Y-102540525D01*
X248450500Y-102799474D01*
X248450501Y-102799491D01*
X248484299Y-103056217D01*
X248484300Y-103056222D01*
X248484301Y-103056228D01*
X248517813Y-103181297D01*
X248551324Y-103306364D01*
X248650423Y-103545609D01*
X248650427Y-103545619D01*
X248779906Y-103769883D01*
X248937551Y-103975331D01*
X248937557Y-103975338D01*
X249120661Y-104158442D01*
X249120668Y-104158448D01*
X249326116Y-104316093D01*
X249550380Y-104445572D01*
X249550381Y-104445572D01*
X249550384Y-104445574D01*
X249789634Y-104544675D01*
X250039772Y-104611699D01*
X250296519Y-104645500D01*
X250296526Y-104645500D01*
X250555474Y-104645500D01*
X250555481Y-104645500D01*
X250812228Y-104611699D01*
X251062366Y-104544675D01*
X251301616Y-104445574D01*
X251525884Y-104316093D01*
X251731333Y-104158447D01*
X251914447Y-103975333D01*
X252072093Y-103769884D01*
X252201574Y-103545616D01*
X252300675Y-103306366D01*
X252367699Y-103056228D01*
X252401500Y-102799481D01*
X252401500Y-102540519D01*
X252367699Y-102283772D01*
X252300675Y-102033634D01*
X252201574Y-101794384D01*
X252170021Y-101739733D01*
X252072093Y-101570116D01*
X251914448Y-101364668D01*
X251914442Y-101364661D01*
X251731338Y-101181557D01*
X251731331Y-101181551D01*
X251525883Y-101023906D01*
X251301619Y-100894427D01*
X251301609Y-100894423D01*
X251062364Y-100795324D01*
X250937297Y-100761813D01*
X250812228Y-100728301D01*
X250812222Y-100728300D01*
X250812217Y-100728299D01*
X250555491Y-100694501D01*
X250555486Y-100694500D01*
X250555481Y-100694500D01*
X250296519Y-100694500D01*
X250296513Y-100694500D01*
X250296508Y-100694501D01*
X250039782Y-100728299D01*
X250039775Y-100728300D01*
X250039772Y-100728301D01*
X249986908Y-100742465D01*
X249789635Y-100795324D01*
X249550390Y-100894423D01*
X249550380Y-100894427D01*
X249326116Y-101023906D01*
X249120668Y-101181551D01*
X249120661Y-101181557D01*
X248937557Y-101364661D01*
X248937551Y-101364668D01*
X248779906Y-101570116D01*
X248650427Y-101794380D01*
X248650423Y-101794390D01*
X248551324Y-102033635D01*
X248484302Y-102283769D01*
X248484299Y-102283782D01*
X248450501Y-102540508D01*
X248450500Y-102540525D01*
X240351940Y-102540525D01*
X240414920Y-102446269D01*
X240471140Y-102310542D01*
X240499800Y-102166455D01*
X240499800Y-102019545D01*
X240471140Y-101875458D01*
X240414920Y-101739731D01*
X240414919Y-101739730D01*
X240414916Y-101739724D01*
X240333301Y-101617580D01*
X240333298Y-101617576D01*
X240229423Y-101513701D01*
X240229419Y-101513698D01*
X240107275Y-101432083D01*
X240107266Y-101432078D01*
X239971544Y-101375861D01*
X239971545Y-101375861D01*
X239971542Y-101375860D01*
X239971538Y-101375859D01*
X239971534Y-101375858D01*
X239827459Y-101347200D01*
X239827455Y-101347200D01*
X239680545Y-101347200D01*
X239680540Y-101347200D01*
X239536465Y-101375858D01*
X239536455Y-101375861D01*
X239400733Y-101432078D01*
X239400724Y-101432083D01*
X239278580Y-101513698D01*
X239278576Y-101513701D01*
X239174701Y-101617576D01*
X239174698Y-101617580D01*
X239093083Y-101739724D01*
X239093078Y-101739733D01*
X239036861Y-101875455D01*
X239036858Y-101875465D01*
X239008200Y-102019540D01*
X239008200Y-102166459D01*
X239036858Y-102310534D01*
X239036862Y-102310548D01*
X239047106Y-102335279D01*
X239054575Y-102404748D01*
X239023299Y-102467227D01*
X238963210Y-102502879D01*
X238908353Y-102504348D01*
X238858844Y-102494500D01*
X238858842Y-102494500D01*
X238701158Y-102494500D01*
X238701155Y-102494500D01*
X238560103Y-102522557D01*
X238490512Y-102516330D01*
X238435334Y-102473467D01*
X238412090Y-102407577D01*
X238421350Y-102353490D01*
X238439140Y-102310542D01*
X238467800Y-102166455D01*
X238467800Y-102019545D01*
X238439140Y-101875458D01*
X238382920Y-101739731D01*
X238382919Y-101739730D01*
X238382916Y-101739724D01*
X238301301Y-101617580D01*
X238301298Y-101617576D01*
X238197423Y-101513701D01*
X238197419Y-101513698D01*
X238075275Y-101432083D01*
X238075266Y-101432078D01*
X237939544Y-101375861D01*
X237939545Y-101375861D01*
X237939542Y-101375860D01*
X237939538Y-101375859D01*
X237939534Y-101375858D01*
X237795459Y-101347200D01*
X237795455Y-101347200D01*
X237648545Y-101347200D01*
X237648540Y-101347200D01*
X237504465Y-101375858D01*
X237504455Y-101375861D01*
X237368733Y-101432078D01*
X237368724Y-101432083D01*
X237246580Y-101513698D01*
X237246576Y-101513701D01*
X237142701Y-101617576D01*
X237142698Y-101617580D01*
X237061083Y-101739724D01*
X237061078Y-101739733D01*
X237004861Y-101875455D01*
X237004858Y-101875465D01*
X236976200Y-102019540D01*
X207529674Y-102019540D01*
X207525473Y-100074831D01*
X234760050Y-100074831D01*
X234760050Y-100301168D01*
X234795458Y-100524722D01*
X234795458Y-100524725D01*
X234865398Y-100739978D01*
X234865400Y-100739981D01*
X234968155Y-100941650D01*
X235101193Y-101124761D01*
X235261239Y-101284807D01*
X235444350Y-101417845D01*
X235646019Y-101520600D01*
X235646021Y-101520601D01*
X235798414Y-101570116D01*
X235861279Y-101590542D01*
X236084831Y-101625950D01*
X236084832Y-101625950D01*
X236311168Y-101625950D01*
X236311169Y-101625950D01*
X236534721Y-101590542D01*
X236534724Y-101590541D01*
X236534725Y-101590541D01*
X236749978Y-101520601D01*
X236749978Y-101520600D01*
X236749981Y-101520600D01*
X236951650Y-101417845D01*
X237134761Y-101284807D01*
X237294807Y-101124761D01*
X237427845Y-100941650D01*
X237530600Y-100739981D01*
X237600542Y-100524721D01*
X237635950Y-100301169D01*
X237635950Y-100074831D01*
X239840050Y-100074831D01*
X239840050Y-100301168D01*
X239875458Y-100524722D01*
X239875458Y-100524725D01*
X239945398Y-100739978D01*
X239945400Y-100739981D01*
X240048155Y-100941650D01*
X240181193Y-101124761D01*
X240341239Y-101284807D01*
X240524350Y-101417845D01*
X240726019Y-101520600D01*
X240726021Y-101520601D01*
X240878414Y-101570116D01*
X240941279Y-101590542D01*
X241164831Y-101625950D01*
X241164832Y-101625950D01*
X241391168Y-101625950D01*
X241391169Y-101625950D01*
X241614721Y-101590542D01*
X241614724Y-101590541D01*
X241614725Y-101590541D01*
X241829978Y-101520601D01*
X241829978Y-101520600D01*
X241829981Y-101520600D01*
X242031650Y-101417845D01*
X242214761Y-101284807D01*
X242374807Y-101124761D01*
X242507845Y-100941650D01*
X242610600Y-100739981D01*
X242680542Y-100524721D01*
X242715950Y-100301169D01*
X242715950Y-100074831D01*
X242680542Y-99851279D01*
X242680541Y-99851275D01*
X242680541Y-99851274D01*
X242610601Y-99636021D01*
X242610599Y-99636018D01*
X242574666Y-99565494D01*
X242507845Y-99434350D01*
X242374807Y-99251239D01*
X242214761Y-99091193D01*
X242031650Y-98958155D01*
X241829981Y-98855400D01*
X241829978Y-98855398D01*
X241614723Y-98785458D01*
X241465686Y-98761852D01*
X241391169Y-98750050D01*
X241164831Y-98750050D01*
X241090313Y-98761852D01*
X240941277Y-98785458D01*
X240941274Y-98785458D01*
X240726021Y-98855398D01*
X240726018Y-98855400D01*
X240524349Y-98958155D01*
X240419878Y-99034058D01*
X240341239Y-99091193D01*
X240341237Y-99091195D01*
X240341236Y-99091195D01*
X240181195Y-99251236D01*
X240181195Y-99251237D01*
X240181193Y-99251239D01*
X240135482Y-99314155D01*
X240048155Y-99434349D01*
X239945400Y-99636018D01*
X239945398Y-99636021D01*
X239875458Y-99851274D01*
X239875458Y-99851277D01*
X239840050Y-100074831D01*
X237635950Y-100074831D01*
X237600542Y-99851279D01*
X237600541Y-99851275D01*
X237600541Y-99851274D01*
X237530601Y-99636021D01*
X237530599Y-99636018D01*
X237494666Y-99565494D01*
X237427845Y-99434350D01*
X237294807Y-99251239D01*
X237134761Y-99091193D01*
X236951650Y-98958155D01*
X236749981Y-98855400D01*
X236749978Y-98855398D01*
X236534723Y-98785458D01*
X236385686Y-98761852D01*
X236311169Y-98750050D01*
X236084831Y-98750050D01*
X236010313Y-98761852D01*
X235861277Y-98785458D01*
X235861274Y-98785458D01*
X235646021Y-98855398D01*
X235646018Y-98855400D01*
X235444349Y-98958155D01*
X235339878Y-99034058D01*
X235261239Y-99091193D01*
X235261237Y-99091195D01*
X235261236Y-99091195D01*
X235101195Y-99251236D01*
X235101195Y-99251237D01*
X235101193Y-99251239D01*
X235055482Y-99314155D01*
X234968155Y-99434349D01*
X234865400Y-99636018D01*
X234865398Y-99636021D01*
X234795458Y-99851274D01*
X234795458Y-99851277D01*
X234760050Y-100074831D01*
X207525473Y-100074831D01*
X207522224Y-98570469D01*
X210805500Y-98570469D01*
X210805500Y-98769530D01*
X210844331Y-98964744D01*
X210844333Y-98964752D01*
X210920505Y-99148647D01*
X210920510Y-99148657D01*
X211031093Y-99314155D01*
X211031096Y-99314159D01*
X211171840Y-99454903D01*
X211171844Y-99454906D01*
X211337342Y-99565489D01*
X211337346Y-99565491D01*
X211337349Y-99565493D01*
X211521248Y-99641667D01*
X211716469Y-99680499D01*
X211716472Y-99680500D01*
X211716474Y-99680500D01*
X211915528Y-99680500D01*
X211915529Y-99680499D01*
X212110752Y-99641667D01*
X212294651Y-99565493D01*
X212460156Y-99454906D01*
X212600906Y-99314156D01*
X212711493Y-99148651D01*
X212787667Y-98964752D01*
X212826500Y-98769526D01*
X212826500Y-98570474D01*
X212826500Y-98570471D01*
X212826499Y-98570469D01*
X212795682Y-98415542D01*
X212787667Y-98375248D01*
X212711493Y-98191349D01*
X212711491Y-98191346D01*
X212711489Y-98191342D01*
X212600906Y-98025844D01*
X212600903Y-98025840D01*
X212460159Y-97885096D01*
X212460155Y-97885093D01*
X212294657Y-97774510D01*
X212294647Y-97774505D01*
X212110752Y-97698333D01*
X212110744Y-97698331D01*
X211915529Y-97659500D01*
X211915526Y-97659500D01*
X211716474Y-97659500D01*
X211716471Y-97659500D01*
X211521255Y-97698331D01*
X211521247Y-97698333D01*
X211337352Y-97774505D01*
X211337342Y-97774510D01*
X211171844Y-97885093D01*
X211171840Y-97885096D01*
X211031096Y-98025840D01*
X211031093Y-98025844D01*
X210920510Y-98191342D01*
X210920505Y-98191352D01*
X210844333Y-98375247D01*
X210844331Y-98375255D01*
X210805500Y-98570469D01*
X207522224Y-98570469D01*
X207518615Y-96899831D01*
X234760050Y-96899831D01*
X234760050Y-97126168D01*
X234795458Y-97349722D01*
X234795458Y-97349725D01*
X234865398Y-97564978D01*
X234865400Y-97564981D01*
X234968155Y-97766650D01*
X235101193Y-97949761D01*
X235261239Y-98109807D01*
X235444350Y-98242845D01*
X235646019Y-98345600D01*
X235646021Y-98345601D01*
X235846801Y-98410837D01*
X235861279Y-98415542D01*
X236084831Y-98450950D01*
X236084832Y-98450950D01*
X236311168Y-98450950D01*
X236311169Y-98450950D01*
X236534721Y-98415542D01*
X236534724Y-98415541D01*
X236534725Y-98415541D01*
X236749978Y-98345601D01*
X236749978Y-98345600D01*
X236749981Y-98345600D01*
X236951650Y-98242845D01*
X237134761Y-98109807D01*
X237294807Y-97949761D01*
X237427845Y-97766650D01*
X237530600Y-97564981D01*
X237555476Y-97488420D01*
X237600541Y-97349725D01*
X237600541Y-97349724D01*
X237600542Y-97349721D01*
X237635950Y-97126169D01*
X237635950Y-96939540D01*
X237992200Y-96939540D01*
X237992200Y-97086459D01*
X238020858Y-97230534D01*
X238020861Y-97230544D01*
X238077078Y-97366266D01*
X238077083Y-97366275D01*
X238158698Y-97488419D01*
X238158701Y-97488423D01*
X238262576Y-97592298D01*
X238262580Y-97592301D01*
X238384724Y-97673916D01*
X238384730Y-97673919D01*
X238384731Y-97673920D01*
X238520458Y-97730140D01*
X238664540Y-97758799D01*
X238664544Y-97758800D01*
X238664545Y-97758800D01*
X238811456Y-97758800D01*
X238811457Y-97758799D01*
X238955542Y-97730140D01*
X239091269Y-97673920D01*
X239213420Y-97592301D01*
X239317301Y-97488420D01*
X239398920Y-97366269D01*
X239455140Y-97230542D01*
X239483800Y-97086455D01*
X239483800Y-96939545D01*
X239479743Y-96919148D01*
X239479743Y-96919146D01*
X239475901Y-96899831D01*
X239840050Y-96899831D01*
X239840050Y-97126168D01*
X239875458Y-97349722D01*
X239875458Y-97349725D01*
X239945398Y-97564978D01*
X239945400Y-97564981D01*
X240048155Y-97766650D01*
X240181193Y-97949761D01*
X240341239Y-98109807D01*
X240524350Y-98242845D01*
X240726019Y-98345600D01*
X240726021Y-98345601D01*
X240926801Y-98410837D01*
X240941279Y-98415542D01*
X241164831Y-98450950D01*
X241164832Y-98450950D01*
X241391168Y-98450950D01*
X241391169Y-98450950D01*
X241614721Y-98415542D01*
X241614724Y-98415541D01*
X241614725Y-98415541D01*
X241829978Y-98345601D01*
X241829978Y-98345600D01*
X241829981Y-98345600D01*
X242031650Y-98242845D01*
X242214761Y-98109807D01*
X242374807Y-97949761D01*
X242507845Y-97766650D01*
X242610600Y-97564981D01*
X242635476Y-97488420D01*
X242680541Y-97349725D01*
X242680541Y-97349724D01*
X242680542Y-97349721D01*
X242715950Y-97126169D01*
X242715950Y-96899831D01*
X242680542Y-96676279D01*
X242680541Y-96676275D01*
X242680541Y-96676274D01*
X242610601Y-96461021D01*
X242610599Y-96461018D01*
X242596681Y-96433701D01*
X242507845Y-96259350D01*
X242374807Y-96076239D01*
X242214761Y-95916193D01*
X242031650Y-95783155D01*
X241829981Y-95680400D01*
X241829978Y-95680398D01*
X241614723Y-95610458D01*
X241465686Y-95586852D01*
X241391169Y-95575050D01*
X241164831Y-95575050D01*
X241090313Y-95586852D01*
X240941277Y-95610458D01*
X240941274Y-95610458D01*
X240726021Y-95680398D01*
X240726018Y-95680400D01*
X240524349Y-95783155D01*
X240444487Y-95841179D01*
X240341239Y-95916193D01*
X240341237Y-95916195D01*
X240341236Y-95916195D01*
X240181195Y-96076236D01*
X240181195Y-96076237D01*
X240181193Y-96076239D01*
X240138811Y-96134573D01*
X240048155Y-96259349D01*
X239945400Y-96461018D01*
X239945398Y-96461021D01*
X239875458Y-96676274D01*
X239875458Y-96676277D01*
X239840050Y-96899831D01*
X239475901Y-96899831D01*
X239455141Y-96795465D01*
X239455140Y-96795458D01*
X239398920Y-96659731D01*
X239398919Y-96659730D01*
X239398916Y-96659724D01*
X239317301Y-96537580D01*
X239317298Y-96537576D01*
X239213423Y-96433701D01*
X239213419Y-96433698D01*
X239091275Y-96352083D01*
X239091266Y-96352078D01*
X238955544Y-96295861D01*
X238955545Y-96295861D01*
X238955542Y-96295860D01*
X238955538Y-96295859D01*
X238955534Y-96295858D01*
X238811459Y-96267200D01*
X238811455Y-96267200D01*
X238664545Y-96267200D01*
X238664540Y-96267200D01*
X238520465Y-96295858D01*
X238520455Y-96295861D01*
X238384733Y-96352078D01*
X238384724Y-96352083D01*
X238262580Y-96433698D01*
X238262576Y-96433701D01*
X238158701Y-96537576D01*
X238158698Y-96537580D01*
X238077083Y-96659724D01*
X238077078Y-96659733D01*
X238020861Y-96795455D01*
X238020858Y-96795465D01*
X237992200Y-96939540D01*
X237635950Y-96939540D01*
X237635950Y-96899831D01*
X237600542Y-96676279D01*
X237600541Y-96676275D01*
X237600541Y-96676274D01*
X237530601Y-96461021D01*
X237530599Y-96461018D01*
X237516681Y-96433701D01*
X237427845Y-96259350D01*
X237294807Y-96076239D01*
X237134761Y-95916193D01*
X236951650Y-95783155D01*
X236749981Y-95680400D01*
X236749978Y-95680398D01*
X236534723Y-95610458D01*
X236385686Y-95586852D01*
X236311169Y-95575050D01*
X236084831Y-95575050D01*
X236010313Y-95586852D01*
X235861277Y-95610458D01*
X235861274Y-95610458D01*
X235646021Y-95680398D01*
X235646018Y-95680400D01*
X235444349Y-95783155D01*
X235364487Y-95841179D01*
X235261239Y-95916193D01*
X235261237Y-95916195D01*
X235261236Y-95916195D01*
X235101195Y-96076236D01*
X235101195Y-96076237D01*
X235101193Y-96076239D01*
X235058811Y-96134573D01*
X234968155Y-96259349D01*
X234865400Y-96461018D01*
X234865398Y-96461021D01*
X234795458Y-96676274D01*
X234795458Y-96676277D01*
X234760050Y-96899831D01*
X207518615Y-96899831D01*
X207516637Y-95984118D01*
X207517062Y-95982478D01*
X207516495Y-95918260D01*
X207516357Y-95854027D01*
X207516355Y-95854023D01*
X207516348Y-95850351D01*
X207515807Y-95842758D01*
X207515385Y-95796397D01*
X207475548Y-95559328D01*
X207398982Y-95331455D01*
X207287585Y-95118431D01*
X207241534Y-95056514D01*
X207217320Y-94990974D01*
X207232384Y-94922748D01*
X207233599Y-94920590D01*
X207240232Y-94909102D01*
X207274340Y-94781808D01*
X207274340Y-94650024D01*
X207240232Y-94522730D01*
X207174340Y-94408602D01*
X207157322Y-94391584D01*
X207123837Y-94330261D01*
X207128821Y-94260569D01*
X207146631Y-94228412D01*
X207150374Y-94223532D01*
X207150380Y-94223527D01*
X207216272Y-94109399D01*
X207250380Y-93982105D01*
X207250380Y-93850321D01*
X207221933Y-93744153D01*
X240227500Y-93744153D01*
X240227500Y-93901846D01*
X240258261Y-94056489D01*
X240258264Y-94056501D01*
X240318602Y-94202172D01*
X240318609Y-94202185D01*
X240406210Y-94333288D01*
X240406213Y-94333292D01*
X240517707Y-94444786D01*
X240517711Y-94444789D01*
X240648814Y-94532390D01*
X240648827Y-94532397D01*
X240794498Y-94592735D01*
X240794503Y-94592737D01*
X240949153Y-94623499D01*
X240949156Y-94623500D01*
X240949158Y-94623500D01*
X241106844Y-94623500D01*
X241106845Y-94623499D01*
X241261497Y-94592737D01*
X241407179Y-94532394D01*
X241538289Y-94444789D01*
X241649789Y-94333289D01*
X241737394Y-94202179D01*
X241797737Y-94056497D01*
X241828500Y-93901842D01*
X241828500Y-93744158D01*
X241828500Y-93744155D01*
X241828499Y-93744153D01*
X241824297Y-93723027D01*
X241797737Y-93589503D01*
X241777472Y-93540579D01*
X241737397Y-93443827D01*
X241737390Y-93443814D01*
X241649789Y-93312711D01*
X241649786Y-93312707D01*
X241538292Y-93201213D01*
X241538288Y-93201210D01*
X241407185Y-93113609D01*
X241407172Y-93113602D01*
X241261501Y-93053264D01*
X241261489Y-93053261D01*
X241106845Y-93022500D01*
X241106842Y-93022500D01*
X240949158Y-93022500D01*
X240949155Y-93022500D01*
X240794510Y-93053261D01*
X240794498Y-93053264D01*
X240648827Y-93113602D01*
X240648814Y-93113609D01*
X240517711Y-93201210D01*
X240517707Y-93201213D01*
X240406213Y-93312707D01*
X240406210Y-93312711D01*
X240318609Y-93443814D01*
X240318602Y-93443827D01*
X240258264Y-93589498D01*
X240258261Y-93589510D01*
X240227500Y-93744153D01*
X207221933Y-93744153D01*
X207216272Y-93723027D01*
X207150380Y-93608899D01*
X207143383Y-93601902D01*
X207109898Y-93540579D01*
X207114882Y-93470887D01*
X207132688Y-93438735D01*
X207136589Y-93433650D01*
X207136589Y-93433649D01*
X207136592Y-93433647D01*
X207202484Y-93319519D01*
X207236592Y-93192225D01*
X207236592Y-93060441D01*
X207202484Y-92933147D01*
X207165108Y-92868411D01*
X207161997Y-92855587D01*
X207154551Y-92844690D01*
X207153918Y-92822288D01*
X207148635Y-92800512D01*
X207152907Y-92786467D01*
X207152579Y-92774848D01*
X207166325Y-92742350D01*
X207201445Y-92684153D01*
X236459500Y-92684153D01*
X236459500Y-92841846D01*
X236490261Y-92996489D01*
X236490264Y-92996501D01*
X236550602Y-93142172D01*
X236550609Y-93142185D01*
X236638210Y-93273288D01*
X236638213Y-93273292D01*
X236749707Y-93384786D01*
X236749711Y-93384789D01*
X236880814Y-93472390D01*
X236880827Y-93472397D01*
X237026498Y-93532735D01*
X237026503Y-93532737D01*
X237181153Y-93563499D01*
X237181156Y-93563500D01*
X237181158Y-93563500D01*
X237338844Y-93563500D01*
X237338845Y-93563499D01*
X237493497Y-93532737D01*
X237639179Y-93472394D01*
X237770289Y-93384789D01*
X237881789Y-93273289D01*
X237969394Y-93142179D01*
X238029737Y-92996497D01*
X238060500Y-92841842D01*
X238060500Y-92684158D01*
X238060500Y-92684155D01*
X238060499Y-92684153D01*
X238046544Y-92613997D01*
X238029737Y-92529503D01*
X237971495Y-92388893D01*
X237969397Y-92383827D01*
X237969390Y-92383814D01*
X237881789Y-92252711D01*
X237881786Y-92252707D01*
X237770292Y-92141213D01*
X237770288Y-92141210D01*
X237639185Y-92053609D01*
X237639172Y-92053602D01*
X237493501Y-91993264D01*
X237493489Y-91993261D01*
X237338845Y-91962500D01*
X237338842Y-91962500D01*
X237181158Y-91962500D01*
X237181155Y-91962500D01*
X237026510Y-91993261D01*
X237026498Y-91993264D01*
X236880827Y-92053602D01*
X236880814Y-92053609D01*
X236749711Y-92141210D01*
X236749707Y-92141213D01*
X236638213Y-92252707D01*
X236638210Y-92252711D01*
X236550609Y-92383814D01*
X236550602Y-92383827D01*
X236490264Y-92529498D01*
X236490261Y-92529510D01*
X236459500Y-92684153D01*
X207201445Y-92684153D01*
X207253435Y-92598001D01*
X207339948Y-92387230D01*
X207393225Y-92165711D01*
X207398900Y-92097211D01*
X207404286Y-92077175D01*
X207404320Y-92031775D01*
X207408066Y-91986515D01*
X207406364Y-91977125D01*
X207404378Y-91954932D01*
X207404885Y-91292153D01*
X255063500Y-91292153D01*
X255063500Y-91449846D01*
X255094261Y-91604489D01*
X255094264Y-91604501D01*
X255154602Y-91750172D01*
X255154609Y-91750185D01*
X255242210Y-91881288D01*
X255242213Y-91881292D01*
X255353707Y-91992786D01*
X255353711Y-91992789D01*
X255484814Y-92080390D01*
X255484827Y-92080397D01*
X255630498Y-92140735D01*
X255630503Y-92140737D01*
X255756050Y-92165710D01*
X255785153Y-92171499D01*
X255785156Y-92171500D01*
X255785158Y-92171500D01*
X255942844Y-92171500D01*
X255942845Y-92171499D01*
X256097497Y-92140737D01*
X256243179Y-92080394D01*
X256374289Y-91992789D01*
X256485789Y-91881289D01*
X256573394Y-91750179D01*
X256633737Y-91604497D01*
X256664500Y-91449842D01*
X256664500Y-91292158D01*
X256664500Y-91292155D01*
X256664499Y-91292153D01*
X256633738Y-91137510D01*
X256633737Y-91137503D01*
X256633735Y-91137498D01*
X256573397Y-90991827D01*
X256573390Y-90991814D01*
X256485789Y-90860711D01*
X256485786Y-90860707D01*
X256374292Y-90749213D01*
X256374288Y-90749210D01*
X256243185Y-90661609D01*
X256243172Y-90661602D01*
X256097501Y-90601264D01*
X256097489Y-90601261D01*
X255942845Y-90570500D01*
X255942842Y-90570500D01*
X255785158Y-90570500D01*
X255785155Y-90570500D01*
X255630510Y-90601261D01*
X255630498Y-90601264D01*
X255484827Y-90661602D01*
X255484814Y-90661609D01*
X255353711Y-90749210D01*
X255353707Y-90749213D01*
X255242213Y-90860707D01*
X255242210Y-90860711D01*
X255154609Y-90991814D01*
X255154602Y-90991827D01*
X255094264Y-91137498D01*
X255094261Y-91137510D01*
X255063500Y-91292153D01*
X207404885Y-91292153D01*
X207407752Y-87540153D01*
X240733500Y-87540153D01*
X240733500Y-87697846D01*
X240764261Y-87852489D01*
X240764264Y-87852501D01*
X240824602Y-87998172D01*
X240824609Y-87998185D01*
X240912210Y-88129288D01*
X240912213Y-88129292D01*
X241023707Y-88240786D01*
X241023711Y-88240789D01*
X241154814Y-88328390D01*
X241154827Y-88328397D01*
X241300498Y-88388735D01*
X241300503Y-88388737D01*
X241455153Y-88419499D01*
X241455156Y-88419500D01*
X241455158Y-88419500D01*
X241612844Y-88419500D01*
X241612845Y-88419499D01*
X241767497Y-88388737D01*
X241913179Y-88328394D01*
X242044289Y-88240789D01*
X242155789Y-88129289D01*
X242243394Y-87998179D01*
X242303737Y-87852497D01*
X242334500Y-87697842D01*
X242334500Y-87540158D01*
X242334500Y-87540155D01*
X242334499Y-87540153D01*
X242317859Y-87456501D01*
X242303737Y-87385503D01*
X242303735Y-87385498D01*
X242243397Y-87239827D01*
X242243390Y-87239814D01*
X242155789Y-87108711D01*
X242155786Y-87108707D01*
X242044292Y-86997213D01*
X242044288Y-86997210D01*
X241976113Y-86951656D01*
X241976104Y-86951651D01*
X241913179Y-86909606D01*
X241838814Y-86878803D01*
X241833597Y-86876035D01*
X241812651Y-86855584D01*
X241807152Y-86851153D01*
X242987100Y-86851153D01*
X242987100Y-87008846D01*
X243017861Y-87163489D01*
X243017864Y-87163501D01*
X243078202Y-87309172D01*
X243078209Y-87309185D01*
X243165810Y-87440288D01*
X243165813Y-87440292D01*
X243277307Y-87551786D01*
X243277311Y-87551789D01*
X243408414Y-87639390D01*
X243408427Y-87639397D01*
X243554098Y-87699735D01*
X243554103Y-87699737D01*
X243647913Y-87718397D01*
X243708753Y-87730499D01*
X243708756Y-87730500D01*
X243708758Y-87730500D01*
X243866444Y-87730500D01*
X243866445Y-87730499D01*
X244021097Y-87699737D01*
X244166779Y-87639394D01*
X244297889Y-87551789D01*
X244409389Y-87440289D01*
X244496994Y-87309179D01*
X244557337Y-87163497D01*
X244588100Y-87008842D01*
X244588100Y-86851158D01*
X244588100Y-86851155D01*
X244588099Y-86851153D01*
X244578995Y-86805384D01*
X244557337Y-86696503D01*
X244538425Y-86650845D01*
X244496997Y-86550827D01*
X244496990Y-86550814D01*
X244409389Y-86419711D01*
X244409386Y-86419707D01*
X244360759Y-86371080D01*
X244327274Y-86309757D01*
X244332258Y-86240065D01*
X244374130Y-86184132D01*
X244439594Y-86159715D01*
X244448440Y-86159399D01*
X244572935Y-86159399D01*
X244572936Y-86159398D01*
X244727588Y-86128636D01*
X244750482Y-86119153D01*
X249124100Y-86119153D01*
X249124100Y-86276846D01*
X249154861Y-86431489D01*
X249154864Y-86431501D01*
X249215202Y-86577172D01*
X249215209Y-86577185D01*
X249302810Y-86708288D01*
X249302813Y-86708292D01*
X249414307Y-86819786D01*
X249414311Y-86819789D01*
X249545414Y-86907390D01*
X249545427Y-86907397D01*
X249691098Y-86967735D01*
X249691103Y-86967737D01*
X249800563Y-86989510D01*
X249845753Y-86998499D01*
X249845756Y-86998500D01*
X249845758Y-86998500D01*
X250003444Y-86998500D01*
X250003445Y-86998499D01*
X250158097Y-86967737D01*
X250270766Y-86921067D01*
X250303772Y-86907397D01*
X250303772Y-86907396D01*
X250303779Y-86907394D01*
X250434889Y-86819789D01*
X250546389Y-86708289D01*
X250633994Y-86577179D01*
X250694337Y-86431497D01*
X250725100Y-86276842D01*
X250725100Y-86119158D01*
X250725100Y-86119155D01*
X250725099Y-86119153D01*
X250714981Y-86068289D01*
X250694337Y-85964503D01*
X250664513Y-85892501D01*
X250633997Y-85818827D01*
X250633990Y-85818814D01*
X250546389Y-85687711D01*
X250546386Y-85687707D01*
X250438832Y-85580153D01*
X251783100Y-85580153D01*
X251783100Y-85737846D01*
X251813861Y-85892489D01*
X251813864Y-85892501D01*
X251874202Y-86038172D01*
X251874209Y-86038185D01*
X251961810Y-86169288D01*
X251961813Y-86169292D01*
X252073308Y-86280787D01*
X252073311Y-86280789D01*
X252127309Y-86316869D01*
X252172113Y-86370480D01*
X252180821Y-86439805D01*
X252156774Y-86493097D01*
X252157595Y-86493646D01*
X252154306Y-86498567D01*
X252154282Y-86498622D01*
X252154218Y-86498699D01*
X252066609Y-86629814D01*
X252066602Y-86629827D01*
X252006264Y-86775498D01*
X252006261Y-86775510D01*
X251975500Y-86930153D01*
X251975500Y-87087846D01*
X252006261Y-87242489D01*
X252006264Y-87242501D01*
X252066602Y-87388172D01*
X252066609Y-87388185D01*
X252154210Y-87519288D01*
X252154213Y-87519292D01*
X252265707Y-87630786D01*
X252265711Y-87630789D01*
X252396814Y-87718390D01*
X252396827Y-87718397D01*
X252542498Y-87778735D01*
X252542503Y-87778737D01*
X252697153Y-87809499D01*
X252697156Y-87809500D01*
X252697158Y-87809500D01*
X252854844Y-87809500D01*
X252854845Y-87809499D01*
X253009497Y-87778737D01*
X253155179Y-87718394D01*
X253286289Y-87630789D01*
X253397789Y-87519289D01*
X253485394Y-87388179D01*
X253486503Y-87385503D01*
X253518114Y-87309185D01*
X253545737Y-87242497D01*
X253565299Y-87144153D01*
X258163500Y-87144153D01*
X258163500Y-87301846D01*
X258194261Y-87456489D01*
X258194264Y-87456501D01*
X258254602Y-87602172D01*
X258254609Y-87602185D01*
X258342210Y-87733288D01*
X258342213Y-87733292D01*
X258453707Y-87844786D01*
X258453711Y-87844789D01*
X258584814Y-87932390D01*
X258584827Y-87932397D01*
X258730498Y-87992735D01*
X258730503Y-87992737D01*
X258885153Y-88023499D01*
X258885156Y-88023500D01*
X258885158Y-88023500D01*
X259042844Y-88023500D01*
X259042845Y-88023499D01*
X259197497Y-87992737D01*
X259343179Y-87932394D01*
X259474289Y-87844789D01*
X259585789Y-87733289D01*
X259673394Y-87602179D01*
X259733737Y-87456497D01*
X259764500Y-87301842D01*
X259764500Y-87144158D01*
X259764500Y-87144155D01*
X259764499Y-87144153D01*
X259753298Y-87087842D01*
X259733737Y-86989503D01*
X259724721Y-86967737D01*
X259673397Y-86843827D01*
X259673390Y-86843814D01*
X259585789Y-86712711D01*
X259585786Y-86712707D01*
X259474292Y-86601213D01*
X259474288Y-86601210D01*
X259343185Y-86513609D01*
X259343172Y-86513602D01*
X259197501Y-86453264D01*
X259197489Y-86453261D01*
X259042845Y-86422500D01*
X259042842Y-86422500D01*
X258885158Y-86422500D01*
X258885155Y-86422500D01*
X258730510Y-86453261D01*
X258730498Y-86453264D01*
X258584827Y-86513602D01*
X258584814Y-86513609D01*
X258453711Y-86601210D01*
X258453707Y-86601213D01*
X258342213Y-86712707D01*
X258342210Y-86712711D01*
X258254609Y-86843814D01*
X258254602Y-86843827D01*
X258194264Y-86989498D01*
X258194261Y-86989510D01*
X258163500Y-87144153D01*
X253565299Y-87144153D01*
X253576500Y-87087842D01*
X253576500Y-86930158D01*
X253576500Y-86930155D01*
X253576499Y-86930153D01*
X253545737Y-86775503D01*
X253519728Y-86712711D01*
X253485397Y-86629827D01*
X253485390Y-86629814D01*
X253397789Y-86498711D01*
X253397786Y-86498707D01*
X253286292Y-86387213D01*
X253232289Y-86351129D01*
X253187485Y-86297516D01*
X253178778Y-86228191D01*
X253202831Y-86174906D01*
X253202005Y-86174354D01*
X253205323Y-86169388D01*
X253205343Y-86169344D01*
X253205381Y-86169296D01*
X253205389Y-86169289D01*
X253292994Y-86038179D01*
X253353337Y-85892497D01*
X253384100Y-85737842D01*
X253384100Y-85580158D01*
X253384100Y-85580155D01*
X253384099Y-85580153D01*
X253383315Y-85576210D01*
X253353337Y-85425503D01*
X253341738Y-85397500D01*
X253292997Y-85279827D01*
X253292990Y-85279814D01*
X253205389Y-85148711D01*
X253205386Y-85148707D01*
X253093892Y-85037213D01*
X253093888Y-85037210D01*
X252962785Y-84949609D01*
X252962772Y-84949602D01*
X252817101Y-84889264D01*
X252817089Y-84889261D01*
X252662445Y-84858500D01*
X252662442Y-84858500D01*
X252504758Y-84858500D01*
X252504755Y-84858500D01*
X252350110Y-84889261D01*
X252350098Y-84889264D01*
X252204427Y-84949602D01*
X252204414Y-84949609D01*
X252073311Y-85037210D01*
X252073307Y-85037213D01*
X251961813Y-85148707D01*
X251961810Y-85148711D01*
X251874209Y-85279814D01*
X251874202Y-85279827D01*
X251813864Y-85425498D01*
X251813861Y-85425510D01*
X251783100Y-85580153D01*
X250438832Y-85580153D01*
X250434892Y-85576213D01*
X250434888Y-85576210D01*
X250303785Y-85488609D01*
X250303772Y-85488602D01*
X250158101Y-85428264D01*
X250158089Y-85428261D01*
X250003445Y-85397500D01*
X250003442Y-85397500D01*
X249845758Y-85397500D01*
X249845755Y-85397500D01*
X249691110Y-85428261D01*
X249691098Y-85428264D01*
X249545427Y-85488602D01*
X249545414Y-85488609D01*
X249414311Y-85576210D01*
X249414307Y-85576213D01*
X249302813Y-85687707D01*
X249302810Y-85687711D01*
X249215209Y-85818814D01*
X249215202Y-85818827D01*
X249154864Y-85964498D01*
X249154861Y-85964510D01*
X249124100Y-86119153D01*
X244750482Y-86119153D01*
X244873270Y-86068293D01*
X244873276Y-86068289D01*
X244960566Y-86009964D01*
X244976665Y-85999206D01*
X245004380Y-85980688D01*
X245115880Y-85869188D01*
X245203485Y-85738078D01*
X245263828Y-85592396D01*
X245294591Y-85437741D01*
X245294591Y-85280057D01*
X245294591Y-85280054D01*
X245294590Y-85280052D01*
X245282687Y-85220211D01*
X245263828Y-85125402D01*
X245241818Y-85072264D01*
X245203488Y-84979726D01*
X245203481Y-84979713D01*
X245115880Y-84848610D01*
X245115877Y-84848606D01*
X245004383Y-84737112D01*
X245004379Y-84737109D01*
X244873276Y-84649508D01*
X244873263Y-84649501D01*
X244727592Y-84589163D01*
X244727580Y-84589160D01*
X244572936Y-84558399D01*
X244572933Y-84558399D01*
X244415249Y-84558399D01*
X244415246Y-84558399D01*
X244260601Y-84589160D01*
X244260589Y-84589163D01*
X244114918Y-84649501D01*
X244114905Y-84649508D01*
X243983802Y-84737109D01*
X243983798Y-84737112D01*
X243872304Y-84848606D01*
X243872301Y-84848610D01*
X243784700Y-84979713D01*
X243784693Y-84979726D01*
X243724355Y-85125397D01*
X243724352Y-85125409D01*
X243693591Y-85280052D01*
X243693591Y-85437745D01*
X243724352Y-85592388D01*
X243724355Y-85592400D01*
X243784693Y-85738071D01*
X243784700Y-85738084D01*
X243872301Y-85869187D01*
X243872304Y-85869191D01*
X243920932Y-85917819D01*
X243954417Y-85979142D01*
X243949433Y-86048834D01*
X243907561Y-86104767D01*
X243842097Y-86129184D01*
X243833251Y-86129500D01*
X243708755Y-86129500D01*
X243554110Y-86160261D01*
X243554098Y-86160264D01*
X243408427Y-86220602D01*
X243408414Y-86220609D01*
X243277311Y-86308210D01*
X243277307Y-86308213D01*
X243165813Y-86419707D01*
X243165810Y-86419711D01*
X243078209Y-86550814D01*
X243078202Y-86550827D01*
X243017864Y-86696498D01*
X243017861Y-86696510D01*
X242987100Y-86851153D01*
X241807152Y-86851153D01*
X241789862Y-86837220D01*
X241787945Y-86831463D01*
X241783604Y-86827224D01*
X241777040Y-86798696D01*
X241767797Y-86770926D01*
X241769297Y-86765046D01*
X241767937Y-86759134D01*
X241777837Y-86731587D01*
X241785076Y-86703227D01*
X241789516Y-86699092D01*
X241791569Y-86693382D01*
X241814789Y-86675562D01*
X241836213Y-86655616D01*
X241842813Y-86654056D01*
X241846998Y-86650845D01*
X241861548Y-86649629D01*
X241891718Y-86642500D01*
X242030844Y-86642500D01*
X242030845Y-86642499D01*
X242185497Y-86611737D01*
X242331179Y-86551394D01*
X242462289Y-86463789D01*
X242573789Y-86352289D01*
X242661394Y-86221179D01*
X242721737Y-86075497D01*
X242752500Y-85920842D01*
X242752500Y-85763158D01*
X242752500Y-85763155D01*
X242752499Y-85763153D01*
X242747464Y-85737842D01*
X242721737Y-85608503D01*
X242672076Y-85488609D01*
X242661397Y-85462827D01*
X242661390Y-85462814D01*
X242573789Y-85331711D01*
X242573786Y-85331707D01*
X242462292Y-85220213D01*
X242462288Y-85220210D01*
X242331185Y-85132609D01*
X242331172Y-85132602D01*
X242185501Y-85072264D01*
X242185489Y-85072261D01*
X242030845Y-85041500D01*
X242030842Y-85041500D01*
X241873158Y-85041500D01*
X241873155Y-85041500D01*
X241718510Y-85072261D01*
X241718498Y-85072264D01*
X241572827Y-85132602D01*
X241572814Y-85132609D01*
X241441711Y-85220210D01*
X241441707Y-85220213D01*
X241330213Y-85331707D01*
X241330210Y-85331711D01*
X241242609Y-85462814D01*
X241242602Y-85462827D01*
X241182264Y-85608498D01*
X241182261Y-85608510D01*
X241151500Y-85763153D01*
X241151500Y-85920846D01*
X241182261Y-86075489D01*
X241182264Y-86075501D01*
X241242602Y-86221172D01*
X241242609Y-86221185D01*
X241330210Y-86352288D01*
X241330213Y-86352292D01*
X241441707Y-86463786D01*
X241441711Y-86463789D01*
X241572814Y-86551390D01*
X241572827Y-86551397D01*
X241641734Y-86579939D01*
X241696138Y-86623780D01*
X241718203Y-86690074D01*
X241700924Y-86757773D01*
X241649787Y-86805384D01*
X241594282Y-86818500D01*
X241455155Y-86818500D01*
X241300510Y-86849261D01*
X241300498Y-86849264D01*
X241154827Y-86909602D01*
X241154814Y-86909609D01*
X241023711Y-86997210D01*
X241023707Y-86997213D01*
X240912213Y-87108707D01*
X240912210Y-87108711D01*
X240824609Y-87239814D01*
X240824602Y-87239827D01*
X240764264Y-87385498D01*
X240764261Y-87385510D01*
X240733500Y-87540153D01*
X207407752Y-87540153D01*
X207412206Y-81711852D01*
X254496583Y-81711852D01*
X254496583Y-81869545D01*
X254527344Y-82024188D01*
X254527347Y-82024200D01*
X254587685Y-82169871D01*
X254587692Y-82169884D01*
X254675293Y-82300987D01*
X254675296Y-82300991D01*
X254786790Y-82412485D01*
X254786794Y-82412488D01*
X254917897Y-82500089D01*
X254917910Y-82500096D01*
X255063581Y-82560434D01*
X255063586Y-82560436D01*
X255218236Y-82591198D01*
X255218239Y-82591199D01*
X255218241Y-82591199D01*
X255375927Y-82591199D01*
X255375928Y-82591198D01*
X255530580Y-82560436D01*
X255676262Y-82500093D01*
X255807372Y-82412488D01*
X255918872Y-82300988D01*
X256006477Y-82169878D01*
X256066820Y-82024196D01*
X256097583Y-81869541D01*
X256097583Y-81711857D01*
X256097583Y-81711854D01*
X256097582Y-81711852D01*
X256081855Y-81632789D01*
X256066820Y-81557202D01*
X256051946Y-81521292D01*
X256006480Y-81411526D01*
X256006473Y-81411513D01*
X255918872Y-81280410D01*
X255918869Y-81280406D01*
X255807375Y-81168912D01*
X255807371Y-81168909D01*
X255676268Y-81081308D01*
X255676255Y-81081301D01*
X255578057Y-81040627D01*
X255530584Y-81020963D01*
X255530572Y-81020960D01*
X255375928Y-80990199D01*
X255375925Y-80990199D01*
X255218241Y-80990199D01*
X255218238Y-80990199D01*
X255063593Y-81020960D01*
X255063581Y-81020963D01*
X254917910Y-81081301D01*
X254917897Y-81081308D01*
X254786794Y-81168909D01*
X254786790Y-81168912D01*
X254675296Y-81280406D01*
X254675293Y-81280410D01*
X254587692Y-81411513D01*
X254587685Y-81411526D01*
X254527347Y-81557197D01*
X254527344Y-81557209D01*
X254496583Y-81711852D01*
X207412206Y-81711852D01*
X207414373Y-78876711D01*
X213154500Y-78876711D01*
X213154500Y-79119288D01*
X213186161Y-79359785D01*
X213248947Y-79594104D01*
X213277158Y-79662210D01*
X213341776Y-79818212D01*
X213463064Y-80028289D01*
X213463066Y-80028292D01*
X213463067Y-80028293D01*
X213610733Y-80220736D01*
X213610739Y-80220743D01*
X213782256Y-80392260D01*
X213782263Y-80392266D01*
X213844749Y-80440213D01*
X213974711Y-80539936D01*
X214184788Y-80661224D01*
X214408900Y-80754054D01*
X214643211Y-80816838D01*
X214823586Y-80840584D01*
X214883711Y-80848500D01*
X214883712Y-80848500D01*
X215126289Y-80848500D01*
X215174388Y-80842167D01*
X215366789Y-80816838D01*
X215601100Y-80754054D01*
X215825212Y-80661224D01*
X216035289Y-80539936D01*
X216227738Y-80392265D01*
X216399265Y-80220738D01*
X216411224Y-80205153D01*
X246742100Y-80205153D01*
X246742100Y-80362846D01*
X246772861Y-80517489D01*
X246772864Y-80517501D01*
X246833202Y-80663172D01*
X246833209Y-80663185D01*
X246920810Y-80794288D01*
X246920813Y-80794292D01*
X247032307Y-80905786D01*
X247032311Y-80905789D01*
X247163414Y-80993390D01*
X247163427Y-80993397D01*
X247277452Y-81040627D01*
X247309103Y-81053737D01*
X247447676Y-81081301D01*
X247463753Y-81084499D01*
X247463756Y-81084500D01*
X247463758Y-81084500D01*
X247621444Y-81084500D01*
X247621445Y-81084499D01*
X247776097Y-81053737D01*
X247921779Y-80993394D01*
X248013433Y-80932153D01*
X256324100Y-80932153D01*
X256324100Y-81089846D01*
X256354861Y-81244489D01*
X256354864Y-81244501D01*
X256415202Y-81390172D01*
X256415209Y-81390185D01*
X256502810Y-81521288D01*
X256502813Y-81521292D01*
X256614307Y-81632786D01*
X256614311Y-81632789D01*
X256745414Y-81720390D01*
X256745427Y-81720397D01*
X256868554Y-81771397D01*
X256891103Y-81780737D01*
X257045753Y-81811499D01*
X257045756Y-81811500D01*
X257045758Y-81811500D01*
X257203444Y-81811500D01*
X257203445Y-81811499D01*
X257358097Y-81780737D01*
X257503779Y-81720394D01*
X257634889Y-81632789D01*
X257653826Y-81613851D01*
X257715146Y-81580365D01*
X257784838Y-81585346D01*
X257815035Y-81602720D01*
X257815246Y-81602405D01*
X257819949Y-81605548D01*
X257820174Y-81605677D01*
X257820310Y-81605788D01*
X257951414Y-81693390D01*
X257951427Y-81693397D01*
X258097098Y-81753735D01*
X258097103Y-81753737D01*
X258251753Y-81784499D01*
X258251756Y-81784500D01*
X258251758Y-81784500D01*
X258409444Y-81784500D01*
X258409445Y-81784499D01*
X258564097Y-81753737D01*
X258709779Y-81693394D01*
X258821271Y-81618896D01*
X258887946Y-81598020D01*
X258955326Y-81616504D01*
X258977842Y-81634320D01*
X259027307Y-81683786D01*
X259027311Y-81683789D01*
X259158414Y-81771390D01*
X259158427Y-81771397D01*
X259255246Y-81811500D01*
X259304103Y-81831737D01*
X259458753Y-81862499D01*
X259458756Y-81862500D01*
X259458758Y-81862500D01*
X259616444Y-81862500D01*
X259616445Y-81862499D01*
X259771097Y-81831737D01*
X259885138Y-81784500D01*
X259916772Y-81771397D01*
X259916772Y-81771396D01*
X259916779Y-81771394D01*
X260047889Y-81683789D01*
X260159389Y-81572289D01*
X260246994Y-81441179D01*
X260307337Y-81295497D01*
X260338100Y-81140842D01*
X260338100Y-80983158D01*
X260338100Y-80983155D01*
X260338099Y-80983153D01*
X260322710Y-80905789D01*
X260307337Y-80828503D01*
X260302505Y-80816838D01*
X260246997Y-80682827D01*
X260246990Y-80682814D01*
X260159389Y-80551711D01*
X260159386Y-80551707D01*
X260047892Y-80440213D01*
X260047888Y-80440210D01*
X259916785Y-80352609D01*
X259916772Y-80352602D01*
X259771101Y-80292264D01*
X259771089Y-80292261D01*
X259616445Y-80261500D01*
X259616442Y-80261500D01*
X259458758Y-80261500D01*
X259458755Y-80261500D01*
X259304110Y-80292261D01*
X259304098Y-80292264D01*
X259158427Y-80352602D01*
X259158416Y-80352608D01*
X259046929Y-80427101D01*
X258980251Y-80447978D01*
X258912871Y-80429493D01*
X258890358Y-80411679D01*
X258840892Y-80362213D01*
X258840888Y-80362210D01*
X258709785Y-80274609D01*
X258709772Y-80274602D01*
X258564101Y-80214264D01*
X258564089Y-80214261D01*
X258409445Y-80183500D01*
X258409442Y-80183500D01*
X258251758Y-80183500D01*
X258251755Y-80183500D01*
X258097110Y-80214261D01*
X258097098Y-80214264D01*
X257951427Y-80274602D01*
X257951414Y-80274609D01*
X257820311Y-80362210D01*
X257820307Y-80362213D01*
X257801371Y-80381150D01*
X257740048Y-80414635D01*
X257670356Y-80409651D01*
X257640164Y-80392279D01*
X257639954Y-80392595D01*
X257635254Y-80389454D01*
X257635027Y-80389324D01*
X257634888Y-80389210D01*
X257503785Y-80301609D01*
X257503772Y-80301602D01*
X257358101Y-80241264D01*
X257358089Y-80241261D01*
X257203445Y-80210500D01*
X257203442Y-80210500D01*
X257045758Y-80210500D01*
X257045755Y-80210500D01*
X256891110Y-80241261D01*
X256891098Y-80241264D01*
X256745427Y-80301602D01*
X256745414Y-80301609D01*
X256614311Y-80389210D01*
X256614307Y-80389213D01*
X256502813Y-80500707D01*
X256502810Y-80500711D01*
X256415209Y-80631814D01*
X256415202Y-80631827D01*
X256354864Y-80777498D01*
X256354861Y-80777510D01*
X256324100Y-80932153D01*
X248013433Y-80932153D01*
X248052889Y-80905789D01*
X248164389Y-80794289D01*
X248251994Y-80663179D01*
X248312337Y-80517497D01*
X248343100Y-80362842D01*
X248343100Y-80205158D01*
X248343100Y-80205155D01*
X248343099Y-80205153D01*
X248312338Y-80050510D01*
X248312337Y-80050503D01*
X248312335Y-80050498D01*
X248251997Y-79904827D01*
X248251990Y-79904814D01*
X248164389Y-79773711D01*
X248164386Y-79773707D01*
X248052892Y-79662213D01*
X248052888Y-79662210D01*
X247921785Y-79574609D01*
X247921772Y-79574602D01*
X247776101Y-79514264D01*
X247776089Y-79514261D01*
X247621445Y-79483500D01*
X247621442Y-79483500D01*
X247463758Y-79483500D01*
X247463755Y-79483500D01*
X247309110Y-79514261D01*
X247309098Y-79514264D01*
X247163427Y-79574602D01*
X247163414Y-79574609D01*
X247032311Y-79662210D01*
X247032307Y-79662213D01*
X246920813Y-79773707D01*
X246920810Y-79773711D01*
X246833209Y-79904814D01*
X246833202Y-79904827D01*
X246772864Y-80050498D01*
X246772861Y-80050510D01*
X246742100Y-80205153D01*
X216411224Y-80205153D01*
X216546936Y-80028289D01*
X216668224Y-79818212D01*
X216761054Y-79594100D01*
X216823838Y-79359789D01*
X216855500Y-79119288D01*
X216855500Y-78876712D01*
X216823838Y-78636211D01*
X216761054Y-78401900D01*
X216668224Y-78177788D01*
X216546936Y-77967711D01*
X216399265Y-77775262D01*
X216399260Y-77775256D01*
X216227743Y-77603739D01*
X216227736Y-77603733D01*
X216035293Y-77456067D01*
X216035292Y-77456066D01*
X216035289Y-77456064D01*
X215825212Y-77334776D01*
X215825205Y-77334773D01*
X215601104Y-77241947D01*
X215366785Y-77179161D01*
X215126289Y-77147500D01*
X215126288Y-77147500D01*
X214883712Y-77147500D01*
X214883711Y-77147500D01*
X214643214Y-77179161D01*
X214408895Y-77241947D01*
X214184794Y-77334773D01*
X214184785Y-77334777D01*
X213974706Y-77456067D01*
X213782263Y-77603733D01*
X213782256Y-77603739D01*
X213610739Y-77775256D01*
X213610733Y-77775263D01*
X213463067Y-77967706D01*
X213341777Y-78177785D01*
X213341773Y-78177794D01*
X213248947Y-78401895D01*
X213186161Y-78636214D01*
X213154500Y-78876711D01*
X207414373Y-78876711D01*
X207420023Y-71483202D01*
X207439759Y-71416181D01*
X207492598Y-71370466D01*
X207543584Y-71359301D01*
X239994920Y-71244713D01*
X239996222Y-71244716D01*
X240110560Y-71245716D01*
X240112033Y-71245729D01*
X240112033Y-71245728D01*
X240112034Y-71245729D01*
X240348479Y-71210352D01*
X240576455Y-71138343D01*
X240704239Y-71074495D01*
X240752637Y-71050313D01*
X240821406Y-71037957D01*
X240885937Y-71064742D01*
X240895742Y-71073556D01*
X240901686Y-71079500D01*
X241015814Y-71145392D01*
X241143108Y-71179500D01*
X241143110Y-71179500D01*
X241274890Y-71179500D01*
X241274892Y-71179500D01*
X241402186Y-71145392D01*
X241516314Y-71079500D01*
X241521319Y-71074495D01*
X241582642Y-71041010D01*
X241652334Y-71045994D01*
X241696681Y-71074495D01*
X241701686Y-71079500D01*
X241815814Y-71145392D01*
X241943108Y-71179500D01*
X241943110Y-71179500D01*
X242074890Y-71179500D01*
X242074892Y-71179500D01*
X242202186Y-71145392D01*
X242316314Y-71079500D01*
X242326319Y-71069495D01*
X242387642Y-71036010D01*
X242457334Y-71040994D01*
G37*
G04 #@! TD.AperFunction*
G04 #@! TA.AperFunction,Conductor*
G36*
X130828974Y-19919108D02*
G01*
X130855334Y-19920994D01*
X130864387Y-19926812D01*
X130871427Y-19928344D01*
X130893181Y-19944629D01*
X130893240Y-19944553D01*
X130899653Y-19949474D01*
X130899681Y-19949495D01*
X130899686Y-19949500D01*
X130962286Y-19985642D01*
X131002931Y-20009109D01*
X131013814Y-20015392D01*
X131141108Y-20049500D01*
X131141110Y-20049500D01*
X131272890Y-20049500D01*
X131272892Y-20049500D01*
X131400186Y-20015392D01*
X131428657Y-19998953D01*
X131496557Y-19982480D01*
X131562585Y-20005331D01*
X131567237Y-20008811D01*
X131572007Y-20012559D01*
X131775032Y-20126434D01*
X131775042Y-20126438D01*
X131775045Y-20126439D01*
X131993172Y-20207655D01*
X131993177Y-20207656D01*
X131993181Y-20207658D01*
X131993182Y-20207658D01*
X131993188Y-20207660D01*
X132105009Y-20230525D01*
X132221242Y-20254293D01*
X132275372Y-20256877D01*
X132279256Y-20258051D01*
X132341250Y-20260019D01*
X132403319Y-20262937D01*
X132403322Y-20262936D01*
X132408678Y-20263188D01*
X132413440Y-20263090D01*
X134037392Y-20333157D01*
X134040068Y-20333304D01*
X135728842Y-20444701D01*
X135731624Y-20444916D01*
X137417381Y-20594696D01*
X137420054Y-20594964D01*
X139102044Y-20783061D01*
X139104843Y-20783407D01*
X139374950Y-20819851D01*
X140781997Y-21009697D01*
X140784728Y-21010098D01*
X142456375Y-21274495D01*
X142459156Y-21274967D01*
X144124244Y-21577299D01*
X144127007Y-21577833D01*
X145784907Y-21917987D01*
X145787602Y-21918573D01*
X147437334Y-22296351D01*
X147439955Y-22296983D01*
X149080679Y-22712195D01*
X149083321Y-22712895D01*
X150525203Y-23112897D01*
X150714147Y-23165314D01*
X150716856Y-23166099D01*
X152336888Y-23655472D01*
X152339574Y-23656316D01*
X153948122Y-24182437D01*
X153950717Y-24183318D01*
X155546929Y-24745910D01*
X155549497Y-24746848D01*
X157132488Y-25345598D01*
X157135044Y-25346598D01*
X158704031Y-25981213D01*
X158706558Y-25982270D01*
X160090095Y-26578846D01*
X160260581Y-26652359D01*
X160263151Y-26653501D01*
X161801620Y-27358807D01*
X161804060Y-27359959D01*
X163326145Y-28100108D01*
X163328570Y-28101322D01*
X164833347Y-28875861D01*
X164835787Y-28877152D01*
X166322583Y-29685736D01*
X166324962Y-29687065D01*
X167792973Y-30529256D01*
X167795356Y-30530660D01*
X169243811Y-31406016D01*
X169246202Y-31407498D01*
X170658651Y-32305580D01*
X170674283Y-32315519D01*
X170676635Y-32317052D01*
X172040126Y-33228210D01*
X172083768Y-33257374D01*
X172086085Y-33258961D01*
X173471458Y-34231044D01*
X173473695Y-34232652D01*
X174836594Y-35235995D01*
X174838804Y-35237661D01*
X175479684Y-35732334D01*
X176178542Y-36271759D01*
X176180755Y-36273508D01*
X177496551Y-37337754D01*
X177498724Y-37339552D01*
X178790039Y-38433511D01*
X178792170Y-38435359D01*
X180058215Y-39558365D01*
X180060304Y-39560261D01*
X181143532Y-40566050D01*
X181300497Y-40711793D01*
X181302532Y-40713727D01*
X182466811Y-41845168D01*
X182516173Y-41893137D01*
X182518158Y-41895110D01*
X182834447Y-42216786D01*
X183704751Y-43101916D01*
X183706705Y-43103950D01*
X184865460Y-44337353D01*
X184867368Y-44339431D01*
X185997767Y-45598874D01*
X185999627Y-45600994D01*
X186561455Y-46256356D01*
X187101136Y-46885885D01*
X187102894Y-46887983D01*
X188021567Y-48010289D01*
X188174876Y-48197580D01*
X188176638Y-48199783D01*
X189218533Y-49533400D01*
X189220244Y-49535642D01*
X190231533Y-50892614D01*
X190233188Y-50894888D01*
X190865683Y-51785156D01*
X191213364Y-52274535D01*
X191214968Y-52276848D01*
X191323607Y-52437376D01*
X192163470Y-53678381D01*
X192165025Y-53680735D01*
X193081444Y-55103548D01*
X193082944Y-55105937D01*
X193966717Y-56549157D01*
X193968163Y-56551579D01*
X194049482Y-56691420D01*
X194066165Y-56759268D01*
X194043519Y-56825366D01*
X193999967Y-56863523D01*
X179661000Y-64398000D01*
X185541428Y-72289207D01*
X185548086Y-72299100D01*
X188094138Y-76506296D01*
X188112006Y-76573842D01*
X188090519Y-76640326D01*
X188036500Y-76684639D01*
X187975902Y-76693899D01*
X187971849Y-76693500D01*
X187971842Y-76693500D01*
X187814158Y-76693500D01*
X187814155Y-76693500D01*
X187659510Y-76724261D01*
X187659498Y-76724264D01*
X187513827Y-76784602D01*
X187513814Y-76784609D01*
X187382711Y-76872210D01*
X187382707Y-76872213D01*
X187271213Y-76983707D01*
X187271210Y-76983711D01*
X187183609Y-77114814D01*
X187183602Y-77114827D01*
X187123264Y-77260498D01*
X187123261Y-77260510D01*
X187092500Y-77415153D01*
X187092500Y-77572846D01*
X187123261Y-77727489D01*
X187123264Y-77727501D01*
X187183602Y-77873172D01*
X187183609Y-77873185D01*
X187271210Y-78004288D01*
X187271213Y-78004292D01*
X187382707Y-78115786D01*
X187382711Y-78115789D01*
X187513814Y-78203390D01*
X187513827Y-78203397D01*
X187628644Y-78250955D01*
X187659503Y-78263737D01*
X187814153Y-78294499D01*
X187814156Y-78294500D01*
X187814158Y-78294500D01*
X187971844Y-78294500D01*
X187971845Y-78294499D01*
X188126497Y-78263737D01*
X188272179Y-78203394D01*
X188403289Y-78115789D01*
X188514789Y-78004289D01*
X188602394Y-77873179D01*
X188638214Y-77786699D01*
X188682053Y-77732299D01*
X188748346Y-77710233D01*
X188816046Y-77727511D01*
X188858861Y-77769954D01*
X189644999Y-79068999D01*
X189645000Y-79069000D01*
X201320760Y-73718483D01*
X201389902Y-73708450D01*
X201453496Y-73737392D01*
X201491347Y-73796121D01*
X201491706Y-73797364D01*
X201893958Y-75215065D01*
X201894697Y-75217787D01*
X202319490Y-76855968D01*
X202320167Y-76858707D01*
X202707579Y-78506096D01*
X202708194Y-78508849D01*
X202993985Y-79861489D01*
X203047865Y-80116503D01*
X203058049Y-80164701D01*
X203058598Y-80167461D01*
X203074045Y-80249786D01*
X203370679Y-81830755D01*
X203371168Y-81833533D01*
X203582818Y-83122711D01*
X203628259Y-83399498D01*
X203645345Y-83503567D01*
X203645770Y-83506356D01*
X203881878Y-85182132D01*
X203882240Y-85184929D01*
X204080173Y-86865690D01*
X204080471Y-86868495D01*
X204240119Y-88553305D01*
X204240353Y-88556117D01*
X204361635Y-90244121D01*
X204361805Y-90246936D01*
X204444073Y-91925371D01*
X204444216Y-91932706D01*
X204443238Y-92028615D01*
X204475739Y-92254118D01*
X204475740Y-92254120D01*
X204542332Y-92472007D01*
X204542334Y-92472013D01*
X204544067Y-92476435D01*
X204543146Y-92476795D01*
X204553932Y-92521159D01*
X204626847Y-95232353D01*
X204614418Y-95289889D01*
X204574019Y-95373012D01*
X204574016Y-95373020D01*
X204504189Y-95603038D01*
X204471342Y-95841183D01*
X204473490Y-95946939D01*
X204473469Y-95952868D01*
X204427197Y-97634325D01*
X204427088Y-97637141D01*
X204342181Y-99325674D01*
X204342007Y-99328488D01*
X204218750Y-101014577D01*
X204218513Y-101017385D01*
X204056958Y-102700326D01*
X204056656Y-102703128D01*
X203856906Y-104381837D01*
X203856542Y-104384632D01*
X203618670Y-106058506D01*
X203618241Y-106061292D01*
X203342406Y-107729213D01*
X203341915Y-107731988D01*
X203028234Y-109393251D01*
X203027680Y-109396015D01*
X202676309Y-111049787D01*
X202675691Y-111052537D01*
X202286849Y-112697780D01*
X202286170Y-112700515D01*
X201860022Y-114336549D01*
X201859281Y-114339268D01*
X201396056Y-115965203D01*
X201395253Y-115967905D01*
X200895187Y-117582914D01*
X200894322Y-117585597D01*
X200357708Y-119188732D01*
X200356784Y-119191394D01*
X199783831Y-120782035D01*
X199782845Y-120784676D01*
X199173915Y-122361812D01*
X199172870Y-122364429D01*
X198528258Y-123927302D01*
X198527154Y-123929896D01*
X197847160Y-125477777D01*
X197845997Y-125480344D01*
X197131015Y-127012336D01*
X197129794Y-127014876D01*
X196380185Y-128530202D01*
X196378907Y-128532714D01*
X195595033Y-130030647D01*
X195593698Y-130033129D01*
X194776001Y-131512824D01*
X194774610Y-131515276D01*
X193923459Y-132976061D01*
X193922012Y-132978480D01*
X193037908Y-134419497D01*
X193036407Y-134421882D01*
X192119780Y-135842433D01*
X192118225Y-135844784D01*
X191169542Y-137244144D01*
X191167934Y-137246459D01*
X190187682Y-138623909D01*
X190186022Y-138626186D01*
X189174732Y-139980978D01*
X189173020Y-139983218D01*
X188131176Y-141314705D01*
X188129414Y-141316904D01*
X187057633Y-142624298D01*
X187055822Y-142626458D01*
X185954531Y-143909241D01*
X185952671Y-143911358D01*
X184822548Y-145168733D01*
X184820640Y-145170808D01*
X183662237Y-146402169D01*
X183660283Y-146404200D01*
X182474127Y-147608980D01*
X182472126Y-147610965D01*
X181259004Y-148788367D01*
X181256960Y-148790307D01*
X180017302Y-149939916D01*
X180015213Y-149941809D01*
X178749809Y-151062890D01*
X178747679Y-151064735D01*
X177457074Y-152156807D01*
X177454902Y-152158603D01*
X176139807Y-153221063D01*
X176137594Y-153222809D01*
X174798754Y-154255053D01*
X174796503Y-154256749D01*
X173434471Y-155258355D01*
X173432181Y-155259999D01*
X172047769Y-156230367D01*
X172045443Y-156231958D01*
X170639333Y-157170609D01*
X170636971Y-157172147D01*
X169209901Y-158078592D01*
X169207505Y-158080076D01*
X167760189Y-158953859D01*
X167757760Y-158955288D01*
X166290977Y-159795939D01*
X166288516Y-159797313D01*
X164802959Y-160604436D01*
X164800467Y-160605753D01*
X163297019Y-161378866D01*
X163294498Y-161380127D01*
X161773778Y-162118913D01*
X161771229Y-162120115D01*
X160234201Y-162824107D01*
X160231625Y-162825252D01*
X158678915Y-163494161D01*
X158676314Y-163495246D01*
X157108893Y-164128655D01*
X157106268Y-164129682D01*
X155524770Y-164727335D01*
X155522123Y-164728301D01*
X153927488Y-165289841D01*
X153924819Y-165290747D01*
X152317822Y-165815903D01*
X152315133Y-165816748D01*
X150696640Y-166305237D01*
X150693933Y-166306021D01*
X149064716Y-166757609D01*
X149061991Y-166758331D01*
X147422922Y-167172774D01*
X147420182Y-167173433D01*
X145772210Y-167550496D01*
X145769456Y-167551094D01*
X144113213Y-167890630D01*
X144110445Y-167891164D01*
X142447030Y-168192947D01*
X142444252Y-168193419D01*
X140774315Y-168457333D01*
X140771526Y-168457741D01*
X139096081Y-168683624D01*
X139093283Y-168683969D01*
X137413108Y-168871716D01*
X137410304Y-168871997D01*
X135726293Y-169021508D01*
X135723483Y-169021725D01*
X134036561Y-169132920D01*
X134033747Y-169133074D01*
X132441095Y-169201745D01*
X132435427Y-169201860D01*
X132421865Y-169201824D01*
X132416367Y-169200451D01*
X132350485Y-169201572D01*
X132350485Y-169201574D01*
X132347129Y-169201628D01*
X132347095Y-169201628D01*
X132229213Y-169203528D01*
X132229198Y-169203530D01*
X131990216Y-169245125D01*
X131835556Y-169297693D01*
X131760533Y-169323193D01*
X131760531Y-169323193D01*
X131760531Y-169323194D01*
X131545691Y-169435850D01*
X131488666Y-169478154D01*
X131423096Y-169502286D01*
X131376632Y-169494655D01*
X131376349Y-169495712D01*
X131368499Y-169493608D01*
X131368498Y-169493608D01*
X131241204Y-169459500D01*
X131109420Y-169459500D01*
X130982124Y-169493608D01*
X130867998Y-169559500D01*
X130867996Y-169559501D01*
X130857987Y-169569510D01*
X130796661Y-169602991D01*
X130726970Y-169598002D01*
X130689484Y-169573909D01*
X130689072Y-169574447D01*
X130682628Y-169569502D01*
X130682626Y-169569500D01*
X130625562Y-169536554D01*
X130568499Y-169503608D01*
X130473501Y-169478154D01*
X130441204Y-169469500D01*
X130309420Y-169469500D01*
X130182124Y-169503608D01*
X130067998Y-169569500D01*
X130067995Y-169569502D01*
X130067993Y-169569505D01*
X130067990Y-169569506D01*
X130061552Y-169574447D01*
X130060781Y-169573442D01*
X130006670Y-169602990D01*
X129936978Y-169598006D01*
X129899484Y-169573909D01*
X129899072Y-169574447D01*
X129892635Y-169569507D01*
X129892631Y-169569505D01*
X129892628Y-169569502D01*
X129892626Y-169569500D01*
X129835562Y-169536554D01*
X129778499Y-169503608D01*
X129683501Y-169478154D01*
X129651204Y-169469500D01*
X129519420Y-169469500D01*
X129392126Y-169503608D01*
X129392119Y-169503611D01*
X129390609Y-169504483D01*
X129389174Y-169504830D01*
X129384616Y-169506719D01*
X129384321Y-169506007D01*
X129322708Y-169520949D01*
X129257456Y-169498637D01*
X129167861Y-169435850D01*
X129160638Y-169430788D01*
X129160636Y-169430787D01*
X129160631Y-169430784D01*
X128943480Y-169324654D01*
X128712434Y-169253706D01*
X128712425Y-169253704D01*
X128473125Y-169219672D01*
X128382206Y-169221092D01*
X128377598Y-169221078D01*
X128371614Y-169220949D01*
X128370224Y-169220911D01*
X127711512Y-169199190D01*
X126680272Y-169165184D01*
X126677457Y-169165059D01*
X124990029Y-169070992D01*
X124987218Y-169070803D01*
X123302360Y-168938418D01*
X123299554Y-168938165D01*
X121618180Y-168767536D01*
X121615380Y-168767220D01*
X119938263Y-168558424D01*
X119935471Y-168558044D01*
X118263569Y-168311200D01*
X118260786Y-168310757D01*
X116594913Y-168025985D01*
X116592141Y-168025479D01*
X114933159Y-167702927D01*
X114930400Y-167702358D01*
X113279148Y-167342188D01*
X113276402Y-167341556D01*
X111633812Y-166943972D01*
X111631081Y-166943278D01*
X109997929Y-166508469D01*
X109995214Y-166507713D01*
X108372370Y-166035908D01*
X108369674Y-166035091D01*
X106757941Y-165526525D01*
X106755263Y-165525646D01*
X105155531Y-164980600D01*
X105152875Y-164979661D01*
X103565952Y-164398411D01*
X103563317Y-164397412D01*
X101990005Y-163780252D01*
X101987394Y-163779194D01*
X100428475Y-163126428D01*
X100425888Y-163125310D01*
X99558808Y-162738854D01*
X98882200Y-162437291D01*
X98879698Y-162436141D01*
X97351990Y-161713198D01*
X97349472Y-161711971D01*
X95838719Y-160954569D01*
X95836214Y-160953278D01*
X94342973Y-160161697D01*
X94340499Y-160160349D01*
X93577673Y-159733489D01*
X93019510Y-159421153D01*
X136149500Y-159421153D01*
X136149500Y-159578846D01*
X136180261Y-159733489D01*
X136180264Y-159733501D01*
X136240602Y-159879172D01*
X136240609Y-159879185D01*
X136328210Y-160010288D01*
X136328213Y-160010292D01*
X136439707Y-160121786D01*
X136439711Y-160121789D01*
X136570814Y-160209390D01*
X136570827Y-160209397D01*
X136716498Y-160269735D01*
X136716503Y-160269737D01*
X136871153Y-160300499D01*
X136871156Y-160300500D01*
X136871158Y-160300500D01*
X137028844Y-160300500D01*
X137028845Y-160300499D01*
X137183497Y-160269737D01*
X137329179Y-160209394D01*
X137460289Y-160121789D01*
X137571789Y-160010289D01*
X137659394Y-159879179D01*
X137719737Y-159733497D01*
X137750500Y-159578842D01*
X137750500Y-159421158D01*
X137750500Y-159421155D01*
X137750499Y-159421153D01*
X137742753Y-159382213D01*
X137719737Y-159266503D01*
X137719735Y-159266498D01*
X137659397Y-159120827D01*
X137659390Y-159120814D01*
X137571789Y-158989711D01*
X137571786Y-158989707D01*
X137460292Y-158878213D01*
X137460288Y-158878210D01*
X137329185Y-158790609D01*
X137329172Y-158790602D01*
X137183501Y-158730264D01*
X137183489Y-158730261D01*
X137028845Y-158699500D01*
X137028842Y-158699500D01*
X136871158Y-158699500D01*
X136871155Y-158699500D01*
X136716510Y-158730261D01*
X136716498Y-158730264D01*
X136570827Y-158790602D01*
X136570814Y-158790609D01*
X136439711Y-158878210D01*
X136439707Y-158878213D01*
X136328213Y-158989707D01*
X136328210Y-158989711D01*
X136240609Y-159120814D01*
X136240602Y-159120827D01*
X136180264Y-159266498D01*
X136180261Y-159266510D01*
X136149500Y-159421153D01*
X93019510Y-159421153D01*
X92865640Y-159335051D01*
X92863240Y-159333671D01*
X92321968Y-159014425D01*
X91407529Y-158475082D01*
X91405118Y-158473623D01*
X89969306Y-157582188D01*
X89966929Y-157580675D01*
X88551703Y-156656819D01*
X88549362Y-156655252D01*
X88429144Y-156572819D01*
X88129061Y-156367052D01*
X87155543Y-155699512D01*
X87153237Y-155697892D01*
X86612609Y-155308834D01*
X86569693Y-155253698D01*
X86563398Y-155184113D01*
X86595724Y-155122171D01*
X86601310Y-155116723D01*
X87286498Y-154489711D01*
X114329500Y-154489711D01*
X114329500Y-154732288D01*
X114355421Y-154929185D01*
X114361162Y-154972789D01*
X114384608Y-155060289D01*
X114423947Y-155207104D01*
X114483344Y-155350500D01*
X114516776Y-155431212D01*
X114638064Y-155641289D01*
X114638066Y-155641292D01*
X114638067Y-155641293D01*
X114785733Y-155833736D01*
X114785739Y-155833743D01*
X114957256Y-156005260D01*
X114957263Y-156005266D01*
X115070321Y-156092018D01*
X115149711Y-156152936D01*
X115359788Y-156274224D01*
X115583900Y-156367054D01*
X115818211Y-156429838D01*
X115998586Y-156453584D01*
X116058711Y-156461500D01*
X116058712Y-156461500D01*
X116301289Y-156461500D01*
X116349388Y-156455167D01*
X116541789Y-156429838D01*
X116776100Y-156367054D01*
X117000212Y-156274224D01*
X117210289Y-156152936D01*
X117402738Y-156005265D01*
X117574265Y-155833738D01*
X117721936Y-155641289D01*
X117843224Y-155431212D01*
X117936054Y-155207100D01*
X117998838Y-154972789D01*
X118030500Y-154732288D01*
X118030500Y-154489712D01*
X118028057Y-154471153D01*
X152849500Y-154471153D01*
X152849500Y-154628846D01*
X152880261Y-154783489D01*
X152880264Y-154783501D01*
X152940602Y-154929172D01*
X152940609Y-154929185D01*
X153028210Y-155060288D01*
X153028213Y-155060292D01*
X153139707Y-155171786D01*
X153139711Y-155171789D01*
X153270814Y-155259390D01*
X153270827Y-155259397D01*
X153416498Y-155319735D01*
X153416503Y-155319737D01*
X153571153Y-155350499D01*
X153571156Y-155350500D01*
X153571158Y-155350500D01*
X153728844Y-155350500D01*
X153728845Y-155350499D01*
X153883497Y-155319737D01*
X153996166Y-155273067D01*
X154029172Y-155259397D01*
X154029172Y-155259396D01*
X154029179Y-155259394D01*
X154160289Y-155171789D01*
X154271789Y-155060289D01*
X154359394Y-154929179D01*
X154419737Y-154783497D01*
X154450500Y-154628842D01*
X154450500Y-154471158D01*
X154450500Y-154471155D01*
X154450499Y-154471153D01*
X154419738Y-154316510D01*
X154419737Y-154316503D01*
X154419735Y-154316498D01*
X154359397Y-154170827D01*
X154359390Y-154170814D01*
X154271789Y-154039711D01*
X154271786Y-154039707D01*
X154160292Y-153928213D01*
X154160288Y-153928210D01*
X154029185Y-153840609D01*
X154029172Y-153840602D01*
X153883501Y-153780264D01*
X153883489Y-153780261D01*
X153728845Y-153749500D01*
X153728842Y-153749500D01*
X153571158Y-153749500D01*
X153571155Y-153749500D01*
X153416510Y-153780261D01*
X153416498Y-153780264D01*
X153270827Y-153840602D01*
X153270814Y-153840609D01*
X153139711Y-153928210D01*
X153139707Y-153928213D01*
X153028213Y-154039707D01*
X153028210Y-154039711D01*
X152940609Y-154170814D01*
X152940602Y-154170827D01*
X152880264Y-154316498D01*
X152880261Y-154316510D01*
X152849500Y-154471153D01*
X118028057Y-154471153D01*
X117998838Y-154249211D01*
X117936054Y-154014900D01*
X117843224Y-153790788D01*
X117721936Y-153580711D01*
X117574265Y-153388262D01*
X117574260Y-153388256D01*
X117402743Y-153216739D01*
X117402736Y-153216733D01*
X117210293Y-153069067D01*
X117210292Y-153069066D01*
X117210289Y-153069064D01*
X117000212Y-152947776D01*
X117000205Y-152947773D01*
X116776104Y-152854947D01*
X116541785Y-152792161D01*
X116301289Y-152760500D01*
X116301288Y-152760500D01*
X116058712Y-152760500D01*
X116058711Y-152760500D01*
X115818214Y-152792161D01*
X115583895Y-152854947D01*
X115359794Y-152947773D01*
X115359785Y-152947777D01*
X115149706Y-153069067D01*
X114957263Y-153216733D01*
X114957256Y-153216739D01*
X114785739Y-153388256D01*
X114785733Y-153388263D01*
X114638067Y-153580706D01*
X114516777Y-153790785D01*
X114516773Y-153790794D01*
X114423947Y-154014895D01*
X114361161Y-154249214D01*
X114329500Y-154489711D01*
X87286498Y-154489711D01*
X91841830Y-150321153D01*
X124899500Y-150321153D01*
X124899500Y-150478846D01*
X124930261Y-150633489D01*
X124930264Y-150633501D01*
X124990602Y-150779172D01*
X124990609Y-150779185D01*
X125078210Y-150910288D01*
X125078213Y-150910292D01*
X125189707Y-151021786D01*
X125189711Y-151021789D01*
X125320814Y-151109390D01*
X125320827Y-151109397D01*
X125466498Y-151169735D01*
X125466503Y-151169737D01*
X125621153Y-151200499D01*
X125621156Y-151200500D01*
X125621158Y-151200500D01*
X125778844Y-151200500D01*
X125778845Y-151200499D01*
X125933497Y-151169737D01*
X126079179Y-151109394D01*
X126210289Y-151021789D01*
X126321789Y-150910289D01*
X126409394Y-150779179D01*
X126469737Y-150633497D01*
X126500500Y-150478842D01*
X126500500Y-150321158D01*
X126500500Y-150321155D01*
X126500499Y-150321153D01*
X126469738Y-150166510D01*
X126469737Y-150166503D01*
X126444759Y-150106200D01*
X126409397Y-150020827D01*
X126409390Y-150020814D01*
X126321789Y-149889711D01*
X126321786Y-149889707D01*
X126210292Y-149778213D01*
X126210288Y-149778210D01*
X126079185Y-149690609D01*
X126079172Y-149690602D01*
X125933501Y-149630264D01*
X125933489Y-149630261D01*
X125778845Y-149599500D01*
X125778842Y-149599500D01*
X125621158Y-149599500D01*
X125621155Y-149599500D01*
X125466510Y-149630261D01*
X125466498Y-149630264D01*
X125320827Y-149690602D01*
X125320814Y-149690609D01*
X125189711Y-149778210D01*
X125189707Y-149778213D01*
X125078213Y-149889707D01*
X125078210Y-149889711D01*
X124990609Y-150020814D01*
X124990602Y-150020827D01*
X124930264Y-150166498D01*
X124930261Y-150166510D01*
X124899500Y-150321153D01*
X91841830Y-150321153D01*
X106639199Y-136780165D01*
X106701941Y-136749432D01*
X106771344Y-136757499D01*
X106782880Y-136763115D01*
X107288613Y-137042624D01*
X107350504Y-137076830D01*
X108546781Y-137694841D01*
X109759947Y-138279071D01*
X110087421Y-138425606D01*
X110989002Y-138829038D01*
X112233005Y-139344321D01*
X113490971Y-139824511D01*
X114761909Y-140269232D01*
X116044820Y-140678132D01*
X117338694Y-141050891D01*
X118642514Y-141387215D01*
X119955254Y-141686839D01*
X119955268Y-141686841D01*
X119955269Y-141686842D01*
X121275864Y-141949525D01*
X121275870Y-141949526D01*
X121275880Y-141949528D01*
X122603355Y-142175075D01*
X123936633Y-142363303D01*
X124809300Y-142461628D01*
X125274665Y-142514063D01*
X125380221Y-142522966D01*
X126616400Y-142627237D01*
X127960781Y-142702736D01*
X128783317Y-142725814D01*
X129306743Y-142740500D01*
X129306750Y-142740500D01*
X130653257Y-142740500D01*
X131149133Y-142726586D01*
X131999219Y-142702736D01*
X133343600Y-142627237D01*
X134685334Y-142514063D01*
X136023367Y-142363303D01*
X137356645Y-142175075D01*
X138684120Y-141949528D01*
X140004746Y-141686839D01*
X141317486Y-141387215D01*
X142621306Y-141050891D01*
X143915180Y-140678132D01*
X145198091Y-140269232D01*
X146469029Y-139824511D01*
X147726995Y-139344321D01*
X148970998Y-138829038D01*
X150200059Y-138279068D01*
X151413213Y-137694844D01*
X152609505Y-137076825D01*
X153787992Y-136425498D01*
X154947749Y-135741375D01*
X156087862Y-135024994D01*
X157207435Y-134276920D01*
X158305587Y-133497739D01*
X159381454Y-132688066D01*
X160434190Y-131848538D01*
X161462965Y-130979814D01*
X162466972Y-130082579D01*
X163445420Y-129157538D01*
X164397538Y-128205420D01*
X165322579Y-127226972D01*
X166219814Y-126222965D01*
X166643557Y-125721153D01*
X179199500Y-125721153D01*
X179199500Y-125878846D01*
X179230261Y-126033489D01*
X179230264Y-126033501D01*
X179290602Y-126179172D01*
X179290609Y-126179185D01*
X179378210Y-126310288D01*
X179378213Y-126310292D01*
X179489707Y-126421786D01*
X179489711Y-126421789D01*
X179620814Y-126509390D01*
X179620827Y-126509397D01*
X179766498Y-126569735D01*
X179766503Y-126569737D01*
X179921153Y-126600499D01*
X179921156Y-126600500D01*
X179921158Y-126600500D01*
X180078844Y-126600500D01*
X180078845Y-126600499D01*
X180233497Y-126569737D01*
X180379179Y-126509394D01*
X180510289Y-126421789D01*
X180621789Y-126310289D01*
X180709394Y-126179179D01*
X180769737Y-126033497D01*
X180800500Y-125878842D01*
X180800500Y-125721158D01*
X180800500Y-125721155D01*
X180800499Y-125721153D01*
X180769738Y-125566510D01*
X180769737Y-125566503D01*
X180730235Y-125471135D01*
X180709397Y-125420827D01*
X180709390Y-125420814D01*
X180621789Y-125289711D01*
X180621786Y-125289707D01*
X180510292Y-125178213D01*
X180510288Y-125178210D01*
X180379185Y-125090609D01*
X180379172Y-125090602D01*
X180233501Y-125030264D01*
X180233489Y-125030261D01*
X180078845Y-124999500D01*
X180078842Y-124999500D01*
X179921158Y-124999500D01*
X179921155Y-124999500D01*
X179766510Y-125030261D01*
X179766498Y-125030264D01*
X179620827Y-125090602D01*
X179620814Y-125090609D01*
X179489711Y-125178210D01*
X179489707Y-125178213D01*
X179378213Y-125289707D01*
X179378210Y-125289711D01*
X179290609Y-125420814D01*
X179290602Y-125420827D01*
X179230264Y-125566498D01*
X179230261Y-125566510D01*
X179199500Y-125721153D01*
X166643557Y-125721153D01*
X167088538Y-125194190D01*
X167928066Y-124141454D01*
X168737739Y-123065587D01*
X169516920Y-121967435D01*
X170264994Y-120847862D01*
X170981375Y-119707749D01*
X171665498Y-118547992D01*
X172316825Y-117369505D01*
X172934844Y-116173213D01*
X173519068Y-114960059D01*
X173648345Y-114671153D01*
X185799500Y-114671153D01*
X185799500Y-114828846D01*
X185830261Y-114983489D01*
X185830264Y-114983501D01*
X185890602Y-115129172D01*
X185890609Y-115129185D01*
X185978210Y-115260288D01*
X185978213Y-115260292D01*
X186089707Y-115371786D01*
X186089711Y-115371789D01*
X186220814Y-115459390D01*
X186220827Y-115459397D01*
X186366498Y-115519735D01*
X186366503Y-115519737D01*
X186521153Y-115550499D01*
X186521156Y-115550500D01*
X186521158Y-115550500D01*
X186678844Y-115550500D01*
X186678845Y-115550499D01*
X186833497Y-115519737D01*
X186979179Y-115459394D01*
X187110289Y-115371789D01*
X187221789Y-115260289D01*
X187309394Y-115129179D01*
X187369737Y-114983497D01*
X187400500Y-114828842D01*
X187400500Y-114671158D01*
X187400500Y-114671155D01*
X187400499Y-114671153D01*
X187369738Y-114516510D01*
X187369737Y-114516503D01*
X187369735Y-114516498D01*
X187309397Y-114370827D01*
X187309390Y-114370814D01*
X187221789Y-114239711D01*
X187221786Y-114239707D01*
X187110292Y-114128213D01*
X187110288Y-114128210D01*
X186979185Y-114040609D01*
X186979172Y-114040602D01*
X186833501Y-113980264D01*
X186833489Y-113980261D01*
X186678845Y-113949500D01*
X186678842Y-113949500D01*
X186521158Y-113949500D01*
X186521155Y-113949500D01*
X186366510Y-113980261D01*
X186366498Y-113980264D01*
X186220827Y-114040602D01*
X186220814Y-114040609D01*
X186089711Y-114128210D01*
X186089707Y-114128213D01*
X185978213Y-114239707D01*
X185978210Y-114239711D01*
X185890609Y-114370814D01*
X185890602Y-114370827D01*
X185830264Y-114516498D01*
X185830261Y-114516510D01*
X185799500Y-114671153D01*
X173648345Y-114671153D01*
X174069038Y-113730998D01*
X174584321Y-112486995D01*
X175064511Y-111229029D01*
X175509232Y-109958091D01*
X175918132Y-108675180D01*
X176290891Y-107381306D01*
X176627215Y-106077486D01*
X176926839Y-104764746D01*
X176955401Y-104621153D01*
X183499500Y-104621153D01*
X183499500Y-104778846D01*
X183530261Y-104933489D01*
X183530264Y-104933501D01*
X183590602Y-105079172D01*
X183590609Y-105079185D01*
X183678210Y-105210288D01*
X183678213Y-105210292D01*
X183789707Y-105321786D01*
X183789711Y-105321789D01*
X183920814Y-105409390D01*
X183920827Y-105409397D01*
X184066498Y-105469735D01*
X184066503Y-105469737D01*
X184221153Y-105500499D01*
X184221156Y-105500500D01*
X184221158Y-105500500D01*
X184378844Y-105500500D01*
X184378845Y-105500499D01*
X184533497Y-105469737D01*
X184679179Y-105409394D01*
X184810289Y-105321789D01*
X184921789Y-105210289D01*
X185009394Y-105079179D01*
X185069737Y-104933497D01*
X185100500Y-104778842D01*
X185100500Y-104621158D01*
X185100500Y-104621155D01*
X185100499Y-104621153D01*
X185069738Y-104466510D01*
X185069737Y-104466503D01*
X185069735Y-104466498D01*
X185009397Y-104320827D01*
X185009390Y-104320814D01*
X184921789Y-104189711D01*
X184921786Y-104189707D01*
X184810292Y-104078213D01*
X184810288Y-104078210D01*
X184679185Y-103990609D01*
X184679172Y-103990602D01*
X184533501Y-103930264D01*
X184533489Y-103930261D01*
X184378845Y-103899500D01*
X184378842Y-103899500D01*
X184221158Y-103899500D01*
X184221155Y-103899500D01*
X184066510Y-103930261D01*
X184066498Y-103930264D01*
X183920827Y-103990602D01*
X183920814Y-103990609D01*
X183789711Y-104078210D01*
X183789707Y-104078213D01*
X183678213Y-104189707D01*
X183678210Y-104189711D01*
X183590609Y-104320814D01*
X183590602Y-104320827D01*
X183530264Y-104466498D01*
X183530261Y-104466510D01*
X183499500Y-104621153D01*
X176955401Y-104621153D01*
X177189528Y-103444120D01*
X177415075Y-102116645D01*
X177603303Y-100783367D01*
X177754063Y-99445334D01*
X177867237Y-98103600D01*
X177898624Y-97544711D01*
X190014500Y-97544711D01*
X190014500Y-97787288D01*
X190046161Y-98027785D01*
X190108947Y-98262104D01*
X190201773Y-98486205D01*
X190201776Y-98486212D01*
X190323064Y-98696289D01*
X190323066Y-98696292D01*
X190323067Y-98696293D01*
X190470733Y-98888736D01*
X190470739Y-98888743D01*
X190642256Y-99060260D01*
X190642262Y-99060265D01*
X190834711Y-99207936D01*
X191044788Y-99329224D01*
X191268900Y-99422054D01*
X191503211Y-99484838D01*
X191683586Y-99508584D01*
X191743711Y-99516500D01*
X191743712Y-99516500D01*
X191986289Y-99516500D01*
X192034388Y-99510167D01*
X192226789Y-99484838D01*
X192461100Y-99422054D01*
X192685212Y-99329224D01*
X192895289Y-99207936D01*
X193087738Y-99060265D01*
X193259265Y-98888738D01*
X193406936Y-98696289D01*
X193528224Y-98486212D01*
X193621054Y-98262100D01*
X193683838Y-98027789D01*
X193715500Y-97787288D01*
X193715500Y-97544712D01*
X193683838Y-97304211D01*
X193621054Y-97069900D01*
X193528224Y-96845788D01*
X193406936Y-96635711D01*
X193259265Y-96443262D01*
X193259260Y-96443256D01*
X193087743Y-96271739D01*
X193087736Y-96271733D01*
X192895293Y-96124067D01*
X192895292Y-96124066D01*
X192895289Y-96124064D01*
X192723661Y-96024974D01*
X192685214Y-96002777D01*
X192685205Y-96002773D01*
X192461104Y-95909947D01*
X192226785Y-95847161D01*
X191986289Y-95815500D01*
X191986288Y-95815500D01*
X191743712Y-95815500D01*
X191743711Y-95815500D01*
X191503214Y-95847161D01*
X191268895Y-95909947D01*
X191044794Y-96002773D01*
X191044785Y-96002777D01*
X190834706Y-96124067D01*
X190642263Y-96271733D01*
X190642256Y-96271739D01*
X190470739Y-96443256D01*
X190470733Y-96443263D01*
X190323067Y-96635706D01*
X190201777Y-96845785D01*
X190201773Y-96845794D01*
X190108947Y-97069895D01*
X190046161Y-97304214D01*
X190014500Y-97544711D01*
X177898624Y-97544711D01*
X177942736Y-96759219D01*
X177976145Y-95568480D01*
X177980500Y-95413257D01*
X177980500Y-94066742D01*
X177955223Y-93165851D01*
X177942736Y-92720781D01*
X177867237Y-91376400D01*
X177754063Y-90034666D01*
X177603303Y-88696633D01*
X177415075Y-87363355D01*
X177189528Y-86035880D01*
X176956457Y-84864153D01*
X181300500Y-84864153D01*
X181300500Y-85021846D01*
X181331261Y-85176489D01*
X181331264Y-85176501D01*
X181391602Y-85322172D01*
X181391609Y-85322185D01*
X181479210Y-85453288D01*
X181479213Y-85453292D01*
X181590707Y-85564786D01*
X181590711Y-85564789D01*
X181721814Y-85652390D01*
X181721827Y-85652397D01*
X181867498Y-85712735D01*
X181867503Y-85712737D01*
X182022153Y-85743499D01*
X182022156Y-85743500D01*
X182022158Y-85743500D01*
X182179844Y-85743500D01*
X182179845Y-85743499D01*
X182334497Y-85712737D01*
X182480179Y-85652394D01*
X182611289Y-85564789D01*
X182722789Y-85453289D01*
X182810394Y-85322179D01*
X182870737Y-85176497D01*
X182901500Y-85021842D01*
X182901500Y-84864158D01*
X182901500Y-84864155D01*
X182901499Y-84864153D01*
X182870738Y-84709510D01*
X182870737Y-84709503D01*
X182811896Y-84567446D01*
X182810397Y-84563827D01*
X182810395Y-84563823D01*
X182810394Y-84563821D01*
X182731867Y-84446298D01*
X182710990Y-84379622D01*
X182729474Y-84312242D01*
X182766081Y-84274305D01*
X182781867Y-84263757D01*
X182795289Y-84254789D01*
X182906789Y-84143289D01*
X182994394Y-84012179D01*
X183054737Y-83866497D01*
X183085500Y-83711842D01*
X183085500Y-83554158D01*
X183085500Y-83554155D01*
X183085499Y-83554153D01*
X183054737Y-83399503D01*
X183026931Y-83332372D01*
X182994397Y-83253827D01*
X182994390Y-83253814D01*
X182906789Y-83122711D01*
X182906786Y-83122707D01*
X182795292Y-83011213D01*
X182795288Y-83011210D01*
X182664185Y-82923609D01*
X182664172Y-82923602D01*
X182518501Y-82863264D01*
X182518489Y-82863261D01*
X182363845Y-82832500D01*
X182363842Y-82832500D01*
X182206158Y-82832500D01*
X182206155Y-82832500D01*
X182051510Y-82863261D01*
X182051498Y-82863264D01*
X181905827Y-82923602D01*
X181905814Y-82923609D01*
X181774711Y-83011210D01*
X181774707Y-83011213D01*
X181663213Y-83122707D01*
X181663210Y-83122711D01*
X181575609Y-83253814D01*
X181575602Y-83253827D01*
X181515264Y-83399498D01*
X181515261Y-83399510D01*
X181484500Y-83554153D01*
X181484500Y-83711846D01*
X181515261Y-83866489D01*
X181515264Y-83866501D01*
X181575602Y-84012172D01*
X181575609Y-84012185D01*
X181654131Y-84129700D01*
X181675009Y-84196377D01*
X181656525Y-84263757D01*
X181619921Y-84301692D01*
X181590714Y-84321208D01*
X181590707Y-84321213D01*
X181479213Y-84432707D01*
X181479210Y-84432711D01*
X181391609Y-84563814D01*
X181391602Y-84563827D01*
X181331264Y-84709498D01*
X181331261Y-84709510D01*
X181300500Y-84864153D01*
X176956457Y-84864153D01*
X176926839Y-84715254D01*
X176627215Y-83402514D01*
X176290891Y-82098694D01*
X175995951Y-81074935D01*
X175996308Y-81005069D01*
X176034381Y-80946484D01*
X176098084Y-80917784D01*
X176162557Y-80926048D01*
X176212503Y-80946737D01*
X176319017Y-80967924D01*
X176367153Y-80977499D01*
X176367156Y-80977500D01*
X176367158Y-80977500D01*
X176524844Y-80977500D01*
X176524845Y-80977499D01*
X176679497Y-80946737D01*
X176749396Y-80917784D01*
X176798983Y-80897245D01*
X176868452Y-80889776D01*
X176915325Y-80908704D01*
X176932818Y-80920392D01*
X176932825Y-80920396D01*
X177056893Y-80971786D01*
X177078503Y-80980737D01*
X177213441Y-81007578D01*
X177233153Y-81011499D01*
X177233156Y-81011500D01*
X177233158Y-81011500D01*
X177390845Y-81011500D01*
X177410558Y-81007578D01*
X177480149Y-81013802D01*
X177522436Y-81041514D01*
X177576707Y-81095786D01*
X177576711Y-81095789D01*
X177707814Y-81183390D01*
X177707827Y-81183397D01*
X177853498Y-81243735D01*
X177853503Y-81243737D01*
X178008153Y-81274499D01*
X178008156Y-81274500D01*
X178008158Y-81274500D01*
X178165844Y-81274500D01*
X178165845Y-81274499D01*
X178320497Y-81243737D01*
X178466179Y-81183394D01*
X178597289Y-81095789D01*
X178708789Y-80984289D01*
X178708799Y-80984274D01*
X178709165Y-80983829D01*
X178709431Y-80983647D01*
X178713097Y-80979982D01*
X178713791Y-80980676D01*
X178766904Y-80944483D01*
X178836748Y-80942599D01*
X178883644Y-80969576D01*
X178885001Y-80967924D01*
X178889711Y-80971789D01*
X179020814Y-81059390D01*
X179020827Y-81059397D01*
X179166498Y-81119735D01*
X179166503Y-81119737D01*
X179321153Y-81150499D01*
X179321156Y-81150500D01*
X179321158Y-81150500D01*
X179478844Y-81150500D01*
X179478845Y-81150499D01*
X179633497Y-81119737D01*
X179779179Y-81059394D01*
X179910289Y-80971789D01*
X180021789Y-80860289D01*
X180109394Y-80729179D01*
X180169737Y-80583497D01*
X180200500Y-80428842D01*
X180200500Y-80296941D01*
X180220185Y-80229902D01*
X180272989Y-80184147D01*
X180342147Y-80174203D01*
X180405703Y-80203228D01*
X180412181Y-80209260D01*
X180452707Y-80249786D01*
X180452711Y-80249789D01*
X180583814Y-80337390D01*
X180583827Y-80337397D01*
X180729498Y-80397735D01*
X180729503Y-80397737D01*
X180884153Y-80428499D01*
X180884156Y-80428500D01*
X180884158Y-80428500D01*
X181041844Y-80428500D01*
X181041845Y-80428499D01*
X181196497Y-80397737D01*
X181342179Y-80337394D01*
X181405397Y-80295153D01*
X186610500Y-80295153D01*
X186610500Y-80452846D01*
X186641261Y-80607489D01*
X186641264Y-80607501D01*
X186701602Y-80753172D01*
X186701609Y-80753185D01*
X186789210Y-80884288D01*
X186789213Y-80884292D01*
X186900707Y-80995786D01*
X186900711Y-80995789D01*
X187031814Y-81083390D01*
X187031827Y-81083397D01*
X187177498Y-81143735D01*
X187177503Y-81143737D01*
X187332153Y-81174499D01*
X187332156Y-81174500D01*
X187332158Y-81174500D01*
X187489844Y-81174500D01*
X187489845Y-81174499D01*
X187644497Y-81143737D01*
X187790179Y-81083394D01*
X187921289Y-80995789D01*
X188032789Y-80884289D01*
X188120394Y-80753179D01*
X188180737Y-80607497D01*
X188211500Y-80452842D01*
X188211500Y-80295158D01*
X188211500Y-80295155D01*
X188211499Y-80295153D01*
X188198520Y-80229902D01*
X188180737Y-80140503D01*
X188170796Y-80116503D01*
X188120397Y-79994827D01*
X188120390Y-79994814D01*
X188032789Y-79863711D01*
X188032786Y-79863707D01*
X187921292Y-79752213D01*
X187921288Y-79752210D01*
X187790185Y-79664609D01*
X187790172Y-79664602D01*
X187644501Y-79604264D01*
X187644489Y-79604261D01*
X187489845Y-79573500D01*
X187489842Y-79573500D01*
X187332158Y-79573500D01*
X187332155Y-79573500D01*
X187177510Y-79604261D01*
X187177498Y-79604264D01*
X187031827Y-79664602D01*
X187031814Y-79664609D01*
X186900711Y-79752210D01*
X186900707Y-79752213D01*
X186789213Y-79863707D01*
X186789210Y-79863711D01*
X186701609Y-79994814D01*
X186701602Y-79994827D01*
X186641264Y-80140498D01*
X186641261Y-80140510D01*
X186610500Y-80295153D01*
X181405397Y-80295153D01*
X181473289Y-80249789D01*
X181493176Y-80229902D01*
X181521694Y-80201385D01*
X181584786Y-80138292D01*
X181584789Y-80138289D01*
X181672394Y-80007179D01*
X181732737Y-79861497D01*
X181763500Y-79706842D01*
X181763500Y-79549158D01*
X181763500Y-79549155D01*
X181763499Y-79549153D01*
X181732738Y-79394510D01*
X181732737Y-79394503D01*
X181731209Y-79390815D01*
X181672397Y-79248827D01*
X181672390Y-79248814D01*
X181584789Y-79117711D01*
X181584786Y-79117707D01*
X181473292Y-79006213D01*
X181473288Y-79006210D01*
X181342185Y-78918609D01*
X181342172Y-78918602D01*
X181196501Y-78858264D01*
X181196489Y-78858261D01*
X181041845Y-78827500D01*
X181041842Y-78827500D01*
X180884158Y-78827500D01*
X180884155Y-78827500D01*
X180729510Y-78858261D01*
X180729498Y-78858264D01*
X180583827Y-78918602D01*
X180583814Y-78918609D01*
X180452711Y-79006210D01*
X180452707Y-79006213D01*
X180341213Y-79117707D01*
X180341210Y-79117711D01*
X180253609Y-79248814D01*
X180253602Y-79248827D01*
X180193264Y-79394498D01*
X180193261Y-79394510D01*
X180162500Y-79549153D01*
X180162500Y-79681059D01*
X180142815Y-79748098D01*
X180090011Y-79793853D01*
X180020853Y-79803797D01*
X179957297Y-79774772D01*
X179950819Y-79768740D01*
X179910292Y-79728213D01*
X179910288Y-79728210D01*
X179779185Y-79640609D01*
X179779172Y-79640602D01*
X179633501Y-79580264D01*
X179633489Y-79580261D01*
X179478845Y-79549500D01*
X179478842Y-79549500D01*
X179321158Y-79549500D01*
X179321155Y-79549500D01*
X179166510Y-79580261D01*
X179166498Y-79580264D01*
X179020827Y-79640602D01*
X179020814Y-79640609D01*
X178889711Y-79728210D01*
X178889707Y-79728213D01*
X178778210Y-79839710D01*
X178777817Y-79840190D01*
X178777547Y-79840373D01*
X178773903Y-79844018D01*
X178773211Y-79843326D01*
X178720071Y-79879524D01*
X178650226Y-79881393D01*
X178603354Y-79854424D01*
X178601999Y-79856076D01*
X178597288Y-79852210D01*
X178466185Y-79764609D01*
X178466172Y-79764602D01*
X178320501Y-79704264D01*
X178320489Y-79704261D01*
X178165845Y-79673500D01*
X178165842Y-79673500D01*
X178008158Y-79673500D01*
X177988434Y-79677423D01*
X177918843Y-79671194D01*
X177876563Y-79643485D01*
X177822292Y-79589213D01*
X177822288Y-79589210D01*
X177691185Y-79501609D01*
X177691172Y-79501602D01*
X177545501Y-79441264D01*
X177545489Y-79441261D01*
X177390845Y-79410500D01*
X177390842Y-79410500D01*
X177379500Y-79410500D01*
X177312461Y-79390815D01*
X177266706Y-79338011D01*
X177255500Y-79286500D01*
X177255500Y-79172155D01*
X177255499Y-79172153D01*
X177224738Y-79017510D01*
X177224737Y-79017503D01*
X177183773Y-78918606D01*
X177164397Y-78871827D01*
X177164390Y-78871814D01*
X177076789Y-78740711D01*
X177076786Y-78740707D01*
X176965292Y-78629213D01*
X176965288Y-78629210D01*
X176834185Y-78541609D01*
X176834172Y-78541602D01*
X176688501Y-78481264D01*
X176688491Y-78481261D01*
X176534404Y-78450611D01*
X176472493Y-78418226D01*
X176437919Y-78357510D01*
X176436990Y-78353239D01*
X176419737Y-78266503D01*
X176418591Y-78263737D01*
X176359397Y-78120827D01*
X176359390Y-78120814D01*
X176271789Y-77989711D01*
X176271786Y-77989707D01*
X176160292Y-77878213D01*
X176160288Y-77878210D01*
X176029185Y-77790609D01*
X176029172Y-77790602D01*
X175883501Y-77730264D01*
X175883489Y-77730261D01*
X175728845Y-77699500D01*
X175728842Y-77699500D01*
X175571158Y-77699500D01*
X175571155Y-77699500D01*
X175416510Y-77730261D01*
X175416498Y-77730264D01*
X175270827Y-77790602D01*
X175270814Y-77790609D01*
X175139711Y-77878210D01*
X175117598Y-77900323D01*
X175056274Y-77933807D01*
X174986582Y-77928821D01*
X174930649Y-77886949D01*
X174914071Y-77856861D01*
X174584320Y-76993003D01*
X174580471Y-76983711D01*
X174492757Y-76771952D01*
X174485289Y-76702484D01*
X174516564Y-76640004D01*
X174576653Y-76604352D01*
X174607319Y-76600500D01*
X174678844Y-76600500D01*
X174678845Y-76600499D01*
X174833497Y-76569737D01*
X174979179Y-76509394D01*
X175110289Y-76421789D01*
X175221789Y-76310289D01*
X175309394Y-76179179D01*
X175369737Y-76033497D01*
X175400500Y-75878842D01*
X175400500Y-75721158D01*
X175400500Y-75721155D01*
X175400499Y-75721153D01*
X175387153Y-75654061D01*
X175369737Y-75566503D01*
X175369735Y-75566498D01*
X175309397Y-75420827D01*
X175309390Y-75420814D01*
X175221789Y-75289711D01*
X175221786Y-75289707D01*
X175110292Y-75178213D01*
X175110288Y-75178210D01*
X174979185Y-75090609D01*
X174979172Y-75090602D01*
X174833501Y-75030264D01*
X174833489Y-75030261D01*
X174678845Y-74999500D01*
X174678842Y-74999500D01*
X174521158Y-74999500D01*
X174521155Y-74999500D01*
X174366510Y-75030261D01*
X174366498Y-75030264D01*
X174220827Y-75090602D01*
X174220814Y-75090609D01*
X174089711Y-75178210D01*
X174026295Y-75241626D01*
X173964971Y-75275110D01*
X173895280Y-75270125D01*
X173839346Y-75228254D01*
X173825429Y-75204591D01*
X173519071Y-74519947D01*
X172956450Y-73351652D01*
X172934844Y-73306787D01*
X172884541Y-73209416D01*
X172659073Y-72772980D01*
X172632815Y-72722153D01*
X179715500Y-72722153D01*
X179715500Y-72879846D01*
X179746261Y-73034489D01*
X179746264Y-73034501D01*
X179806602Y-73180172D01*
X179806609Y-73180185D01*
X179894210Y-73311288D01*
X179894213Y-73311292D01*
X180005707Y-73422786D01*
X180005711Y-73422789D01*
X180136814Y-73510390D01*
X180136827Y-73510397D01*
X180282498Y-73570735D01*
X180282503Y-73570737D01*
X180437153Y-73601499D01*
X180437156Y-73601500D01*
X180437158Y-73601500D01*
X180594844Y-73601500D01*
X180594845Y-73601499D01*
X180749497Y-73570737D01*
X180895179Y-73510394D01*
X181026289Y-73422789D01*
X181137789Y-73311289D01*
X181202693Y-73214153D01*
X182527500Y-73214153D01*
X182527500Y-73371846D01*
X182558261Y-73526489D01*
X182558264Y-73526501D01*
X182618602Y-73672172D01*
X182618609Y-73672185D01*
X182706210Y-73803288D01*
X182706213Y-73803292D01*
X182817707Y-73914786D01*
X182817711Y-73914789D01*
X182948814Y-74002390D01*
X182948827Y-74002397D01*
X183094498Y-74062735D01*
X183094503Y-74062737D01*
X183249153Y-74093499D01*
X183249156Y-74093500D01*
X183249158Y-74093500D01*
X183406844Y-74093500D01*
X183406845Y-74093499D01*
X183561497Y-74062737D01*
X183707179Y-74002394D01*
X183838289Y-73914789D01*
X183949789Y-73803289D01*
X184037394Y-73672179D01*
X184097737Y-73526497D01*
X184128500Y-73371842D01*
X184128500Y-73214158D01*
X184128500Y-73214155D01*
X184128499Y-73214153D01*
X184117848Y-73160609D01*
X184097737Y-73059503D01*
X184087376Y-73034489D01*
X184037397Y-72913827D01*
X184037390Y-72913814D01*
X183949789Y-72782711D01*
X183949786Y-72782707D01*
X183838292Y-72671213D01*
X183838288Y-72671210D01*
X183707185Y-72583609D01*
X183707172Y-72583602D01*
X183561501Y-72523264D01*
X183561489Y-72523261D01*
X183406845Y-72492500D01*
X183406842Y-72492500D01*
X183249158Y-72492500D01*
X183249155Y-72492500D01*
X183094510Y-72523261D01*
X183094498Y-72523264D01*
X182948827Y-72583602D01*
X182948814Y-72583609D01*
X182817711Y-72671210D01*
X182817707Y-72671213D01*
X182706213Y-72782707D01*
X182706210Y-72782711D01*
X182618609Y-72913814D01*
X182618602Y-72913827D01*
X182558264Y-73059498D01*
X182558261Y-73059510D01*
X182527500Y-73214153D01*
X181202693Y-73214153D01*
X181225394Y-73180179D01*
X181285737Y-73034497D01*
X181316500Y-72879842D01*
X181316500Y-72722158D01*
X181316500Y-72722155D01*
X181316499Y-72722153D01*
X181306366Y-72671210D01*
X181285737Y-72567503D01*
X181258029Y-72500611D01*
X181250561Y-72431143D01*
X181281836Y-72368664D01*
X181341925Y-72333012D01*
X181411750Y-72335506D01*
X181420043Y-72338599D01*
X181543498Y-72389735D01*
X181543503Y-72389737D01*
X181698153Y-72420499D01*
X181698156Y-72420500D01*
X181698158Y-72420500D01*
X181855844Y-72420500D01*
X181855845Y-72420499D01*
X182010497Y-72389737D01*
X182156179Y-72329394D01*
X182287289Y-72241789D01*
X182398789Y-72130289D01*
X182486394Y-71999179D01*
X182546737Y-71853497D01*
X182577500Y-71698842D01*
X182577500Y-71541158D01*
X182577500Y-71541155D01*
X182577499Y-71541153D01*
X182546738Y-71386510D01*
X182546737Y-71386503D01*
X182487905Y-71244468D01*
X182486397Y-71240827D01*
X182486390Y-71240814D01*
X182398789Y-71109711D01*
X182398786Y-71109707D01*
X182287292Y-70998213D01*
X182287288Y-70998210D01*
X182156185Y-70910609D01*
X182156172Y-70910602D01*
X182010501Y-70850264D01*
X182010489Y-70850261D01*
X181855845Y-70819500D01*
X181855842Y-70819500D01*
X181698158Y-70819500D01*
X181698155Y-70819500D01*
X181543510Y-70850261D01*
X181543498Y-70850264D01*
X181397827Y-70910602D01*
X181397814Y-70910609D01*
X181266711Y-70998210D01*
X181266707Y-70998213D01*
X181155213Y-71109707D01*
X181155210Y-71109711D01*
X181067609Y-71240814D01*
X181067602Y-71240827D01*
X181007264Y-71386498D01*
X181007261Y-71386510D01*
X180976500Y-71541153D01*
X180976500Y-71698846D01*
X181007261Y-71853489D01*
X181007264Y-71853501D01*
X181034969Y-71920387D01*
X181042438Y-71989856D01*
X181011162Y-72052335D01*
X180951073Y-72087987D01*
X180881248Y-72085493D01*
X180872956Y-72082400D01*
X180749501Y-72031264D01*
X180749489Y-72031261D01*
X180594845Y-72000500D01*
X180594842Y-72000500D01*
X180437158Y-72000500D01*
X180437155Y-72000500D01*
X180282510Y-72031261D01*
X180282498Y-72031264D01*
X180136827Y-72091602D01*
X180136814Y-72091609D01*
X180005711Y-72179210D01*
X180005707Y-72179213D01*
X179894213Y-72290707D01*
X179894210Y-72290711D01*
X179806609Y-72421814D01*
X179806602Y-72421827D01*
X179746264Y-72567498D01*
X179746261Y-72567510D01*
X179715500Y-72722153D01*
X172632815Y-72722153D01*
X172316830Y-72110504D01*
X172284681Y-72052335D01*
X171665498Y-70932008D01*
X170981375Y-69772251D01*
X170264994Y-68632138D01*
X169516920Y-67512565D01*
X168737739Y-66414413D01*
X168737725Y-66414393D01*
X167928077Y-65338560D01*
X167088537Y-64285809D01*
X166854678Y-64008865D01*
X166219814Y-63257035D01*
X165322579Y-62253028D01*
X164397538Y-61274580D01*
X163445420Y-60322462D01*
X162597848Y-59521153D01*
X164899500Y-59521153D01*
X164899500Y-59678846D01*
X164930261Y-59833489D01*
X164930264Y-59833501D01*
X164990602Y-59979172D01*
X164990609Y-59979185D01*
X165078210Y-60110288D01*
X165078213Y-60110292D01*
X165189707Y-60221786D01*
X165189711Y-60221789D01*
X165320814Y-60309390D01*
X165320827Y-60309397D01*
X165466498Y-60369735D01*
X165466503Y-60369737D01*
X165621153Y-60400499D01*
X165621156Y-60400500D01*
X165621158Y-60400500D01*
X165778844Y-60400500D01*
X165778845Y-60400499D01*
X165933497Y-60369737D01*
X166079179Y-60309394D01*
X166210289Y-60221789D01*
X166321789Y-60110289D01*
X166409394Y-59979179D01*
X166469737Y-59833497D01*
X166500500Y-59678842D01*
X166500500Y-59521158D01*
X166500500Y-59521155D01*
X166500499Y-59521153D01*
X166475887Y-59397421D01*
X166469737Y-59366503D01*
X166469735Y-59366498D01*
X166409397Y-59220827D01*
X166409390Y-59220814D01*
X166321789Y-59089711D01*
X166321786Y-59089707D01*
X166210292Y-58978213D01*
X166210288Y-58978210D01*
X166079185Y-58890609D01*
X166079172Y-58890602D01*
X165933501Y-58830264D01*
X165933489Y-58830261D01*
X165778845Y-58799500D01*
X165778842Y-58799500D01*
X165621158Y-58799500D01*
X165621155Y-58799500D01*
X165466510Y-58830261D01*
X165466498Y-58830264D01*
X165320827Y-58890602D01*
X165320814Y-58890609D01*
X165189711Y-58978210D01*
X165189707Y-58978213D01*
X165078213Y-59089707D01*
X165078210Y-59089711D01*
X164990609Y-59220814D01*
X164990602Y-59220827D01*
X164930264Y-59366498D01*
X164930261Y-59366510D01*
X164899500Y-59521153D01*
X162597848Y-59521153D01*
X162466972Y-59397421D01*
X162269356Y-59220821D01*
X161832323Y-58830264D01*
X161462965Y-58500186D01*
X161012572Y-58119863D01*
X160434190Y-57631462D01*
X159381439Y-56791922D01*
X158305606Y-55982274D01*
X157207427Y-55203074D01*
X156087868Y-54455010D01*
X156087862Y-54455006D01*
X154947749Y-53738625D01*
X153787992Y-53054502D01*
X153051215Y-52647299D01*
X152609495Y-52403169D01*
X151413218Y-51785158D01*
X150200052Y-51200928D01*
X149298478Y-50797500D01*
X148970998Y-50650962D01*
X148156351Y-50313524D01*
X147726996Y-50135679D01*
X146768322Y-49769735D01*
X146469029Y-49655489D01*
X145198091Y-49210768D01*
X145198089Y-49210767D01*
X145198068Y-49210760D01*
X144954755Y-49133210D01*
X144904803Y-49117289D01*
X144784184Y-49078844D01*
X144603181Y-49021153D01*
X150699500Y-49021153D01*
X150699500Y-49178846D01*
X150730261Y-49333489D01*
X150730264Y-49333501D01*
X150790602Y-49479172D01*
X150790609Y-49479185D01*
X150878210Y-49610288D01*
X150878213Y-49610292D01*
X150989707Y-49721786D01*
X150989711Y-49721789D01*
X151120814Y-49809390D01*
X151120827Y-49809397D01*
X151266498Y-49869735D01*
X151266503Y-49869737D01*
X151421153Y-49900499D01*
X151421156Y-49900500D01*
X151421158Y-49900500D01*
X151578844Y-49900500D01*
X151578845Y-49900499D01*
X151733497Y-49869737D01*
X151879179Y-49809394D01*
X152010289Y-49721789D01*
X152121789Y-49610289D01*
X152209394Y-49479179D01*
X152269737Y-49333497D01*
X152300500Y-49178842D01*
X152300500Y-49021158D01*
X152300500Y-49021155D01*
X152300499Y-49021153D01*
X152281375Y-48925011D01*
X152269737Y-48866503D01*
X152263252Y-48850847D01*
X152209397Y-48720827D01*
X152209390Y-48720814D01*
X152121789Y-48589711D01*
X152121786Y-48589707D01*
X152010292Y-48478213D01*
X152010288Y-48478210D01*
X151879185Y-48390609D01*
X151879172Y-48390602D01*
X151733501Y-48330264D01*
X151733489Y-48330261D01*
X151578845Y-48299500D01*
X151578842Y-48299500D01*
X151421158Y-48299500D01*
X151421155Y-48299500D01*
X151266510Y-48330261D01*
X151266498Y-48330264D01*
X151120827Y-48390602D01*
X151120814Y-48390609D01*
X150989711Y-48478210D01*
X150989707Y-48478213D01*
X150878213Y-48589707D01*
X150878210Y-48589711D01*
X150790609Y-48720814D01*
X150790602Y-48720827D01*
X150730264Y-48866498D01*
X150730261Y-48866510D01*
X150699500Y-49021153D01*
X144603181Y-49021153D01*
X143915195Y-48801872D01*
X142621303Y-48429108D01*
X141990915Y-48266498D01*
X141317486Y-48092785D01*
X140811938Y-47977397D01*
X140784581Y-47971153D01*
X156149500Y-47971153D01*
X156149500Y-48128846D01*
X156180261Y-48283489D01*
X156180264Y-48283501D01*
X156240602Y-48429172D01*
X156240609Y-48429185D01*
X156328210Y-48560288D01*
X156328213Y-48560292D01*
X156439707Y-48671786D01*
X156439711Y-48671789D01*
X156570814Y-48759390D01*
X156570827Y-48759397D01*
X156716498Y-48819735D01*
X156716503Y-48819737D01*
X156773140Y-48831003D01*
X156872899Y-48850847D01*
X156934810Y-48883232D01*
X156963269Y-48925011D01*
X156988604Y-48986175D01*
X156988609Y-48986185D01*
X157076210Y-49117288D01*
X157076213Y-49117292D01*
X157187707Y-49228786D01*
X157187711Y-49228789D01*
X157318814Y-49316390D01*
X157318827Y-49316397D01*
X157464498Y-49376735D01*
X157464503Y-49376737D01*
X157619153Y-49407499D01*
X157619156Y-49407500D01*
X157619158Y-49407500D01*
X157776844Y-49407500D01*
X157776845Y-49407499D01*
X157931497Y-49376737D01*
X158077179Y-49316394D01*
X158208289Y-49228789D01*
X158319789Y-49117289D01*
X158407394Y-48986179D01*
X158413355Y-48971789D01*
X158451712Y-48879185D01*
X158467737Y-48840497D01*
X158498500Y-48685842D01*
X158498500Y-48528158D01*
X158498500Y-48528155D01*
X158498499Y-48528153D01*
X158490852Y-48489711D01*
X158467737Y-48373503D01*
X158454160Y-48340725D01*
X158442477Y-48312518D01*
X158425343Y-48271153D01*
X159749500Y-48271153D01*
X159749500Y-48428846D01*
X159780261Y-48583489D01*
X159780264Y-48583501D01*
X159840602Y-48729172D01*
X159840609Y-48729185D01*
X159928210Y-48860288D01*
X159928213Y-48860292D01*
X160039707Y-48971786D01*
X160039711Y-48971789D01*
X160170814Y-49059390D01*
X160170827Y-49059397D01*
X160310593Y-49117289D01*
X160316503Y-49119737D01*
X160471153Y-49150499D01*
X160471156Y-49150500D01*
X160471158Y-49150500D01*
X160628844Y-49150500D01*
X160628845Y-49150499D01*
X160783497Y-49119737D01*
X160929179Y-49059394D01*
X161060289Y-48971789D01*
X161110925Y-48921153D01*
X168549500Y-48921153D01*
X168549500Y-49078846D01*
X168580261Y-49233489D01*
X168580264Y-49233501D01*
X168640602Y-49379172D01*
X168640609Y-49379185D01*
X168728210Y-49510288D01*
X168728213Y-49510292D01*
X168839707Y-49621786D01*
X168839711Y-49621789D01*
X168970814Y-49709390D01*
X168970827Y-49709397D01*
X169116498Y-49769735D01*
X169116503Y-49769737D01*
X169271153Y-49800499D01*
X169271156Y-49800500D01*
X169271158Y-49800500D01*
X169428844Y-49800500D01*
X169428845Y-49800499D01*
X169583497Y-49769737D01*
X169729179Y-49709394D01*
X169860289Y-49621789D01*
X169971789Y-49510289D01*
X170059394Y-49379179D01*
X170119737Y-49233497D01*
X170150500Y-49078842D01*
X170150500Y-48921158D01*
X170150500Y-48921155D01*
X170150499Y-48921153D01*
X170142148Y-48879172D01*
X170119737Y-48766503D01*
X170106062Y-48733489D01*
X170059397Y-48620827D01*
X170059390Y-48620814D01*
X169971789Y-48489711D01*
X169971786Y-48489707D01*
X169860292Y-48378213D01*
X169860288Y-48378210D01*
X169729185Y-48290609D01*
X169729172Y-48290602D01*
X169583501Y-48230264D01*
X169583489Y-48230261D01*
X169428845Y-48199500D01*
X169428842Y-48199500D01*
X169271158Y-48199500D01*
X169271155Y-48199500D01*
X169116510Y-48230261D01*
X169116498Y-48230264D01*
X168970827Y-48290602D01*
X168970814Y-48290609D01*
X168839711Y-48378210D01*
X168839707Y-48378213D01*
X168728213Y-48489707D01*
X168728210Y-48489711D01*
X168640609Y-48620814D01*
X168640602Y-48620827D01*
X168580264Y-48766498D01*
X168580261Y-48766510D01*
X168549500Y-48921153D01*
X161110925Y-48921153D01*
X161171789Y-48860289D01*
X161198885Y-48819738D01*
X161259390Y-48729185D01*
X161259390Y-48729184D01*
X161259394Y-48729179D01*
X161262854Y-48720827D01*
X161277345Y-48685842D01*
X161319737Y-48583497D01*
X161350500Y-48428842D01*
X161350500Y-48417648D01*
X161370185Y-48350609D01*
X161422989Y-48304854D01*
X161492147Y-48294910D01*
X161498672Y-48296027D01*
X161521158Y-48300500D01*
X161678844Y-48300500D01*
X161678845Y-48300499D01*
X161833497Y-48269737D01*
X161979179Y-48209394D01*
X162110289Y-48121789D01*
X162165230Y-48066847D01*
X162226551Y-48033364D01*
X162296243Y-48038348D01*
X162326434Y-48055721D01*
X162326646Y-48055405D01*
X162331373Y-48058564D01*
X162331584Y-48058685D01*
X162331711Y-48058789D01*
X162462814Y-48146390D01*
X162462827Y-48146397D01*
X162586396Y-48197580D01*
X162608503Y-48206737D01*
X162763153Y-48237499D01*
X162763156Y-48237500D01*
X162763158Y-48237500D01*
X162920844Y-48237500D01*
X162920845Y-48237499D01*
X163075497Y-48206737D01*
X163221179Y-48146394D01*
X163352289Y-48058789D01*
X163415732Y-47995345D01*
X163477052Y-47961862D01*
X163527602Y-47961411D01*
X163548158Y-47965500D01*
X163548159Y-47965500D01*
X163705844Y-47965500D01*
X163705845Y-47965499D01*
X163860497Y-47934737D01*
X164006179Y-47874394D01*
X164137289Y-47786789D01*
X164248789Y-47675289D01*
X164314643Y-47576732D01*
X164368255Y-47531927D01*
X164437580Y-47523220D01*
X164500607Y-47553374D01*
X164532306Y-47598171D01*
X164552602Y-47647172D01*
X164552609Y-47647185D01*
X164640210Y-47778288D01*
X164640213Y-47778292D01*
X164751707Y-47889786D01*
X164751711Y-47889789D01*
X164882814Y-47977390D01*
X164882827Y-47977397D01*
X165028498Y-48037735D01*
X165028503Y-48037737D01*
X165174858Y-48066849D01*
X165183153Y-48068499D01*
X165183156Y-48068500D01*
X165183158Y-48068500D01*
X165340844Y-48068500D01*
X165340845Y-48068499D01*
X165495497Y-48037737D01*
X165641179Y-47977394D01*
X165772289Y-47889789D01*
X165883789Y-47778289D01*
X165971394Y-47647179D01*
X166031737Y-47501497D01*
X166062500Y-47346842D01*
X166062500Y-47189158D01*
X166062500Y-47189155D01*
X166062499Y-47189153D01*
X166051427Y-47133489D01*
X166031737Y-47034503D01*
X166022101Y-47011240D01*
X165971397Y-46888827D01*
X165971390Y-46888814D01*
X165883789Y-46757711D01*
X165883786Y-46757707D01*
X165772292Y-46646213D01*
X165772288Y-46646210D01*
X165641185Y-46558609D01*
X165641172Y-46558602D01*
X165495501Y-46498264D01*
X165495489Y-46498261D01*
X165340845Y-46467500D01*
X165340842Y-46467500D01*
X165183158Y-46467500D01*
X165183155Y-46467500D01*
X165028510Y-46498261D01*
X165028498Y-46498264D01*
X164882827Y-46558602D01*
X164882814Y-46558609D01*
X164751711Y-46646210D01*
X164751707Y-46646213D01*
X164640213Y-46757707D01*
X164640208Y-46757713D01*
X164574355Y-46856268D01*
X164520743Y-46901072D01*
X164451418Y-46909779D01*
X164388390Y-46879624D01*
X164356693Y-46834829D01*
X164336394Y-46785821D01*
X164336390Y-46785814D01*
X164248789Y-46654711D01*
X164248786Y-46654707D01*
X164137292Y-46543213D01*
X164137288Y-46543210D01*
X164006185Y-46455609D01*
X164006172Y-46455602D01*
X163860501Y-46395264D01*
X163860489Y-46395261D01*
X163705845Y-46364500D01*
X163705842Y-46364500D01*
X163548158Y-46364500D01*
X163548155Y-46364500D01*
X163393510Y-46395261D01*
X163393498Y-46395264D01*
X163247827Y-46455602D01*
X163247814Y-46455609D01*
X163116714Y-46543208D01*
X163053267Y-46606654D01*
X162991943Y-46640138D01*
X162941395Y-46640588D01*
X162920844Y-46636500D01*
X162920842Y-46636500D01*
X162763158Y-46636500D01*
X162763155Y-46636500D01*
X162608510Y-46667261D01*
X162608498Y-46667264D01*
X162462827Y-46727602D01*
X162462814Y-46727609D01*
X162331711Y-46815210D01*
X162331707Y-46815213D01*
X162276771Y-46870150D01*
X162215448Y-46903635D01*
X162145756Y-46898651D01*
X162115564Y-46881279D01*
X162115354Y-46881595D01*
X162110654Y-46878454D01*
X162110427Y-46878324D01*
X162110288Y-46878210D01*
X161979185Y-46790609D01*
X161979172Y-46790602D01*
X161833501Y-46730264D01*
X161833489Y-46730261D01*
X161678845Y-46699500D01*
X161678842Y-46699500D01*
X161521158Y-46699500D01*
X161444000Y-46714847D01*
X161374409Y-46708618D01*
X161319232Y-46665755D01*
X161316708Y-46662120D01*
X161261702Y-46579797D01*
X161150205Y-46468300D01*
X161150201Y-46468297D01*
X161019098Y-46380696D01*
X161019085Y-46380689D01*
X160873414Y-46320351D01*
X160873402Y-46320348D01*
X160718758Y-46289587D01*
X160718755Y-46289587D01*
X160561071Y-46289587D01*
X160561068Y-46289587D01*
X160406423Y-46320348D01*
X160406411Y-46320351D01*
X160260740Y-46380689D01*
X160260727Y-46380696D01*
X160129624Y-46468297D01*
X160129620Y-46468300D01*
X160018126Y-46579794D01*
X160018123Y-46579798D01*
X159930522Y-46710901D01*
X159930515Y-46710914D01*
X159870177Y-46856585D01*
X159870174Y-46856597D01*
X159839413Y-47011240D01*
X159839413Y-47168933D01*
X159870174Y-47323576D01*
X159870177Y-47323588D01*
X159930515Y-47469259D01*
X159930522Y-47469272D01*
X160021436Y-47605334D01*
X160042314Y-47672012D01*
X160023829Y-47739392D01*
X160006015Y-47761906D01*
X159928213Y-47839707D01*
X159928210Y-47839711D01*
X159840609Y-47970814D01*
X159840602Y-47970827D01*
X159780264Y-48116498D01*
X159780261Y-48116510D01*
X159749500Y-48271153D01*
X158425343Y-48271153D01*
X158407397Y-48227827D01*
X158407390Y-48227814D01*
X158319789Y-48096711D01*
X158319786Y-48096707D01*
X158208292Y-47985213D01*
X158208288Y-47985210D01*
X158077185Y-47897609D01*
X158077172Y-47897602D01*
X157931501Y-47837264D01*
X157931491Y-47837261D01*
X157775099Y-47806152D01*
X157713188Y-47773767D01*
X157684730Y-47731987D01*
X157659397Y-47670827D01*
X157659390Y-47670814D01*
X157571789Y-47539711D01*
X157571786Y-47539707D01*
X157460292Y-47428213D01*
X157460288Y-47428210D01*
X157329185Y-47340609D01*
X157329172Y-47340602D01*
X157183501Y-47280264D01*
X157183489Y-47280261D01*
X157028845Y-47249500D01*
X157028842Y-47249500D01*
X156871158Y-47249500D01*
X156871155Y-47249500D01*
X156716510Y-47280261D01*
X156716498Y-47280264D01*
X156570827Y-47340602D01*
X156570814Y-47340609D01*
X156439711Y-47428210D01*
X156439707Y-47428213D01*
X156328213Y-47539707D01*
X156328210Y-47539711D01*
X156240609Y-47670814D01*
X156240602Y-47670827D01*
X156180264Y-47816498D01*
X156180261Y-47816510D01*
X156149500Y-47971153D01*
X140784581Y-47971153D01*
X140004730Y-47793157D01*
X138684135Y-47530474D01*
X137356627Y-47304922D01*
X136023373Y-47116697D01*
X134685334Y-46965936D01*
X134361561Y-46938627D01*
X133887625Y-46898651D01*
X133343600Y-46852763D01*
X132780741Y-46821153D01*
X151449500Y-46821153D01*
X151449500Y-46978846D01*
X151480261Y-47133489D01*
X151480264Y-47133501D01*
X151540602Y-47279172D01*
X151540609Y-47279185D01*
X151628210Y-47410288D01*
X151628213Y-47410292D01*
X151739707Y-47521786D01*
X151739711Y-47521789D01*
X151870814Y-47609390D01*
X151870827Y-47609397D01*
X151962057Y-47647185D01*
X152016503Y-47669737D01*
X152166131Y-47699500D01*
X152171153Y-47700499D01*
X152171156Y-47700500D01*
X152171158Y-47700500D01*
X152328844Y-47700500D01*
X152328845Y-47700499D01*
X152483497Y-47669737D01*
X152629179Y-47609394D01*
X152760289Y-47521789D01*
X152871789Y-47410289D01*
X152959394Y-47279179D01*
X153019737Y-47133497D01*
X153050500Y-46978842D01*
X153050500Y-46821158D01*
X153050500Y-46821155D01*
X153050499Y-46821153D01*
X153043471Y-46785821D01*
X153019737Y-46666503D01*
X153011332Y-46646211D01*
X152959397Y-46520827D01*
X152959390Y-46520814D01*
X152871789Y-46389711D01*
X152871786Y-46389707D01*
X152760292Y-46278213D01*
X152760288Y-46278210D01*
X152629185Y-46190609D01*
X152629172Y-46190602D01*
X152483501Y-46130264D01*
X152483489Y-46130261D01*
X152328845Y-46099500D01*
X152328842Y-46099500D01*
X152171158Y-46099500D01*
X152171155Y-46099500D01*
X152016510Y-46130261D01*
X152016498Y-46130264D01*
X151870827Y-46190602D01*
X151870814Y-46190609D01*
X151739711Y-46278210D01*
X151739707Y-46278213D01*
X151628213Y-46389707D01*
X151628210Y-46389711D01*
X151540609Y-46520814D01*
X151540602Y-46520827D01*
X151480264Y-46666498D01*
X151480261Y-46666510D01*
X151449500Y-46821153D01*
X132780741Y-46821153D01*
X132618115Y-46812020D01*
X131999207Y-46777263D01*
X130653257Y-46739500D01*
X130653250Y-46739500D01*
X129306750Y-46739500D01*
X129306743Y-46739500D01*
X127960792Y-46777263D01*
X127285038Y-46815213D01*
X126616400Y-46852763D01*
X126616388Y-46852763D01*
X126616388Y-46852764D01*
X125274665Y-46965936D01*
X123936626Y-47116697D01*
X122603372Y-47304922D01*
X121275864Y-47530474D01*
X119955269Y-47793157D01*
X118642522Y-48092783D01*
X118642516Y-48092784D01*
X118642514Y-48092785D01*
X118533804Y-48120827D01*
X117338696Y-48429108D01*
X116044804Y-48801872D01*
X114761931Y-49210760D01*
X114280639Y-49379172D01*
X113490971Y-49655489D01*
X113490958Y-49655493D01*
X113490955Y-49655495D01*
X112233003Y-50135679D01*
X110988995Y-50650965D01*
X109759947Y-51200928D01*
X108546781Y-51785158D01*
X107350504Y-52403169D01*
X106392863Y-52932439D01*
X106296377Y-52985766D01*
X106172003Y-53054505D01*
X105012256Y-53738622D01*
X103872131Y-54455010D01*
X102752572Y-55203074D01*
X101654393Y-55982274D01*
X100578560Y-56791922D01*
X99525809Y-57631462D01*
X98497041Y-58500180D01*
X97493029Y-59397419D01*
X96514562Y-60322479D01*
X95562479Y-61274562D01*
X94637419Y-62253029D01*
X93740180Y-63257041D01*
X92871462Y-64285809D01*
X92031922Y-65338560D01*
X91222274Y-66414393D01*
X90443074Y-67512572D01*
X89695010Y-68632131D01*
X89695006Y-68632138D01*
X88978625Y-69772251D01*
X88294502Y-70932008D01*
X88257913Y-70998211D01*
X87643169Y-72110504D01*
X87025158Y-73306781D01*
X86440928Y-74519947D01*
X85890965Y-75748995D01*
X85375679Y-76993003D01*
X84913650Y-78203394D01*
X84895489Y-78250971D01*
X84793790Y-78541609D01*
X84450760Y-79521931D01*
X84041872Y-80804804D01*
X83669108Y-82098696D01*
X83332783Y-83402522D01*
X83033157Y-84715269D01*
X82770474Y-86035864D01*
X82544922Y-87363372D01*
X82356697Y-88696626D01*
X82205936Y-90034665D01*
X82092764Y-91376388D01*
X82017263Y-92720792D01*
X81979789Y-94056445D01*
X81979500Y-94066743D01*
X81979500Y-95413257D01*
X82017263Y-96759207D01*
X82047870Y-97304211D01*
X82088505Y-98027785D01*
X82092764Y-98103611D01*
X82205936Y-99445334D01*
X82356697Y-100783373D01*
X82544922Y-102116627D01*
X82770474Y-103444135D01*
X83033159Y-104764738D01*
X83081746Y-104977617D01*
X83077472Y-105047356D01*
X83036174Y-105103713D01*
X82970961Y-105128796D01*
X82957377Y-105129160D01*
X56218182Y-104378825D01*
X56151721Y-104357268D01*
X56107465Y-104303201D01*
X56098689Y-104270819D01*
X56089725Y-104201690D01*
X55996280Y-103481028D01*
X55995952Y-103478244D01*
X55913153Y-102701693D01*
X55816763Y-101797675D01*
X55816511Y-101795029D01*
X55675551Y-100110783D01*
X55675349Y-100107975D01*
X55673108Y-100071153D01*
X78049500Y-100071153D01*
X78049500Y-100228846D01*
X78080261Y-100383489D01*
X78080264Y-100383501D01*
X78140602Y-100529172D01*
X78140609Y-100529185D01*
X78228210Y-100660288D01*
X78228213Y-100660292D01*
X78339707Y-100771786D01*
X78339711Y-100771789D01*
X78470814Y-100859390D01*
X78470827Y-100859397D01*
X78616498Y-100919735D01*
X78616503Y-100919737D01*
X78771153Y-100950499D01*
X78771156Y-100950500D01*
X78771158Y-100950500D01*
X78928844Y-100950500D01*
X78928845Y-100950499D01*
X79083497Y-100919737D01*
X79229179Y-100859394D01*
X79360289Y-100771789D01*
X79471789Y-100660289D01*
X79559394Y-100529179D01*
X79619737Y-100383497D01*
X79650500Y-100228842D01*
X79650500Y-100071158D01*
X79650500Y-100071155D01*
X79650499Y-100071153D01*
X79619738Y-99916510D01*
X79619737Y-99916503D01*
X79619735Y-99916498D01*
X79559397Y-99770827D01*
X79559390Y-99770814D01*
X79471789Y-99639711D01*
X79471786Y-99639707D01*
X79360292Y-99528213D01*
X79360288Y-99528210D01*
X79229185Y-99440609D01*
X79229172Y-99440602D01*
X79083501Y-99380264D01*
X79083489Y-99380261D01*
X78928845Y-99349500D01*
X78928842Y-99349500D01*
X78771158Y-99349500D01*
X78771155Y-99349500D01*
X78616510Y-99380261D01*
X78616498Y-99380264D01*
X78470827Y-99440602D01*
X78470814Y-99440609D01*
X78339711Y-99528210D01*
X78339707Y-99528213D01*
X78228213Y-99639707D01*
X78228210Y-99639711D01*
X78140609Y-99770814D01*
X78140602Y-99770827D01*
X78080264Y-99916498D01*
X78080261Y-99916510D01*
X78049500Y-100071153D01*
X55673108Y-100071153D01*
X55572700Y-98421037D01*
X55572562Y-98418235D01*
X55557698Y-98027785D01*
X55508244Y-96728729D01*
X55508199Y-96727347D01*
X55507198Y-96689863D01*
X55507161Y-96685248D01*
X55507756Y-96628757D01*
X55490550Y-96512133D01*
X55473346Y-96395514D01*
X55473345Y-96395512D01*
X55473345Y-96395509D01*
X55402910Y-96170502D01*
X55298181Y-95959266D01*
X55282500Y-95937169D01*
X55254841Y-95898193D01*
X55232096Y-95832129D01*
X55248579Y-95764430D01*
X55252901Y-95756944D01*
X55272392Y-95723186D01*
X55306500Y-95595892D01*
X55306500Y-95464108D01*
X55272392Y-95336814D01*
X55206500Y-95222686D01*
X55196495Y-95212681D01*
X55163010Y-95151358D01*
X55167994Y-95081666D01*
X55192088Y-95044177D01*
X55191551Y-95043765D01*
X55196496Y-95037319D01*
X55196497Y-95037319D01*
X55196500Y-95037314D01*
X55262392Y-94923186D01*
X55296500Y-94795892D01*
X55296500Y-94664108D01*
X55262392Y-94536814D01*
X55196500Y-94422686D01*
X55196495Y-94422681D01*
X55196493Y-94422678D01*
X55191553Y-94416240D01*
X55192557Y-94415469D01*
X55163010Y-94361358D01*
X55167994Y-94291666D01*
X55192090Y-94254172D01*
X55191553Y-94253760D01*
X55196492Y-94247323D01*
X55196495Y-94247319D01*
X55196500Y-94247314D01*
X55262392Y-94133186D01*
X55296500Y-94005892D01*
X55296500Y-93874108D01*
X55262392Y-93746814D01*
X55262391Y-93746813D01*
X55262391Y-93746811D01*
X55249829Y-93725054D01*
X55243159Y-93713502D01*
X55226686Y-93645604D01*
X55249537Y-93579577D01*
X55250784Y-93577857D01*
X55285646Y-93530749D01*
X55394542Y-93321984D01*
X55395372Y-93319519D01*
X55469616Y-93098817D01*
X55471595Y-93087169D01*
X55499790Y-92921153D01*
X77449500Y-92921153D01*
X77449500Y-93078846D01*
X77480261Y-93233489D01*
X77480264Y-93233501D01*
X77540602Y-93379172D01*
X77540609Y-93379185D01*
X77628210Y-93510288D01*
X77628213Y-93510292D01*
X77739707Y-93621786D01*
X77739711Y-93621789D01*
X77870814Y-93709390D01*
X77870827Y-93709397D01*
X78016498Y-93769735D01*
X78016503Y-93769737D01*
X78171153Y-93800499D01*
X78171156Y-93800500D01*
X78171158Y-93800500D01*
X78328844Y-93800500D01*
X78328845Y-93800499D01*
X78483497Y-93769737D01*
X78629179Y-93709394D01*
X78760289Y-93621789D01*
X78871789Y-93510289D01*
X78959394Y-93379179D01*
X79019737Y-93233497D01*
X79050500Y-93078842D01*
X79050500Y-92921158D01*
X79050500Y-92921155D01*
X79050499Y-92921153D01*
X79038802Y-92862349D01*
X79019737Y-92766503D01*
X79000803Y-92720792D01*
X78959397Y-92620827D01*
X78959390Y-92620814D01*
X78871789Y-92489711D01*
X78871786Y-92489707D01*
X78760292Y-92378213D01*
X78760288Y-92378210D01*
X78629185Y-92290609D01*
X78629172Y-92290602D01*
X78483501Y-92230264D01*
X78483489Y-92230261D01*
X78328845Y-92199500D01*
X78328842Y-92199500D01*
X78171158Y-92199500D01*
X78171155Y-92199500D01*
X78016510Y-92230261D01*
X78016498Y-92230264D01*
X77870827Y-92290602D01*
X77870814Y-92290609D01*
X77739711Y-92378210D01*
X77739707Y-92378213D01*
X77628213Y-92489707D01*
X77628210Y-92489711D01*
X77540609Y-92620814D01*
X77540602Y-92620827D01*
X77480264Y-92766498D01*
X77480261Y-92766510D01*
X77449500Y-92921153D01*
X55499790Y-92921153D01*
X55509041Y-92866678D01*
X55510339Y-92754184D01*
X55574544Y-91065310D01*
X55574682Y-91062527D01*
X55677306Y-89374866D01*
X55677509Y-89372054D01*
X55734016Y-88696633D01*
X55818477Y-87687076D01*
X55818729Y-87684424D01*
X55997963Y-86003108D01*
X55998291Y-86000330D01*
X56010481Y-85906315D01*
X56215703Y-84323484D01*
X56216094Y-84320728D01*
X56224802Y-84263757D01*
X56471558Y-82649337D01*
X56471988Y-82646721D01*
X56765408Y-80981413D01*
X56765909Y-80978748D01*
X57097083Y-79320673D01*
X57097660Y-79317948D01*
X57466451Y-77667788D01*
X57467066Y-77665179D01*
X57873288Y-76023768D01*
X57873969Y-76021145D01*
X58317372Y-74389497D01*
X58318137Y-74386806D01*
X58338047Y-74319615D01*
X60087573Y-74319615D01*
X60109794Y-74531024D01*
X60109794Y-74531027D01*
X60109795Y-74531028D01*
X60139798Y-74643000D01*
X60164813Y-74736353D01*
X60251274Y-74930548D01*
X60251276Y-74930551D01*
X60367047Y-75108824D01*
X60367051Y-75108829D01*
X60509287Y-75266797D01*
X60509290Y-75266800D01*
X60674491Y-75400576D01*
X60858585Y-75506862D01*
X61057036Y-75583040D01*
X61057038Y-75583040D01*
X61057039Y-75583041D01*
X61264967Y-75627237D01*
X61776838Y-75654062D01*
X61988246Y-75631841D01*
X62193576Y-75576822D01*
X62387771Y-75490361D01*
X62566050Y-75374585D01*
X62691470Y-75261656D01*
X78062905Y-75261656D01*
X78062905Y-75261664D01*
X78065853Y-75289707D01*
X78085126Y-75473071D01*
X78085126Y-75473074D01*
X78085127Y-75473075D01*
X78133623Y-75654062D01*
X78140145Y-75678400D01*
X78226606Y-75872595D01*
X78226608Y-75872598D01*
X78342379Y-76050871D01*
X78342383Y-76050876D01*
X78457914Y-76179185D01*
X78484622Y-76208847D01*
X78649823Y-76342623D01*
X78833917Y-76448909D01*
X79032368Y-76525087D01*
X79032370Y-76525087D01*
X79032371Y-76525088D01*
X79240299Y-76569284D01*
X79752170Y-76596109D01*
X79963578Y-76573888D01*
X80168908Y-76518869D01*
X80363103Y-76432408D01*
X80541382Y-76316632D01*
X80699355Y-76174392D01*
X80833131Y-76009191D01*
X80939417Y-75825097D01*
X81015596Y-75626643D01*
X81059792Y-75418715D01*
X81070917Y-75206432D01*
X81048696Y-74995023D01*
X80993677Y-74789694D01*
X80907216Y-74595499D01*
X80830043Y-74476663D01*
X80791442Y-74417222D01*
X80791438Y-74417217D01*
X80649202Y-74259249D01*
X80649200Y-74259247D01*
X80483999Y-74125471D01*
X80299905Y-74019185D01*
X80299903Y-74019184D01*
X80299901Y-74019183D01*
X80101451Y-73943006D01*
X80101454Y-73943006D01*
X79893527Y-73898810D01*
X79893517Y-73898809D01*
X79381658Y-73871985D01*
X79381649Y-73871985D01*
X79297241Y-73880857D01*
X79170243Y-73894206D01*
X79170240Y-73894206D01*
X79170238Y-73894207D01*
X78964915Y-73949224D01*
X78845503Y-74002390D01*
X78807786Y-74019183D01*
X78770715Y-74035688D01*
X78592442Y-74151459D01*
X78592437Y-74151463D01*
X78434469Y-74293699D01*
X78300692Y-74458902D01*
X78300687Y-74458909D01*
X78194403Y-74643000D01*
X78118226Y-74841448D01*
X78074030Y-75049374D01*
X78074029Y-75049383D01*
X78062905Y-75261656D01*
X62691470Y-75261656D01*
X62724023Y-75232345D01*
X62857799Y-75067144D01*
X62964085Y-74883050D01*
X63040264Y-74684596D01*
X63084460Y-74476668D01*
X63095585Y-74264385D01*
X63073364Y-74052976D01*
X63018345Y-73847647D01*
X62931884Y-73653452D01*
X62849441Y-73526501D01*
X62816110Y-73475175D01*
X62816106Y-73475170D01*
X62673870Y-73317202D01*
X62666567Y-73311288D01*
X62508667Y-73183424D01*
X62324573Y-73077138D01*
X62324571Y-73077137D01*
X62324569Y-73077136D01*
X62126119Y-73000959D01*
X62126122Y-73000959D01*
X61918195Y-72956763D01*
X61918185Y-72956762D01*
X61406326Y-72929938D01*
X61406317Y-72929938D01*
X61321909Y-72938810D01*
X61194911Y-72952159D01*
X61194908Y-72952159D01*
X61194906Y-72952160D01*
X60989583Y-73007177D01*
X60928240Y-73034489D01*
X60832454Y-73077136D01*
X60795383Y-73093641D01*
X60617110Y-73209412D01*
X60617105Y-73209416D01*
X60459137Y-73351652D01*
X60401535Y-73422786D01*
X60330590Y-73510397D01*
X60325360Y-73516855D01*
X60325355Y-73516862D01*
X60219071Y-73700953D01*
X60142894Y-73899401D01*
X60098698Y-74107327D01*
X60098697Y-74107336D01*
X60090467Y-74264385D01*
X60087573Y-74319615D01*
X58338047Y-74319615D01*
X58348968Y-74282761D01*
X58405050Y-74093499D01*
X58798525Y-72765634D01*
X58799310Y-72763091D01*
X59316465Y-71153135D01*
X59317302Y-71150630D01*
X59870891Y-69552941D01*
X59871833Y-69550319D01*
X59895329Y-69487187D01*
X60461565Y-67965715D01*
X60462574Y-67963097D01*
X60642006Y-67512572D01*
X61088208Y-66392229D01*
X61089228Y-66389751D01*
X61750430Y-64833463D01*
X61751501Y-64831019D01*
X62447915Y-63290154D01*
X62449035Y-63287750D01*
X63180295Y-61763118D01*
X63181479Y-61760720D01*
X63438261Y-61255153D01*
X86073500Y-61255153D01*
X86073500Y-61412846D01*
X86104260Y-61567488D01*
X86104262Y-61567493D01*
X86104263Y-61567497D01*
X86134907Y-61641479D01*
X86141274Y-61656851D01*
X86148742Y-61726320D01*
X86141274Y-61751752D01*
X86121167Y-61800296D01*
X86121164Y-61800304D01*
X86090403Y-61954952D01*
X86090403Y-62112645D01*
X86121164Y-62267288D01*
X86121167Y-62267300D01*
X86181505Y-62412971D01*
X86181512Y-62412984D01*
X86269113Y-62544087D01*
X86269116Y-62544091D01*
X86380610Y-62655585D01*
X86380614Y-62655588D01*
X86511717Y-62743189D01*
X86511730Y-62743196D01*
X86657401Y-62803534D01*
X86657406Y-62803536D01*
X86812056Y-62834298D01*
X86812059Y-62834299D01*
X86812061Y-62834299D01*
X86969747Y-62834299D01*
X86969748Y-62834298D01*
X87124400Y-62803536D01*
X87270082Y-62743193D01*
X87401192Y-62655588D01*
X87512692Y-62544088D01*
X87600297Y-62412978D01*
X87660640Y-62267296D01*
X87691403Y-62112641D01*
X87691403Y-61954957D01*
X87691403Y-61954954D01*
X87691402Y-61954952D01*
X87660641Y-61800309D01*
X87660640Y-61800304D01*
X87660640Y-61800302D01*
X87623627Y-61710946D01*
X87616159Y-61641479D01*
X87623629Y-61616041D01*
X87643735Y-61567502D01*
X87643735Y-61567501D01*
X87643737Y-61567497D01*
X87674500Y-61412842D01*
X87674500Y-61255158D01*
X87674500Y-61255155D01*
X87674499Y-61255153D01*
X87643737Y-61100503D01*
X87643735Y-61100498D01*
X87583397Y-60954827D01*
X87583390Y-60954814D01*
X87495789Y-60823711D01*
X87495786Y-60823707D01*
X87384292Y-60712213D01*
X87384288Y-60712210D01*
X87253185Y-60624609D01*
X87253172Y-60624602D01*
X87107501Y-60564264D01*
X87107489Y-60564261D01*
X86952845Y-60533500D01*
X86952842Y-60533500D01*
X86795158Y-60533500D01*
X86795155Y-60533500D01*
X86640510Y-60564261D01*
X86640498Y-60564264D01*
X86494827Y-60624602D01*
X86494814Y-60624609D01*
X86363711Y-60712210D01*
X86363707Y-60712213D01*
X86252213Y-60823707D01*
X86252210Y-60823711D01*
X86164609Y-60954814D01*
X86164602Y-60954827D01*
X86104264Y-61100498D01*
X86104261Y-61100510D01*
X86073500Y-61255153D01*
X63438261Y-61255153D01*
X63947207Y-60253111D01*
X63948440Y-60250751D01*
X64748230Y-58760959D01*
X64749588Y-58758500D01*
X64895923Y-58500186D01*
X65583000Y-57287342D01*
X65584332Y-57285051D01*
X66450999Y-55833173D01*
X66452466Y-55830779D01*
X66484530Y-55779737D01*
X67017605Y-54931153D01*
X76349500Y-54931153D01*
X76349500Y-55088846D01*
X76380261Y-55243489D01*
X76380264Y-55243501D01*
X76440602Y-55389172D01*
X76440609Y-55389185D01*
X76528210Y-55520288D01*
X76528213Y-55520292D01*
X76639707Y-55631786D01*
X76639711Y-55631789D01*
X76770814Y-55719390D01*
X76770827Y-55719397D01*
X76916498Y-55779735D01*
X76916503Y-55779737D01*
X77053593Y-55807006D01*
X77071153Y-55810499D01*
X77071156Y-55810500D01*
X77071158Y-55810500D01*
X77228844Y-55810500D01*
X77228845Y-55810499D01*
X77383497Y-55779737D01*
X77529179Y-55719394D01*
X77660289Y-55631789D01*
X77771789Y-55520289D01*
X77859394Y-55389179D01*
X77919737Y-55243497D01*
X77924182Y-55221153D01*
X80699500Y-55221153D01*
X80699500Y-55378846D01*
X80730261Y-55533489D01*
X80730264Y-55533501D01*
X80790602Y-55679172D01*
X80790609Y-55679185D01*
X80878210Y-55810288D01*
X80878213Y-55810292D01*
X80989707Y-55921786D01*
X80989711Y-55921789D01*
X81120814Y-56009390D01*
X81120827Y-56009397D01*
X81266498Y-56069735D01*
X81266503Y-56069737D01*
X81421153Y-56100499D01*
X81421156Y-56100500D01*
X81421158Y-56100500D01*
X81578844Y-56100500D01*
X81578845Y-56100499D01*
X81733497Y-56069737D01*
X81879179Y-56009394D01*
X82010289Y-55921789D01*
X82121789Y-55810289D01*
X82123985Y-55807002D01*
X88289412Y-55807002D01*
X88289412Y-55807011D01*
X88300536Y-56019283D01*
X88300537Y-56019292D01*
X88344733Y-56227218D01*
X88420909Y-56425665D01*
X88420912Y-56425670D01*
X88527199Y-56609765D01*
X88527202Y-56609769D01*
X88527205Y-56609773D01*
X88660972Y-56774963D01*
X88660974Y-56774964D01*
X88818945Y-56917201D01*
X88818950Y-56917206D01*
X88997225Y-57032979D01*
X89191418Y-57119440D01*
X89191422Y-57119442D01*
X89381040Y-57170250D01*
X89440700Y-57206615D01*
X89471229Y-57269462D01*
X89462934Y-57338838D01*
X89458091Y-57348875D01*
X89371785Y-57508938D01*
X89326375Y-57678407D01*
X89321274Y-57853774D01*
X89356751Y-58025588D01*
X89356752Y-58025590D01*
X89399051Y-58119858D01*
X89399054Y-58119863D01*
X89399058Y-58119871D01*
X90049054Y-59245693D01*
X90049056Y-59245698D01*
X90049060Y-59245704D01*
X90049061Y-59245705D01*
X90109549Y-59329473D01*
X90109551Y-59329475D01*
X90109553Y-59329477D01*
X90185902Y-59397421D01*
X90240609Y-59446106D01*
X90395032Y-59529371D01*
X90564496Y-59574779D01*
X90739864Y-59579881D01*
X90739864Y-59579880D01*
X90739866Y-59579881D01*
X90854408Y-59556229D01*
X90911681Y-59544404D01*
X91005949Y-59502104D01*
X92391604Y-58702094D01*
X92475372Y-58641607D01*
X92592004Y-58510547D01*
X92675270Y-58356123D01*
X92720678Y-58186659D01*
X92725779Y-58011292D01*
X92725778Y-58011291D01*
X92725779Y-58011289D01*
X92690302Y-57839475D01*
X92690302Y-57839474D01*
X92648003Y-57745206D01*
X92609436Y-57678407D01*
X92422438Y-57354517D01*
X91997998Y-56619368D01*
X91997997Y-56619365D01*
X91991060Y-56609758D01*
X91937505Y-56535591D01*
X91937501Y-56535588D01*
X91937500Y-56535586D01*
X91806445Y-56418958D01*
X91652022Y-56335693D01*
X91482555Y-56290284D01*
X91300784Y-56284996D01*
X91234345Y-56263370D01*
X91190145Y-56209257D01*
X91182217Y-56139839D01*
X91184611Y-56128971D01*
X91235423Y-55939339D01*
X91257642Y-55727930D01*
X91246517Y-55515648D01*
X91202321Y-55307720D01*
X91202320Y-55307717D01*
X91126144Y-55109270D01*
X91126139Y-55109261D01*
X91019858Y-54925178D01*
X91019855Y-54925172D01*
X90886078Y-54759971D01*
X90728106Y-54617732D01*
X90728103Y-54617729D01*
X90549828Y-54501956D01*
X90355635Y-54415495D01*
X90355628Y-54415492D01*
X90150301Y-54360475D01*
X89979102Y-54342483D01*
X89938893Y-54338257D01*
X89938891Y-54338257D01*
X89726615Y-54349381D01*
X89726606Y-54349382D01*
X89518680Y-54393578D01*
X89320233Y-54469754D01*
X89320224Y-54469759D01*
X88876332Y-54726040D01*
X88876317Y-54726050D01*
X88711127Y-54859817D01*
X88711126Y-54859819D01*
X88568889Y-55017790D01*
X88568884Y-55017795D01*
X88453111Y-55196070D01*
X88366650Y-55390263D01*
X88366647Y-55390270D01*
X88311630Y-55595597D01*
X88289412Y-55807002D01*
X82123985Y-55807002D01*
X82142205Y-55779735D01*
X82168930Y-55739739D01*
X82168931Y-55739737D01*
X82209387Y-55679190D01*
X82209390Y-55679185D01*
X82209394Y-55679179D01*
X82269737Y-55533497D01*
X82300500Y-55378842D01*
X82300500Y-55221158D01*
X82300500Y-55221155D01*
X82300499Y-55221153D01*
X82277338Y-55104717D01*
X82269737Y-55066503D01*
X82213676Y-54931158D01*
X82209397Y-54920827D01*
X82209390Y-54920814D01*
X82121789Y-54789711D01*
X82121786Y-54789707D01*
X82010292Y-54678213D01*
X82010288Y-54678210D01*
X81879185Y-54590609D01*
X81879172Y-54590602D01*
X81733501Y-54530264D01*
X81733489Y-54530261D01*
X81578845Y-54499500D01*
X81578842Y-54499500D01*
X81421158Y-54499500D01*
X81421155Y-54499500D01*
X81266510Y-54530261D01*
X81266498Y-54530264D01*
X81120827Y-54590602D01*
X81120814Y-54590609D01*
X80989711Y-54678210D01*
X80989707Y-54678213D01*
X80878213Y-54789707D01*
X80878210Y-54789711D01*
X80790609Y-54920814D01*
X80790602Y-54920827D01*
X80730264Y-55066498D01*
X80730261Y-55066510D01*
X80699500Y-55221153D01*
X77924182Y-55221153D01*
X77930205Y-55190874D01*
X77930205Y-55190873D01*
X77946438Y-55109261D01*
X77950500Y-55088842D01*
X77950500Y-54931158D01*
X77950500Y-54931155D01*
X77950499Y-54931153D01*
X77936309Y-54859817D01*
X77919737Y-54776503D01*
X77912889Y-54759971D01*
X77859397Y-54630827D01*
X77859390Y-54630814D01*
X77771789Y-54499711D01*
X77771786Y-54499707D01*
X77660292Y-54388213D01*
X77660288Y-54388210D01*
X77529185Y-54300609D01*
X77529172Y-54300602D01*
X77383501Y-54240264D01*
X77383489Y-54240261D01*
X77228845Y-54209500D01*
X77228842Y-54209500D01*
X77071158Y-54209500D01*
X77071155Y-54209500D01*
X76916510Y-54240261D01*
X76916498Y-54240264D01*
X76770827Y-54300602D01*
X76770814Y-54300609D01*
X76639711Y-54388210D01*
X76639707Y-54388213D01*
X76528213Y-54499707D01*
X76528210Y-54499711D01*
X76440609Y-54630814D01*
X76440602Y-54630827D01*
X76380264Y-54776498D01*
X76380261Y-54776510D01*
X76349500Y-54931153D01*
X67017605Y-54931153D01*
X67351909Y-54398985D01*
X67353368Y-54396721D01*
X68285154Y-52985704D01*
X68286651Y-52983493D01*
X69250283Y-51594005D01*
X69251820Y-51591842D01*
X70246774Y-50224642D01*
X70248349Y-50222528D01*
X71274170Y-48878243D01*
X71275849Y-48876094D01*
X71639671Y-48421153D01*
X86999500Y-48421153D01*
X86999500Y-48578846D01*
X87030261Y-48733489D01*
X87030264Y-48733501D01*
X87090602Y-48879172D01*
X87090609Y-48879185D01*
X87178210Y-49010288D01*
X87178213Y-49010292D01*
X87289707Y-49121786D01*
X87289711Y-49121789D01*
X87420814Y-49209390D01*
X87420827Y-49209397D01*
X87566498Y-49269735D01*
X87566503Y-49269737D01*
X87721153Y-49300499D01*
X87721156Y-49300500D01*
X87721158Y-49300500D01*
X87878844Y-49300500D01*
X87878845Y-49300499D01*
X88033497Y-49269737D01*
X88179179Y-49209394D01*
X88310289Y-49121789D01*
X88421789Y-49010289D01*
X88509394Y-48879179D01*
X88569737Y-48733497D01*
X88600500Y-48578842D01*
X88600500Y-48421158D01*
X88600500Y-48421155D01*
X88600499Y-48421153D01*
X88578890Y-48312518D01*
X88569737Y-48266503D01*
X88557723Y-48237499D01*
X88509397Y-48120827D01*
X88509390Y-48120814D01*
X88421789Y-47989711D01*
X88421786Y-47989707D01*
X88310292Y-47878213D01*
X88310288Y-47878210D01*
X88179185Y-47790609D01*
X88179172Y-47790602D01*
X88033501Y-47730264D01*
X88033489Y-47730261D01*
X87878845Y-47699500D01*
X87878842Y-47699500D01*
X87721158Y-47699500D01*
X87721155Y-47699500D01*
X87566510Y-47730261D01*
X87566498Y-47730264D01*
X87420827Y-47790602D01*
X87420814Y-47790609D01*
X87289711Y-47878210D01*
X87289707Y-47878213D01*
X87178213Y-47989707D01*
X87178210Y-47989711D01*
X87090609Y-48120814D01*
X87090602Y-48120827D01*
X87030264Y-48266498D01*
X87030261Y-48266510D01*
X86999500Y-48421153D01*
X71639671Y-48421153D01*
X72331860Y-47555605D01*
X72333581Y-47553501D01*
X73419425Y-46257254D01*
X73421170Y-46255219D01*
X74336074Y-45212153D01*
X83949115Y-45212153D01*
X83949115Y-45369846D01*
X83979876Y-45524489D01*
X83979879Y-45524501D01*
X84040217Y-45670172D01*
X84040224Y-45670185D01*
X84127825Y-45801288D01*
X84127828Y-45801292D01*
X84239322Y-45912786D01*
X84239326Y-45912789D01*
X84370429Y-46000390D01*
X84370442Y-46000397D01*
X84516113Y-46060735D01*
X84516118Y-46060737D01*
X84627790Y-46082950D01*
X84670768Y-46091499D01*
X84670771Y-46091500D01*
X84670773Y-46091500D01*
X84828459Y-46091500D01*
X84828460Y-46091499D01*
X84983112Y-46060737D01*
X85128794Y-46000394D01*
X85259904Y-45912789D01*
X85371404Y-45801289D01*
X85459009Y-45670179D01*
X85519352Y-45524497D01*
X85547634Y-45382314D01*
X87720637Y-45382314D01*
X87720637Y-45540007D01*
X87751398Y-45694650D01*
X87751401Y-45694662D01*
X87811739Y-45840333D01*
X87811746Y-45840346D01*
X87899347Y-45971449D01*
X87899350Y-45971453D01*
X88010844Y-46082947D01*
X88010848Y-46082950D01*
X88141951Y-46170551D01*
X88141964Y-46170558D01*
X88287635Y-46230896D01*
X88287640Y-46230898D01*
X88420406Y-46257307D01*
X88442290Y-46261660D01*
X88442293Y-46261661D01*
X88442295Y-46261661D01*
X88599981Y-46261661D01*
X88599982Y-46261660D01*
X88754634Y-46230898D01*
X88900316Y-46170555D01*
X89031426Y-46082950D01*
X89142926Y-45971450D01*
X89230531Y-45840340D01*
X89290874Y-45694658D01*
X89321637Y-45540003D01*
X89321637Y-45382319D01*
X89321635Y-45382313D01*
X89321533Y-45381270D01*
X89321637Y-45380721D01*
X89321637Y-45376227D01*
X89322489Y-45376227D01*
X89334550Y-45312624D01*
X89341834Y-45300221D01*
X89368516Y-45260289D01*
X89429394Y-45169179D01*
X89489737Y-45023497D01*
X89520500Y-44868842D01*
X89520500Y-44711158D01*
X89512543Y-44671158D01*
X89512542Y-44671153D01*
X149549500Y-44671153D01*
X149549500Y-44828846D01*
X149580261Y-44983489D01*
X149580264Y-44983501D01*
X149640602Y-45129172D01*
X149640609Y-45129185D01*
X149728210Y-45260288D01*
X149728213Y-45260292D01*
X149839707Y-45371786D01*
X149839711Y-45371789D01*
X149970814Y-45459390D01*
X149970827Y-45459397D01*
X150116498Y-45519735D01*
X150116503Y-45519737D01*
X150271153Y-45550499D01*
X150271156Y-45550500D01*
X150271158Y-45550500D01*
X150428844Y-45550500D01*
X150428845Y-45550499D01*
X150583497Y-45519737D01*
X150729179Y-45459394D01*
X150860289Y-45371789D01*
X150971789Y-45260289D01*
X151059394Y-45129179D01*
X151119737Y-44983497D01*
X151150500Y-44828842D01*
X151150500Y-44721153D01*
X171299500Y-44721153D01*
X171299500Y-44878846D01*
X171330261Y-45033489D01*
X171330264Y-45033501D01*
X171390602Y-45179172D01*
X171390609Y-45179185D01*
X171478210Y-45310288D01*
X171478213Y-45310292D01*
X171589707Y-45421786D01*
X171589711Y-45421789D01*
X171720814Y-45509390D01*
X171720827Y-45509397D01*
X171820060Y-45550500D01*
X171866503Y-45569737D01*
X172012984Y-45598874D01*
X172021153Y-45600499D01*
X172021156Y-45600500D01*
X172021158Y-45600500D01*
X172178844Y-45600500D01*
X172178845Y-45600499D01*
X172333497Y-45569737D01*
X172479179Y-45509394D01*
X172610289Y-45421789D01*
X172721789Y-45310289D01*
X172809394Y-45179179D01*
X172869737Y-45033497D01*
X172900500Y-44878842D01*
X172900500Y-44721158D01*
X172900500Y-44721155D01*
X172900499Y-44721153D01*
X172890167Y-44669210D01*
X172869737Y-44566503D01*
X172850998Y-44521263D01*
X172809397Y-44420827D01*
X172809390Y-44420814D01*
X172721789Y-44289711D01*
X172721786Y-44289707D01*
X172610292Y-44178213D01*
X172610288Y-44178210D01*
X172479185Y-44090609D01*
X172479172Y-44090602D01*
X172333501Y-44030264D01*
X172333489Y-44030261D01*
X172178845Y-43999500D01*
X172178842Y-43999500D01*
X172021158Y-43999500D01*
X172021155Y-43999500D01*
X171866510Y-44030261D01*
X171866498Y-44030264D01*
X171720827Y-44090602D01*
X171720814Y-44090609D01*
X171589711Y-44178210D01*
X171589707Y-44178213D01*
X171478213Y-44289707D01*
X171478210Y-44289711D01*
X171390609Y-44420814D01*
X171390602Y-44420827D01*
X171330264Y-44566498D01*
X171330261Y-44566510D01*
X171299500Y-44721153D01*
X151150500Y-44721153D01*
X151150500Y-44671158D01*
X151150500Y-44671155D01*
X151150499Y-44671153D01*
X151129684Y-44566510D01*
X151119737Y-44516503D01*
X151075965Y-44410827D01*
X151059397Y-44370827D01*
X151059390Y-44370814D01*
X150971789Y-44239711D01*
X150971786Y-44239707D01*
X150860292Y-44128213D01*
X150860288Y-44128210D01*
X150729185Y-44040609D01*
X150729172Y-44040602D01*
X150583501Y-43980264D01*
X150583489Y-43980261D01*
X150428845Y-43949500D01*
X150428842Y-43949500D01*
X150271158Y-43949500D01*
X150271155Y-43949500D01*
X150116510Y-43980261D01*
X150116498Y-43980264D01*
X149970827Y-44040602D01*
X149970814Y-44040609D01*
X149839711Y-44128210D01*
X149839707Y-44128213D01*
X149728213Y-44239707D01*
X149728210Y-44239711D01*
X149640609Y-44370814D01*
X149640602Y-44370827D01*
X149580264Y-44516498D01*
X149580261Y-44516510D01*
X149549500Y-44671153D01*
X89512542Y-44671153D01*
X89494730Y-44581606D01*
X89489737Y-44556503D01*
X89475140Y-44521263D01*
X89429397Y-44410827D01*
X89429390Y-44410814D01*
X89341789Y-44279711D01*
X89341786Y-44279707D01*
X89230292Y-44168213D01*
X89230288Y-44168210D01*
X89099185Y-44080609D01*
X89099172Y-44080602D01*
X88953501Y-44020264D01*
X88953489Y-44020261D01*
X88798845Y-43989500D01*
X88798842Y-43989500D01*
X88641158Y-43989500D01*
X88641155Y-43989500D01*
X88486510Y-44020261D01*
X88486498Y-44020264D01*
X88340827Y-44080602D01*
X88340814Y-44080609D01*
X88209711Y-44168210D01*
X88209707Y-44168213D01*
X88098213Y-44279707D01*
X88098210Y-44279711D01*
X88010609Y-44410814D01*
X88010602Y-44410827D01*
X87950264Y-44556498D01*
X87950261Y-44556510D01*
X87919500Y-44711153D01*
X87919500Y-44868850D01*
X87919604Y-44869908D01*
X87919500Y-44870456D01*
X87919500Y-44874934D01*
X87918650Y-44874934D01*
X87906578Y-44938553D01*
X87899302Y-44950940D01*
X87811746Y-45081975D01*
X87811739Y-45081988D01*
X87751401Y-45227659D01*
X87751398Y-45227671D01*
X87720637Y-45382314D01*
X85547634Y-45382314D01*
X85550115Y-45369842D01*
X85550115Y-45212158D01*
X85550115Y-45212155D01*
X85550114Y-45212153D01*
X85541564Y-45169172D01*
X85519352Y-45057503D01*
X85509410Y-45033501D01*
X85459012Y-44911827D01*
X85459005Y-44911814D01*
X85371404Y-44780711D01*
X85371401Y-44780707D01*
X85259907Y-44669213D01*
X85259903Y-44669210D01*
X85128800Y-44581609D01*
X85128787Y-44581602D01*
X84983116Y-44521264D01*
X84983104Y-44521261D01*
X84828460Y-44490500D01*
X84828457Y-44490500D01*
X84670773Y-44490500D01*
X84670770Y-44490500D01*
X84516125Y-44521261D01*
X84516113Y-44521264D01*
X84370442Y-44581602D01*
X84370429Y-44581609D01*
X84239326Y-44669210D01*
X84239322Y-44669213D01*
X84127828Y-44780707D01*
X84127825Y-44780711D01*
X84040224Y-44911814D01*
X84040217Y-44911827D01*
X83979879Y-45057498D01*
X83979876Y-45057510D01*
X83949115Y-45212153D01*
X74336074Y-45212153D01*
X74536195Y-44983998D01*
X74537934Y-44982060D01*
X75681549Y-43736535D01*
X75683421Y-43734542D01*
X76855027Y-42515365D01*
X76856946Y-42513414D01*
X78055951Y-41321199D01*
X78057957Y-41319251D01*
X78113287Y-41266681D01*
X79283722Y-40154631D01*
X79285715Y-40152779D01*
X79617988Y-39851153D01*
X88939500Y-39851153D01*
X88939500Y-40008846D01*
X88970261Y-40163489D01*
X88970264Y-40163501D01*
X89030603Y-40309174D01*
X89039843Y-40323003D01*
X89060719Y-40389681D01*
X89058356Y-40416083D01*
X89029500Y-40561153D01*
X89029500Y-40718846D01*
X89060261Y-40873489D01*
X89060264Y-40873501D01*
X89120602Y-41019172D01*
X89120609Y-41019185D01*
X89208210Y-41150288D01*
X89208213Y-41150292D01*
X89319707Y-41261786D01*
X89319711Y-41261789D01*
X89450814Y-41349390D01*
X89450827Y-41349397D01*
X89581914Y-41403694D01*
X89596503Y-41409737D01*
X89751153Y-41440499D01*
X89751156Y-41440500D01*
X89751158Y-41440500D01*
X89908844Y-41440500D01*
X89908845Y-41440499D01*
X90063497Y-41409737D01*
X90081684Y-41402203D01*
X90151149Y-41394733D01*
X90176584Y-41402201D01*
X90206587Y-41414629D01*
X90361237Y-41445391D01*
X90361240Y-41445392D01*
X90361242Y-41445392D01*
X90518928Y-41445392D01*
X90518929Y-41445391D01*
X90673581Y-41414629D01*
X90801830Y-41361507D01*
X90819256Y-41354289D01*
X90819256Y-41354288D01*
X90819263Y-41354286D01*
X90950373Y-41266681D01*
X91061873Y-41155181D01*
X91149478Y-41024071D01*
X91209821Y-40878389D01*
X91240584Y-40723734D01*
X91240584Y-40566050D01*
X91240584Y-40566047D01*
X91240583Y-40566045D01*
X91239610Y-40561153D01*
X91209821Y-40411395D01*
X91181097Y-40342050D01*
X91173629Y-40272586D01*
X91181099Y-40247147D01*
X91209579Y-40178392D01*
X91209579Y-40178391D01*
X91209581Y-40178387D01*
X91240344Y-40023732D01*
X91240344Y-39866048D01*
X91240344Y-39866045D01*
X91240343Y-39866043D01*
X91223066Y-39779185D01*
X91209581Y-39711393D01*
X91183203Y-39647711D01*
X99626500Y-39647711D01*
X99626500Y-39890288D01*
X99658161Y-40130785D01*
X99720947Y-40365104D01*
X99802156Y-40561158D01*
X99813776Y-40589212D01*
X99935064Y-40799289D01*
X99935066Y-40799292D01*
X99935067Y-40799293D01*
X100082733Y-40991736D01*
X100082739Y-40991743D01*
X100254256Y-41163260D01*
X100254263Y-41163266D01*
X100322745Y-41215814D01*
X100446711Y-41310936D01*
X100656788Y-41432224D01*
X100880900Y-41525054D01*
X101115211Y-41587838D01*
X101295586Y-41611584D01*
X101355711Y-41619500D01*
X101355712Y-41619500D01*
X101598289Y-41619500D01*
X101646388Y-41613167D01*
X101838789Y-41587838D01*
X102073100Y-41525054D01*
X102297212Y-41432224D01*
X102507289Y-41310936D01*
X102699738Y-41163265D01*
X102871265Y-40991738D01*
X103018936Y-40799289D01*
X103051609Y-40742698D01*
X111851500Y-40742698D01*
X111851500Y-40915301D01*
X111878499Y-41085765D01*
X111931831Y-41249907D01*
X111971011Y-41326800D01*
X112009431Y-41402204D01*
X112010191Y-41403694D01*
X112111630Y-41543316D01*
X112233683Y-41665369D01*
X112364336Y-41760292D01*
X112373309Y-41766811D01*
X112527090Y-41845167D01*
X112527092Y-41845168D01*
X112609163Y-41871834D01*
X112691236Y-41898501D01*
X112770187Y-41911005D01*
X112861699Y-41925500D01*
X112861704Y-41925500D01*
X113034301Y-41925500D01*
X113116939Y-41912410D01*
X113204764Y-41898501D01*
X113368910Y-41845167D01*
X113522691Y-41766811D01*
X113601086Y-41709853D01*
X113662316Y-41665369D01*
X113662318Y-41665366D01*
X113662322Y-41665364D01*
X113784364Y-41543322D01*
X113804103Y-41516153D01*
X161621500Y-41516153D01*
X161621500Y-41673846D01*
X161652261Y-41828489D01*
X161652264Y-41828501D01*
X161712602Y-41974172D01*
X161712609Y-41974185D01*
X161800210Y-42105288D01*
X161800213Y-42105292D01*
X161911707Y-42216786D01*
X161911711Y-42216789D01*
X162042814Y-42304390D01*
X162042827Y-42304397D01*
X162188498Y-42364735D01*
X162188503Y-42364737D01*
X162343153Y-42395499D01*
X162343156Y-42395500D01*
X162343158Y-42395500D01*
X162500844Y-42395500D01*
X162500845Y-42395499D01*
X162655497Y-42364737D01*
X162801179Y-42304394D01*
X162932289Y-42216789D01*
X163043789Y-42105289D01*
X163131394Y-41974179D01*
X163191737Y-41828497D01*
X163222500Y-41673842D01*
X163222500Y-41516158D01*
X163222500Y-41516155D01*
X163222499Y-41516153D01*
X163191738Y-41361507D01*
X163191735Y-41361498D01*
X163131397Y-41215827D01*
X163131390Y-41215814D01*
X163043789Y-41084711D01*
X163043786Y-41084707D01*
X162932292Y-40973213D01*
X162932288Y-40973210D01*
X162801185Y-40885609D01*
X162801172Y-40885602D01*
X162655501Y-40825264D01*
X162655489Y-40825261D01*
X162500845Y-40794500D01*
X162500842Y-40794500D01*
X162343158Y-40794500D01*
X162343155Y-40794500D01*
X162188510Y-40825261D01*
X162188498Y-40825264D01*
X162042827Y-40885602D01*
X162042814Y-40885609D01*
X161911711Y-40973210D01*
X161911707Y-40973213D01*
X161800213Y-41084707D01*
X161800210Y-41084711D01*
X161712609Y-41215814D01*
X161712602Y-41215827D01*
X161652264Y-41361498D01*
X161652262Y-41361507D01*
X161621500Y-41516153D01*
X113804103Y-41516153D01*
X113885811Y-41403691D01*
X113964167Y-41249910D01*
X114017501Y-41085764D01*
X114035327Y-40973213D01*
X114044500Y-40915301D01*
X114044500Y-40742698D01*
X114028792Y-40643532D01*
X114017501Y-40572236D01*
X113964167Y-40408090D01*
X113885811Y-40254309D01*
X113846717Y-40200500D01*
X113784369Y-40114683D01*
X113662316Y-39992630D01*
X113522694Y-39891191D01*
X113522693Y-39891190D01*
X113522691Y-39891189D01*
X113376329Y-39816613D01*
X113368907Y-39812831D01*
X113204765Y-39759499D01*
X113034301Y-39732500D01*
X113034296Y-39732500D01*
X112861704Y-39732500D01*
X112861699Y-39732500D01*
X112691234Y-39759499D01*
X112527092Y-39812831D01*
X112373305Y-39891191D01*
X112233683Y-39992630D01*
X112111630Y-40114683D01*
X112010191Y-40254305D01*
X111931831Y-40408092D01*
X111878499Y-40572234D01*
X111851500Y-40742698D01*
X103051609Y-40742698D01*
X103140224Y-40589212D01*
X103233054Y-40365100D01*
X103295838Y-40130789D01*
X103327500Y-39890288D01*
X103327500Y-39647712D01*
X103295838Y-39407211D01*
X103233054Y-39172900D01*
X103233051Y-39172892D01*
X103192598Y-39075228D01*
X103174961Y-39032648D01*
X140039500Y-39032648D01*
X140039500Y-39237351D01*
X140071522Y-39439534D01*
X140134781Y-39634223D01*
X140184857Y-39732500D01*
X140208637Y-39779172D01*
X140227715Y-39816613D01*
X140348028Y-39982213D01*
X140492786Y-40126971D01*
X140647749Y-40239556D01*
X140658390Y-40247287D01*
X140751249Y-40294601D01*
X140840776Y-40340218D01*
X140840778Y-40340218D01*
X140840781Y-40340220D01*
X140917354Y-40365100D01*
X141035465Y-40403477D01*
X141115056Y-40416083D01*
X141237648Y-40435500D01*
X141237649Y-40435500D01*
X141442351Y-40435500D01*
X141442352Y-40435500D01*
X141644534Y-40403477D01*
X141839219Y-40340220D01*
X142021610Y-40247287D01*
X142116437Y-40178392D01*
X142187213Y-40126971D01*
X142187215Y-40126968D01*
X142187219Y-40126966D01*
X142331966Y-39982219D01*
X142331968Y-39982215D01*
X142331971Y-39982213D01*
X142398101Y-39891191D01*
X142452287Y-39816610D01*
X142545220Y-39634219D01*
X142608477Y-39439534D01*
X142640500Y-39237352D01*
X142640500Y-39032648D01*
X143039500Y-39032648D01*
X143039500Y-39237351D01*
X143071522Y-39439534D01*
X143134781Y-39634223D01*
X143184857Y-39732500D01*
X143208637Y-39779172D01*
X143227715Y-39816613D01*
X143348028Y-39982213D01*
X143492786Y-40126971D01*
X143647749Y-40239556D01*
X143658390Y-40247287D01*
X143751249Y-40294601D01*
X143840776Y-40340218D01*
X143840778Y-40340218D01*
X143840781Y-40340220D01*
X143917354Y-40365100D01*
X144035465Y-40403477D01*
X144115056Y-40416083D01*
X144237648Y-40435500D01*
X144237649Y-40435500D01*
X144442351Y-40435500D01*
X144442352Y-40435500D01*
X144644534Y-40403477D01*
X144839219Y-40340220D01*
X145021610Y-40247287D01*
X145116437Y-40178392D01*
X145187213Y-40126971D01*
X145187215Y-40126968D01*
X145187219Y-40126966D01*
X145331966Y-39982219D01*
X145331968Y-39982215D01*
X145331971Y-39982213D01*
X145398101Y-39891191D01*
X145452287Y-39816610D01*
X145545220Y-39634219D01*
X145608477Y-39439534D01*
X145627227Y-39321153D01*
X159249500Y-39321153D01*
X159249500Y-39478846D01*
X159280261Y-39633489D01*
X159280264Y-39633501D01*
X159340602Y-39779172D01*
X159340609Y-39779185D01*
X159428210Y-39910288D01*
X159428213Y-39910292D01*
X159539707Y-40021786D01*
X159539711Y-40021789D01*
X159670814Y-40109390D01*
X159670827Y-40109397D01*
X159801419Y-40163489D01*
X159816503Y-40169737D01*
X159971153Y-40200499D01*
X159971156Y-40200500D01*
X159971158Y-40200500D01*
X160128844Y-40200500D01*
X160128845Y-40200499D01*
X160283497Y-40169737D01*
X160429179Y-40109394D01*
X160560289Y-40021789D01*
X160671789Y-39910289D01*
X160759394Y-39779179D01*
X160819737Y-39633497D01*
X160850500Y-39478842D01*
X160850500Y-39321158D01*
X160850500Y-39321155D01*
X160850499Y-39321153D01*
X160833830Y-39237352D01*
X160819737Y-39166503D01*
X160817152Y-39160263D01*
X160759397Y-39020827D01*
X160759390Y-39020814D01*
X160671789Y-38889711D01*
X160671786Y-38889707D01*
X160560292Y-38778213D01*
X160560288Y-38778210D01*
X160429185Y-38690609D01*
X160429172Y-38690602D01*
X160283501Y-38630264D01*
X160283489Y-38630261D01*
X160128845Y-38599500D01*
X160128842Y-38599500D01*
X159971158Y-38599500D01*
X159971155Y-38599500D01*
X159816510Y-38630261D01*
X159816498Y-38630264D01*
X159670827Y-38690602D01*
X159670814Y-38690609D01*
X159539711Y-38778210D01*
X159539707Y-38778213D01*
X159428213Y-38889707D01*
X159428210Y-38889711D01*
X159340609Y-39020814D01*
X159340602Y-39020827D01*
X159280264Y-39166498D01*
X159280261Y-39166510D01*
X159249500Y-39321153D01*
X145627227Y-39321153D01*
X145640500Y-39237352D01*
X145640500Y-39032648D01*
X145608477Y-38830466D01*
X145545220Y-38635781D01*
X145545218Y-38635778D01*
X145545218Y-38635776D01*
X145499608Y-38546262D01*
X145452287Y-38453390D01*
X145437844Y-38433511D01*
X145331971Y-38287786D01*
X145187213Y-38143028D01*
X145021613Y-38022715D01*
X145021612Y-38022714D01*
X145021610Y-38022713D01*
X144964653Y-37993691D01*
X144839223Y-37929781D01*
X144644534Y-37866522D01*
X144469995Y-37838878D01*
X144442352Y-37834500D01*
X144237648Y-37834500D01*
X144213329Y-37838351D01*
X144035465Y-37866522D01*
X143840776Y-37929781D01*
X143658386Y-38022715D01*
X143492786Y-38143028D01*
X143348028Y-38287786D01*
X143227715Y-38453386D01*
X143134781Y-38635776D01*
X143071522Y-38830465D01*
X143039500Y-39032648D01*
X142640500Y-39032648D01*
X142608477Y-38830466D01*
X142545220Y-38635781D01*
X142545218Y-38635778D01*
X142545218Y-38635776D01*
X142499608Y-38546262D01*
X142452287Y-38453390D01*
X142437844Y-38433511D01*
X142331971Y-38287786D01*
X142187213Y-38143028D01*
X142021613Y-38022715D01*
X142021612Y-38022714D01*
X142021610Y-38022713D01*
X141964653Y-37993691D01*
X141839223Y-37929781D01*
X141644534Y-37866522D01*
X141469995Y-37838878D01*
X141442352Y-37834500D01*
X141237648Y-37834500D01*
X141213329Y-37838351D01*
X141035465Y-37866522D01*
X140840776Y-37929781D01*
X140658386Y-38022715D01*
X140492786Y-38143028D01*
X140348028Y-38287786D01*
X140227715Y-38453386D01*
X140134781Y-38635776D01*
X140071522Y-38830465D01*
X140039500Y-39032648D01*
X103174961Y-39032648D01*
X103140227Y-38948794D01*
X103140222Y-38948785D01*
X103018936Y-38738711D01*
X102871265Y-38546262D01*
X102871260Y-38546256D01*
X102699743Y-38374739D01*
X102699736Y-38374733D01*
X102507293Y-38227067D01*
X102507292Y-38227066D01*
X102507289Y-38227064D01*
X102297212Y-38105776D01*
X102297205Y-38105773D01*
X102073104Y-38012947D01*
X101838785Y-37950161D01*
X101598289Y-37918500D01*
X101598288Y-37918500D01*
X101355712Y-37918500D01*
X101355711Y-37918500D01*
X101115214Y-37950161D01*
X100880895Y-38012947D01*
X100656794Y-38105773D01*
X100656785Y-38105777D01*
X100446706Y-38227067D01*
X100254263Y-38374733D01*
X100254256Y-38374739D01*
X100082739Y-38546256D01*
X100082733Y-38546263D01*
X99935067Y-38738706D01*
X99813777Y-38948785D01*
X99813773Y-38948794D01*
X99720947Y-39172895D01*
X99658161Y-39407214D01*
X99626500Y-39647711D01*
X91183203Y-39647711D01*
X91177312Y-39633489D01*
X91149241Y-39565717D01*
X91149234Y-39565704D01*
X91061633Y-39434601D01*
X91061630Y-39434597D01*
X90950136Y-39323103D01*
X90950132Y-39323100D01*
X90819029Y-39235499D01*
X90819016Y-39235492D01*
X90673345Y-39175154D01*
X90673333Y-39175151D01*
X90518689Y-39144390D01*
X90518686Y-39144390D01*
X90361002Y-39144390D01*
X90360999Y-39144390D01*
X90206349Y-39175151D01*
X90206341Y-39175154D01*
X90155344Y-39196277D01*
X90085875Y-39203744D01*
X90060442Y-39196276D01*
X89973498Y-39160263D01*
X89973488Y-39160260D01*
X89818845Y-39129500D01*
X89818842Y-39129500D01*
X89661158Y-39129500D01*
X89661155Y-39129500D01*
X89506510Y-39160261D01*
X89506498Y-39160264D01*
X89360827Y-39220602D01*
X89360814Y-39220609D01*
X89229711Y-39308210D01*
X89229707Y-39308213D01*
X89118213Y-39419707D01*
X89118210Y-39419711D01*
X89030609Y-39550814D01*
X89030602Y-39550827D01*
X88970264Y-39696498D01*
X88970261Y-39696510D01*
X88939500Y-39851153D01*
X79617988Y-39851153D01*
X80537712Y-39016258D01*
X80539717Y-39014480D01*
X81817236Y-37906706D01*
X81819261Y-37904989D01*
X82727755Y-37152698D01*
X108261500Y-37152698D01*
X108261500Y-37325301D01*
X108288499Y-37495765D01*
X108341831Y-37659907D01*
X108420191Y-37813694D01*
X108521630Y-37953316D01*
X108643683Y-38075369D01*
X108774336Y-38170292D01*
X108783309Y-38176811D01*
X108908768Y-38240736D01*
X108937092Y-38255168D01*
X109019163Y-38281834D01*
X109101236Y-38308501D01*
X109180187Y-38321005D01*
X109271699Y-38335500D01*
X109271704Y-38335500D01*
X109444301Y-38335500D01*
X109526939Y-38322410D01*
X109614764Y-38308501D01*
X109778910Y-38255167D01*
X109932691Y-38176811D01*
X110030463Y-38105776D01*
X110072316Y-38075369D01*
X110072318Y-38075366D01*
X110072322Y-38075364D01*
X110194364Y-37953322D01*
X110194366Y-37953318D01*
X110194369Y-37953316D01*
X110238853Y-37892086D01*
X110295811Y-37813691D01*
X110374167Y-37659910D01*
X110427501Y-37495764D01*
X110441410Y-37407939D01*
X110454500Y-37325301D01*
X110454500Y-37152698D01*
X111851500Y-37152698D01*
X111851500Y-37325301D01*
X111878499Y-37495765D01*
X111931831Y-37659907D01*
X112010191Y-37813694D01*
X112111630Y-37953316D01*
X112233683Y-38075369D01*
X112364336Y-38170292D01*
X112373309Y-38176811D01*
X112498768Y-38240736D01*
X112527092Y-38255168D01*
X112609163Y-38281834D01*
X112691236Y-38308501D01*
X112770187Y-38321005D01*
X112861699Y-38335500D01*
X112861704Y-38335500D01*
X113034301Y-38335500D01*
X113116939Y-38322410D01*
X113204764Y-38308501D01*
X113368910Y-38255167D01*
X113522691Y-38176811D01*
X113620463Y-38105776D01*
X113662316Y-38075369D01*
X113662318Y-38075366D01*
X113662322Y-38075364D01*
X113784364Y-37953322D01*
X113784366Y-37953318D01*
X113784369Y-37953316D01*
X113828853Y-37892086D01*
X113885811Y-37813691D01*
X113964167Y-37659910D01*
X114017501Y-37495764D01*
X114031410Y-37407939D01*
X114044500Y-37325301D01*
X114044500Y-37152698D01*
X114017701Y-36983501D01*
X114017501Y-36982236D01*
X113966929Y-36826590D01*
X113964168Y-36818092D01*
X113938474Y-36767665D01*
X113885811Y-36664309D01*
X113879298Y-36655345D01*
X113863031Y-36632954D01*
X113863028Y-36632951D01*
X113829861Y-36587300D01*
X113814497Y-36566153D01*
X120734500Y-36566153D01*
X120734500Y-36723846D01*
X120765261Y-36878489D01*
X120765264Y-36878501D01*
X120825602Y-37024172D01*
X120825609Y-37024185D01*
X120913210Y-37155288D01*
X120913213Y-37155292D01*
X121024707Y-37266786D01*
X121024711Y-37266789D01*
X121155814Y-37354390D01*
X121155827Y-37354397D01*
X121301498Y-37414735D01*
X121301503Y-37414737D01*
X121456153Y-37445499D01*
X121456156Y-37445500D01*
X121456158Y-37445500D01*
X121613844Y-37445500D01*
X121613845Y-37445499D01*
X121768497Y-37414737D01*
X121914179Y-37354394D01*
X122045289Y-37266789D01*
X122156789Y-37155289D01*
X122244394Y-37024179D01*
X122304737Y-36878497D01*
X122335500Y-36723842D01*
X122335500Y-36566158D01*
X122335500Y-36566155D01*
X122335499Y-36566153D01*
X122304738Y-36411510D01*
X122304737Y-36411503D01*
X122259044Y-36301189D01*
X122244397Y-36265827D01*
X122244390Y-36265814D01*
X122156789Y-36134711D01*
X122156786Y-36134707D01*
X122045292Y-36023213D01*
X122045288Y-36023210D01*
X121914185Y-35935609D01*
X121914172Y-35935602D01*
X121768501Y-35875264D01*
X121768489Y-35875261D01*
X121613845Y-35844500D01*
X121613842Y-35844500D01*
X121456158Y-35844500D01*
X121456155Y-35844500D01*
X121301510Y-35875261D01*
X121301498Y-35875264D01*
X121155827Y-35935602D01*
X121155814Y-35935609D01*
X121024711Y-36023210D01*
X121024707Y-36023213D01*
X120913213Y-36134707D01*
X120913210Y-36134711D01*
X120825609Y-36265814D01*
X120825602Y-36265827D01*
X120765264Y-36411498D01*
X120765261Y-36411510D01*
X120734500Y-36566153D01*
X113814497Y-36566153D01*
X113784364Y-36524678D01*
X113662322Y-36402636D01*
X113662316Y-36402630D01*
X113522694Y-36301191D01*
X113522693Y-36301190D01*
X113522691Y-36301189D01*
X113402027Y-36239707D01*
X113368907Y-36222831D01*
X113204765Y-36169499D01*
X113034301Y-36142500D01*
X113034296Y-36142500D01*
X112861704Y-36142500D01*
X112861699Y-36142500D01*
X112691234Y-36169499D01*
X112527092Y-36222831D01*
X112373305Y-36301191D01*
X112233683Y-36402630D01*
X112111630Y-36524683D01*
X112010191Y-36664305D01*
X111931831Y-36818092D01*
X111878499Y-36982234D01*
X111851500Y-37152698D01*
X110454500Y-37152698D01*
X110427701Y-36983501D01*
X110427501Y-36982236D01*
X110376929Y-36826590D01*
X110374168Y-36818092D01*
X110348474Y-36767665D01*
X110295811Y-36664309D01*
X110289292Y-36655336D01*
X110194369Y-36524683D01*
X110072316Y-36402630D01*
X109932694Y-36301191D01*
X109932693Y-36301190D01*
X109932691Y-36301189D01*
X109812027Y-36239707D01*
X109778907Y-36222831D01*
X109614765Y-36169499D01*
X109444301Y-36142500D01*
X109444296Y-36142500D01*
X109271704Y-36142500D01*
X109271699Y-36142500D01*
X109101234Y-36169499D01*
X108937092Y-36222831D01*
X108783305Y-36301191D01*
X108643683Y-36402630D01*
X108521630Y-36524683D01*
X108420191Y-36664305D01*
X108341831Y-36818092D01*
X108288499Y-36982234D01*
X108261500Y-37152698D01*
X82727755Y-37152698D01*
X83121629Y-36826545D01*
X83123720Y-36824853D01*
X84450276Y-35776287D01*
X84452422Y-35774631D01*
X85373297Y-35080153D01*
X118627500Y-35080153D01*
X118627500Y-35237846D01*
X118658261Y-35392489D01*
X118658264Y-35392501D01*
X118718602Y-35538172D01*
X118718609Y-35538185D01*
X118806210Y-35669288D01*
X118806213Y-35669292D01*
X118917707Y-35780786D01*
X118917711Y-35780789D01*
X119048814Y-35868390D01*
X119048827Y-35868397D01*
X119181804Y-35923477D01*
X119194503Y-35928737D01*
X119349153Y-35959499D01*
X119349156Y-35959500D01*
X119349158Y-35959500D01*
X119506844Y-35959500D01*
X119506845Y-35959499D01*
X119661497Y-35928737D01*
X119790596Y-35875263D01*
X119807172Y-35868397D01*
X119807172Y-35868396D01*
X119807179Y-35868394D01*
X119938289Y-35780789D01*
X120049789Y-35669289D01*
X120137394Y-35538179D01*
X120197737Y-35392497D01*
X120228500Y-35237842D01*
X120228500Y-35194153D01*
X158399500Y-35194153D01*
X158399500Y-35351846D01*
X158430261Y-35506489D01*
X158430264Y-35506501D01*
X158490602Y-35652172D01*
X158490609Y-35652185D01*
X158578210Y-35783288D01*
X158578213Y-35783292D01*
X158689707Y-35894786D01*
X158689711Y-35894789D01*
X158820814Y-35982390D01*
X158820827Y-35982397D01*
X158966498Y-36042735D01*
X158966503Y-36042737D01*
X159121153Y-36073499D01*
X159121156Y-36073500D01*
X159121158Y-36073500D01*
X159278844Y-36073500D01*
X159278845Y-36073499D01*
X159433497Y-36042737D01*
X159457811Y-36032666D01*
X163654559Y-36032666D01*
X163654559Y-36190359D01*
X163685320Y-36345002D01*
X163685323Y-36345014D01*
X163745661Y-36490685D01*
X163745668Y-36490698D01*
X163833269Y-36621801D01*
X163833272Y-36621805D01*
X163944766Y-36733299D01*
X163944770Y-36733302D01*
X164075873Y-36820903D01*
X164075886Y-36820910D01*
X164214925Y-36878501D01*
X164221562Y-36881250D01*
X164376212Y-36912012D01*
X164376215Y-36912013D01*
X164376217Y-36912013D01*
X164533903Y-36912013D01*
X164533904Y-36912012D01*
X164688556Y-36881250D01*
X164801225Y-36834580D01*
X164834231Y-36820910D01*
X164834231Y-36820909D01*
X164834238Y-36820907D01*
X164965348Y-36733302D01*
X164974808Y-36723842D01*
X165009821Y-36688830D01*
X165071144Y-36655345D01*
X165140836Y-36660329D01*
X165196769Y-36702201D01*
X165221186Y-36767665D01*
X165221502Y-36776511D01*
X165221502Y-36828846D01*
X165252263Y-36983489D01*
X165252266Y-36983501D01*
X165312604Y-37129172D01*
X165312611Y-37129185D01*
X165400212Y-37260288D01*
X165400215Y-37260292D01*
X165511709Y-37371786D01*
X165511713Y-37371789D01*
X165642816Y-37459390D01*
X165642829Y-37459397D01*
X165788500Y-37519735D01*
X165788505Y-37519737D01*
X165943155Y-37550499D01*
X165943158Y-37550500D01*
X165943160Y-37550500D01*
X166100846Y-37550500D01*
X166100847Y-37550499D01*
X166255499Y-37519737D01*
X166401181Y-37459394D01*
X166532291Y-37371789D01*
X166643791Y-37260289D01*
X166731396Y-37129179D01*
X166791739Y-36983497D01*
X166822502Y-36828842D01*
X166822502Y-36671158D01*
X166822502Y-36671155D01*
X166822501Y-36671153D01*
X166791740Y-36516510D01*
X166791739Y-36516503D01*
X166748245Y-36411498D01*
X166731399Y-36370827D01*
X166731392Y-36370814D01*
X166643791Y-36239711D01*
X166643788Y-36239707D01*
X166532294Y-36128213D01*
X166532290Y-36128210D01*
X166401187Y-36040609D01*
X166401174Y-36040602D01*
X166255503Y-35980264D01*
X166255491Y-35980261D01*
X166100847Y-35949500D01*
X166100844Y-35949500D01*
X165943160Y-35949500D01*
X165943157Y-35949500D01*
X165788512Y-35980261D01*
X165788500Y-35980264D01*
X165642829Y-36040602D01*
X165642816Y-36040609D01*
X165511713Y-36128210D01*
X165511709Y-36128213D01*
X165467240Y-36172683D01*
X165405917Y-36206168D01*
X165336225Y-36201184D01*
X165280292Y-36159312D01*
X165255875Y-36093848D01*
X165255559Y-36085002D01*
X165255559Y-36032668D01*
X165255558Y-36032666D01*
X165245557Y-35982390D01*
X165224796Y-35878016D01*
X165220812Y-35868397D01*
X165164456Y-35732340D01*
X165164449Y-35732327D01*
X165076848Y-35601224D01*
X165076845Y-35601220D01*
X164965351Y-35489726D01*
X164965347Y-35489723D01*
X164834244Y-35402122D01*
X164834231Y-35402115D01*
X164688560Y-35341777D01*
X164688548Y-35341774D01*
X164533904Y-35311013D01*
X164533901Y-35311013D01*
X164376217Y-35311013D01*
X164376214Y-35311013D01*
X164221569Y-35341774D01*
X164221557Y-35341777D01*
X164075886Y-35402115D01*
X164075873Y-35402122D01*
X163944770Y-35489723D01*
X163944766Y-35489726D01*
X163833272Y-35601220D01*
X163833269Y-35601224D01*
X163745668Y-35732327D01*
X163745661Y-35732340D01*
X163685323Y-35878011D01*
X163685320Y-35878023D01*
X163654559Y-36032666D01*
X159457811Y-36032666D01*
X159579179Y-35982394D01*
X159613444Y-35959499D01*
X159667355Y-35923477D01*
X159683075Y-35912972D01*
X159710289Y-35894789D01*
X159821789Y-35783289D01*
X159909394Y-35652179D01*
X159969737Y-35506497D01*
X160000500Y-35351842D01*
X160000500Y-35194158D01*
X160000500Y-35194155D01*
X160000499Y-35194153D01*
X159969738Y-35039510D01*
X159969737Y-35039503D01*
X159922515Y-34925498D01*
X159909397Y-34893827D01*
X159909390Y-34893814D01*
X159821789Y-34762711D01*
X159821786Y-34762707D01*
X159710292Y-34651213D01*
X159710288Y-34651210D01*
X159579185Y-34563609D01*
X159579172Y-34563602D01*
X159433501Y-34503264D01*
X159433489Y-34503261D01*
X159278845Y-34472500D01*
X159278842Y-34472500D01*
X159121158Y-34472500D01*
X159121155Y-34472500D01*
X158966510Y-34503261D01*
X158966498Y-34503264D01*
X158820827Y-34563602D01*
X158820814Y-34563609D01*
X158689711Y-34651210D01*
X158689707Y-34651213D01*
X158578213Y-34762707D01*
X158578210Y-34762711D01*
X158490609Y-34893814D01*
X158490602Y-34893827D01*
X158430264Y-35039498D01*
X158430261Y-35039510D01*
X158399500Y-35194153D01*
X120228500Y-35194153D01*
X120228500Y-35080158D01*
X120228500Y-35080155D01*
X120228499Y-35080153D01*
X120197737Y-34925503D01*
X120197735Y-34925498D01*
X120137397Y-34779827D01*
X120137390Y-34779814D01*
X120049789Y-34648711D01*
X120049786Y-34648707D01*
X119938292Y-34537213D01*
X119938288Y-34537210D01*
X119807185Y-34449609D01*
X119807172Y-34449602D01*
X119661501Y-34389264D01*
X119661489Y-34389261D01*
X119506845Y-34358500D01*
X119506842Y-34358500D01*
X119349158Y-34358500D01*
X119349155Y-34358500D01*
X119194510Y-34389261D01*
X119194498Y-34389264D01*
X119048827Y-34449602D01*
X119048814Y-34449609D01*
X118917711Y-34537210D01*
X118917707Y-34537213D01*
X118806213Y-34648707D01*
X118806210Y-34648711D01*
X118718609Y-34779814D01*
X118718602Y-34779827D01*
X118658264Y-34925498D01*
X118658261Y-34925510D01*
X118627500Y-35080153D01*
X85373297Y-35080153D01*
X85802410Y-34756537D01*
X85804601Y-34754923D01*
X87177460Y-33767728D01*
X87179596Y-33766229D01*
X88574498Y-32810528D01*
X88576786Y-32808997D01*
X88793219Y-32667831D01*
X149876050Y-32667831D01*
X149876050Y-32894168D01*
X149911458Y-33117722D01*
X149911458Y-33117725D01*
X149981398Y-33332978D01*
X149981400Y-33332981D01*
X150084155Y-33534650D01*
X150217193Y-33717761D01*
X150377239Y-33877807D01*
X150560350Y-34010845D01*
X150762019Y-34113600D01*
X150762021Y-34113601D01*
X150962801Y-34178837D01*
X150977279Y-34183542D01*
X151200831Y-34218950D01*
X151200832Y-34218950D01*
X151427168Y-34218950D01*
X151427169Y-34218950D01*
X151650721Y-34183542D01*
X151650724Y-34183541D01*
X151650725Y-34183541D01*
X151865978Y-34113601D01*
X151865978Y-34113600D01*
X151865981Y-34113600D01*
X152067650Y-34010845D01*
X152250761Y-33877807D01*
X152410807Y-33717761D01*
X152543845Y-33534650D01*
X152646600Y-33332981D01*
X152671476Y-33256420D01*
X152716541Y-33117725D01*
X152716541Y-33117724D01*
X152716542Y-33117721D01*
X152751950Y-32894169D01*
X152751950Y-32707540D01*
X153108200Y-32707540D01*
X153108200Y-32854459D01*
X153136858Y-32998534D01*
X153136861Y-32998544D01*
X153193078Y-33134266D01*
X153193083Y-33134275D01*
X153274698Y-33256419D01*
X153274701Y-33256423D01*
X153378576Y-33360298D01*
X153378580Y-33360301D01*
X153500724Y-33441916D01*
X153500730Y-33441919D01*
X153500731Y-33441920D01*
X153636458Y-33498140D01*
X153780540Y-33526799D01*
X153780544Y-33526800D01*
X153780545Y-33526800D01*
X153927456Y-33526800D01*
X153927457Y-33526799D01*
X154071542Y-33498140D01*
X154207269Y-33441920D01*
X154329420Y-33360301D01*
X154433301Y-33256420D01*
X154514920Y-33134269D01*
X154571140Y-32998542D01*
X154599800Y-32854455D01*
X154599800Y-32707545D01*
X154595743Y-32687148D01*
X154595743Y-32687146D01*
X154591901Y-32667831D01*
X154956050Y-32667831D01*
X154956050Y-32894168D01*
X154991458Y-33117722D01*
X154991458Y-33117725D01*
X155061398Y-33332978D01*
X155061400Y-33332981D01*
X155164155Y-33534650D01*
X155297193Y-33717761D01*
X155457239Y-33877807D01*
X155640350Y-34010845D01*
X155842019Y-34113600D01*
X155842021Y-34113601D01*
X156042801Y-34178837D01*
X156057279Y-34183542D01*
X156280831Y-34218950D01*
X156280832Y-34218950D01*
X156507168Y-34218950D01*
X156507169Y-34218950D01*
X156730721Y-34183542D01*
X156730724Y-34183541D01*
X156730725Y-34183541D01*
X156945978Y-34113601D01*
X156945978Y-34113600D01*
X156945981Y-34113600D01*
X157147650Y-34010845D01*
X157330761Y-33877807D01*
X157437415Y-33771153D01*
X160299500Y-33771153D01*
X160299500Y-33928846D01*
X160330261Y-34083489D01*
X160330264Y-34083501D01*
X160390602Y-34229172D01*
X160390609Y-34229185D01*
X160478210Y-34360288D01*
X160478213Y-34360292D01*
X160589707Y-34471786D01*
X160589711Y-34471789D01*
X160720814Y-34559390D01*
X160720827Y-34559397D01*
X160866498Y-34619735D01*
X160866503Y-34619737D01*
X161012144Y-34648707D01*
X161021153Y-34650499D01*
X161021156Y-34650500D01*
X161021158Y-34650500D01*
X161178844Y-34650500D01*
X161178845Y-34650499D01*
X161333497Y-34619737D01*
X161479179Y-34559394D01*
X161610289Y-34471789D01*
X161721789Y-34360289D01*
X161809394Y-34229179D01*
X161869737Y-34083497D01*
X161900500Y-33928842D01*
X161900500Y-33771158D01*
X161900500Y-33771155D01*
X161900499Y-33771153D01*
X161889879Y-33717762D01*
X161869737Y-33616503D01*
X161832581Y-33526799D01*
X161809397Y-33470827D01*
X161809390Y-33470814D01*
X161721789Y-33339711D01*
X161721786Y-33339707D01*
X161610292Y-33228213D01*
X161610288Y-33228210D01*
X161479185Y-33140609D01*
X161479172Y-33140602D01*
X161333501Y-33080264D01*
X161333489Y-33080261D01*
X161178845Y-33049500D01*
X161178842Y-33049500D01*
X161021158Y-33049500D01*
X161021155Y-33049500D01*
X160866510Y-33080261D01*
X160866498Y-33080264D01*
X160720827Y-33140602D01*
X160720814Y-33140609D01*
X160589711Y-33228210D01*
X160589707Y-33228213D01*
X160478213Y-33339707D01*
X160478210Y-33339711D01*
X160390609Y-33470814D01*
X160390602Y-33470827D01*
X160330264Y-33616498D01*
X160330261Y-33616510D01*
X160299500Y-33771153D01*
X157437415Y-33771153D01*
X157490807Y-33717761D01*
X157623845Y-33534650D01*
X157726600Y-33332981D01*
X157751476Y-33256420D01*
X157796541Y-33117725D01*
X157796541Y-33117724D01*
X157796542Y-33117721D01*
X157831950Y-32894169D01*
X157831950Y-32667831D01*
X157796542Y-32444279D01*
X157796541Y-32444275D01*
X157796541Y-32444274D01*
X157726601Y-32229021D01*
X157726599Y-32229018D01*
X157712681Y-32201701D01*
X157623845Y-32027350D01*
X157490807Y-31844239D01*
X157330761Y-31684193D01*
X157147650Y-31551155D01*
X156945981Y-31448400D01*
X156945978Y-31448398D01*
X156730723Y-31378458D01*
X156581686Y-31354852D01*
X156507169Y-31343050D01*
X156280831Y-31343050D01*
X156206313Y-31354852D01*
X156057277Y-31378458D01*
X156057274Y-31378458D01*
X155842021Y-31448398D01*
X155842018Y-31448400D01*
X155640349Y-31551155D01*
X155535878Y-31627058D01*
X155457239Y-31684193D01*
X155457237Y-31684195D01*
X155457236Y-31684195D01*
X155297195Y-31844236D01*
X155297195Y-31844237D01*
X155297193Y-31844239D01*
X155267930Y-31884516D01*
X155164155Y-32027349D01*
X155061400Y-32229018D01*
X155061398Y-32229021D01*
X154991458Y-32444274D01*
X154991458Y-32444277D01*
X154956050Y-32667831D01*
X154591901Y-32667831D01*
X154571141Y-32563465D01*
X154571140Y-32563458D01*
X154514920Y-32427731D01*
X154514919Y-32427730D01*
X154514916Y-32427724D01*
X154433301Y-32305580D01*
X154433298Y-32305576D01*
X154329423Y-32201701D01*
X154329419Y-32201698D01*
X154207275Y-32120083D01*
X154207266Y-32120078D01*
X154071544Y-32063861D01*
X154071545Y-32063861D01*
X154071542Y-32063860D01*
X154071538Y-32063859D01*
X154071534Y-32063858D01*
X153927459Y-32035200D01*
X153927455Y-32035200D01*
X153780545Y-32035200D01*
X153780540Y-32035200D01*
X153636465Y-32063858D01*
X153636455Y-32063861D01*
X153500733Y-32120078D01*
X153500724Y-32120083D01*
X153378580Y-32201698D01*
X153378576Y-32201701D01*
X153274701Y-32305576D01*
X153274698Y-32305580D01*
X153193083Y-32427724D01*
X153193078Y-32427733D01*
X153136861Y-32563455D01*
X153136858Y-32563465D01*
X153108200Y-32707540D01*
X152751950Y-32707540D01*
X152751950Y-32667831D01*
X152716542Y-32444279D01*
X152716541Y-32444275D01*
X152716541Y-32444274D01*
X152646601Y-32229021D01*
X152646599Y-32229018D01*
X152632681Y-32201701D01*
X152543845Y-32027350D01*
X152410807Y-31844239D01*
X152250761Y-31684193D01*
X152067650Y-31551155D01*
X151865981Y-31448400D01*
X151865978Y-31448398D01*
X151650723Y-31378458D01*
X151501686Y-31354852D01*
X151427169Y-31343050D01*
X151200831Y-31343050D01*
X151126313Y-31354852D01*
X150977277Y-31378458D01*
X150977274Y-31378458D01*
X150762021Y-31448398D01*
X150762018Y-31448400D01*
X150560349Y-31551155D01*
X150455878Y-31627058D01*
X150377239Y-31684193D01*
X150377237Y-31684195D01*
X150377236Y-31684195D01*
X150217195Y-31844236D01*
X150217195Y-31844237D01*
X150217193Y-31844239D01*
X150187930Y-31884516D01*
X150084155Y-32027349D01*
X149981400Y-32229018D01*
X149981398Y-32229021D01*
X149911458Y-32444274D01*
X149911458Y-32444277D01*
X149876050Y-32667831D01*
X88793219Y-32667831D01*
X89993104Y-31885219D01*
X89995301Y-31883822D01*
X91432251Y-30992480D01*
X91434558Y-30991086D01*
X92891365Y-30132660D01*
X92893630Y-30131359D01*
X94035853Y-29492831D01*
X149876050Y-29492831D01*
X149876050Y-29719168D01*
X149911458Y-29942722D01*
X149911458Y-29942725D01*
X149981398Y-30157978D01*
X149981400Y-30157981D01*
X150084155Y-30359650D01*
X150217193Y-30542761D01*
X150377239Y-30702807D01*
X150560350Y-30835845D01*
X150762019Y-30938600D01*
X150762021Y-30938601D01*
X150962801Y-31003837D01*
X150977279Y-31008542D01*
X151200831Y-31043950D01*
X151200832Y-31043950D01*
X151427168Y-31043950D01*
X151427169Y-31043950D01*
X151650721Y-31008542D01*
X151650724Y-31008541D01*
X151650725Y-31008541D01*
X151865978Y-30938601D01*
X151865978Y-30938600D01*
X151865981Y-30938600D01*
X152067650Y-30835845D01*
X152250761Y-30702807D01*
X152410807Y-30542761D01*
X152543845Y-30359650D01*
X152646600Y-30157981D01*
X152716542Y-29942721D01*
X152751950Y-29719169D01*
X152751950Y-29492831D01*
X154956050Y-29492831D01*
X154956050Y-29719168D01*
X154991458Y-29942722D01*
X154991458Y-29942725D01*
X155061398Y-30157978D01*
X155061400Y-30157981D01*
X155164155Y-30359650D01*
X155297193Y-30542761D01*
X155457239Y-30702807D01*
X155640350Y-30835845D01*
X155842019Y-30938600D01*
X155842021Y-30938601D01*
X156042801Y-31003837D01*
X156057279Y-31008542D01*
X156280831Y-31043950D01*
X156280832Y-31043950D01*
X156507168Y-31043950D01*
X156507169Y-31043950D01*
X156730721Y-31008542D01*
X156730724Y-31008541D01*
X156730725Y-31008541D01*
X156945978Y-30938601D01*
X156945978Y-30938600D01*
X156945981Y-30938600D01*
X157147650Y-30835845D01*
X157330761Y-30702807D01*
X157490807Y-30542761D01*
X157623845Y-30359650D01*
X157726600Y-30157981D01*
X157796542Y-29942721D01*
X157831950Y-29719169D01*
X157831950Y-29492831D01*
X157796542Y-29269279D01*
X157796541Y-29269275D01*
X157796541Y-29269274D01*
X157726601Y-29054021D01*
X157726599Y-29054018D01*
X157636149Y-28876498D01*
X157623845Y-28852350D01*
X157490807Y-28669239D01*
X157330761Y-28509193D01*
X157147650Y-28376155D01*
X156945981Y-28273400D01*
X156945978Y-28273398D01*
X156730723Y-28203458D01*
X156581686Y-28179852D01*
X156507169Y-28168050D01*
X156280831Y-28168050D01*
X156206313Y-28179852D01*
X156057277Y-28203458D01*
X156057274Y-28203458D01*
X155842021Y-28273398D01*
X155842018Y-28273400D01*
X155640349Y-28376155D01*
X155535878Y-28452058D01*
X155457239Y-28509193D01*
X155457237Y-28509195D01*
X155457236Y-28509195D01*
X155297195Y-28669236D01*
X155297195Y-28669237D01*
X155297193Y-28669239D01*
X155240058Y-28747878D01*
X155164155Y-28852349D01*
X155061400Y-29054018D01*
X155061398Y-29054021D01*
X154991458Y-29269274D01*
X154991458Y-29269277D01*
X154956050Y-29492831D01*
X152751950Y-29492831D01*
X152716542Y-29269279D01*
X152716541Y-29269275D01*
X152716541Y-29269274D01*
X152646601Y-29054021D01*
X152646599Y-29054018D01*
X152556149Y-28876498D01*
X152543845Y-28852350D01*
X152410807Y-28669239D01*
X152250761Y-28509193D01*
X152067650Y-28376155D01*
X151865981Y-28273400D01*
X151865978Y-28273398D01*
X151650723Y-28203458D01*
X151501686Y-28179852D01*
X151427169Y-28168050D01*
X151200831Y-28168050D01*
X151126313Y-28179852D01*
X150977277Y-28203458D01*
X150977274Y-28203458D01*
X150762021Y-28273398D01*
X150762018Y-28273400D01*
X150560349Y-28376155D01*
X150455878Y-28452058D01*
X150377239Y-28509193D01*
X150377237Y-28509195D01*
X150377236Y-28509195D01*
X150217195Y-28669236D01*
X150217195Y-28669237D01*
X150217193Y-28669239D01*
X150160058Y-28747878D01*
X150084155Y-28852349D01*
X149981400Y-29054018D01*
X149981398Y-29054021D01*
X149911458Y-29269274D01*
X149911458Y-29269277D01*
X149876050Y-29492831D01*
X94035853Y-29492831D01*
X94369630Y-29306242D01*
X94372002Y-29304951D01*
X95866272Y-28513656D01*
X95868706Y-28512402D01*
X97380575Y-27755280D01*
X97383039Y-27754081D01*
X98911777Y-27031502D01*
X98914244Y-27030370D01*
X100372695Y-26381153D01*
X121353500Y-26381153D01*
X121353500Y-26538846D01*
X121384261Y-26693489D01*
X121384264Y-26693501D01*
X121444602Y-26839172D01*
X121444609Y-26839185D01*
X121532210Y-26970288D01*
X121532213Y-26970292D01*
X121643707Y-27081786D01*
X121643711Y-27081789D01*
X121774814Y-27169390D01*
X121774827Y-27169397D01*
X121910457Y-27225576D01*
X121920503Y-27229737D01*
X122075153Y-27260499D01*
X122075156Y-27260500D01*
X122075158Y-27260500D01*
X122232844Y-27260500D01*
X122232845Y-27260499D01*
X122387497Y-27229737D01*
X122533179Y-27169394D01*
X122664289Y-27081789D01*
X122775789Y-26970289D01*
X122863394Y-26839179D01*
X122892430Y-26769078D01*
X122936270Y-26714676D01*
X123002564Y-26692610D01*
X123070263Y-26709889D01*
X123117874Y-26761025D01*
X123121552Y-26769079D01*
X123133602Y-26798172D01*
X123133609Y-26798185D01*
X123221210Y-26929288D01*
X123221213Y-26929292D01*
X123332707Y-27040786D01*
X123332711Y-27040789D01*
X123463814Y-27128390D01*
X123463827Y-27128397D01*
X123609498Y-27188735D01*
X123609503Y-27188737D01*
X123764153Y-27219499D01*
X123764156Y-27219500D01*
X123764158Y-27219500D01*
X123921844Y-27219500D01*
X123921845Y-27219499D01*
X124076497Y-27188737D01*
X124209874Y-27133491D01*
X124222172Y-27128397D01*
X124222172Y-27128396D01*
X124222179Y-27128394D01*
X124353289Y-27040789D01*
X124404706Y-26989372D01*
X124460819Y-26933260D01*
X124522142Y-26899775D01*
X124591834Y-26904759D01*
X124636181Y-26933260D01*
X124743707Y-27040786D01*
X124743711Y-27040789D01*
X124874814Y-27128390D01*
X124874827Y-27128397D01*
X125020498Y-27188735D01*
X125020503Y-27188737D01*
X125175153Y-27219499D01*
X125175156Y-27219500D01*
X125175158Y-27219500D01*
X125332844Y-27219500D01*
X125332845Y-27219499D01*
X125487497Y-27188737D01*
X125620874Y-27133491D01*
X125633172Y-27128397D01*
X125633172Y-27128396D01*
X125633179Y-27128394D01*
X125764289Y-27040789D01*
X125875789Y-26929289D01*
X125963394Y-26798179D01*
X126023737Y-26652497D01*
X126054500Y-26497842D01*
X126054500Y-26421153D01*
X126949500Y-26421153D01*
X126949500Y-26578846D01*
X126980261Y-26733489D01*
X126980264Y-26733501D01*
X127040602Y-26879172D01*
X127040609Y-26879185D01*
X127128210Y-27010288D01*
X127128213Y-27010292D01*
X127239707Y-27121786D01*
X127239711Y-27121789D01*
X127370814Y-27209390D01*
X127370827Y-27209397D01*
X127516498Y-27269735D01*
X127516503Y-27269737D01*
X127671153Y-27300499D01*
X127671156Y-27300500D01*
X127671158Y-27300500D01*
X127828844Y-27300500D01*
X127828845Y-27300499D01*
X127983497Y-27269737D01*
X128129179Y-27209394D01*
X128260289Y-27121789D01*
X128371789Y-27010289D01*
X128385765Y-26989371D01*
X128439377Y-26944567D01*
X128508702Y-26935859D01*
X128571730Y-26966013D01*
X128608449Y-27025455D01*
X128610485Y-27034070D01*
X128630261Y-27133491D01*
X128630264Y-27133501D01*
X128690602Y-27279172D01*
X128690609Y-27279185D01*
X128778210Y-27410288D01*
X128778213Y-27410292D01*
X128889707Y-27521786D01*
X128889711Y-27521789D01*
X129020814Y-27609390D01*
X129020827Y-27609397D01*
X129166498Y-27669735D01*
X129166503Y-27669737D01*
X129321153Y-27700499D01*
X129321156Y-27700500D01*
X129321158Y-27700500D01*
X129478844Y-27700500D01*
X129478845Y-27700499D01*
X129633497Y-27669737D01*
X129735370Y-27627540D01*
X152092200Y-27627540D01*
X152092200Y-27774459D01*
X152120858Y-27918534D01*
X152120861Y-27918544D01*
X152177078Y-28054266D01*
X152177083Y-28054275D01*
X152258698Y-28176419D01*
X152258701Y-28176423D01*
X152362576Y-28280298D01*
X152362580Y-28280301D01*
X152484724Y-28361916D01*
X152484730Y-28361919D01*
X152484731Y-28361920D01*
X152620458Y-28418140D01*
X152764540Y-28446799D01*
X152764544Y-28446800D01*
X152764545Y-28446800D01*
X152911456Y-28446800D01*
X152911457Y-28446799D01*
X153055542Y-28418140D01*
X153191269Y-28361920D01*
X153313420Y-28280301D01*
X153417301Y-28176420D01*
X153498920Y-28054269D01*
X153555140Y-27918542D01*
X153571324Y-27837176D01*
X153603707Y-27775270D01*
X153664422Y-27740695D01*
X153717131Y-27739754D01*
X153771153Y-27750499D01*
X153771156Y-27750500D01*
X153771158Y-27750500D01*
X153928843Y-27750500D01*
X153990562Y-27738223D01*
X154060153Y-27744450D01*
X154115331Y-27787312D01*
X154136371Y-27835648D01*
X154152858Y-27918536D01*
X154152861Y-27918544D01*
X154209078Y-28054266D01*
X154209083Y-28054275D01*
X154290698Y-28176419D01*
X154290701Y-28176423D01*
X154394576Y-28280298D01*
X154394580Y-28280301D01*
X154516724Y-28361916D01*
X154516730Y-28361919D01*
X154516731Y-28361920D01*
X154652458Y-28418140D01*
X154796540Y-28446799D01*
X154796544Y-28446800D01*
X154796545Y-28446800D01*
X154943456Y-28446800D01*
X154943457Y-28446799D01*
X155087542Y-28418140D01*
X155223269Y-28361920D01*
X155345420Y-28280301D01*
X155449301Y-28176420D01*
X155530920Y-28054269D01*
X155587140Y-27918542D01*
X155615800Y-27774455D01*
X155615800Y-27627545D01*
X155587140Y-27483458D01*
X155530920Y-27347731D01*
X155530919Y-27347730D01*
X155530916Y-27347724D01*
X155449301Y-27225580D01*
X155449298Y-27225576D01*
X155345423Y-27121701D01*
X155345419Y-27121698D01*
X155223275Y-27040083D01*
X155223266Y-27040078D01*
X155087544Y-26983861D01*
X155087545Y-26983861D01*
X155087542Y-26983860D01*
X155087538Y-26983859D01*
X155087534Y-26983858D01*
X154943459Y-26955200D01*
X154943455Y-26955200D01*
X154796545Y-26955200D01*
X154796544Y-26955200D01*
X154793753Y-26955755D01*
X154792262Y-26955621D01*
X154790482Y-26955797D01*
X154790448Y-26955459D01*
X154724161Y-26949525D01*
X154668985Y-26906661D01*
X154647948Y-26858328D01*
X154640541Y-26821090D01*
X154619737Y-26716503D01*
X154618980Y-26714676D01*
X154559397Y-26570827D01*
X154559390Y-26570814D01*
X154471789Y-26439711D01*
X154471786Y-26439707D01*
X154360292Y-26328213D01*
X154360288Y-26328210D01*
X154229185Y-26240609D01*
X154229172Y-26240602D01*
X154083501Y-26180264D01*
X154083489Y-26180261D01*
X153928845Y-26149500D01*
X153928842Y-26149500D01*
X153771158Y-26149500D01*
X153771155Y-26149500D01*
X153616510Y-26180261D01*
X153616498Y-26180264D01*
X153470827Y-26240602D01*
X153470814Y-26240609D01*
X153339711Y-26328210D01*
X153339707Y-26328213D01*
X153228213Y-26439707D01*
X153228210Y-26439711D01*
X153140609Y-26570814D01*
X153140602Y-26570827D01*
X153080264Y-26716498D01*
X153080261Y-26716508D01*
X153052355Y-26856798D01*
X153019970Y-26918709D01*
X152959254Y-26953283D01*
X152917692Y-26954029D01*
X152917518Y-26955797D01*
X152911456Y-26955200D01*
X152911455Y-26955200D01*
X152764545Y-26955200D01*
X152764540Y-26955200D01*
X152620465Y-26983858D01*
X152620455Y-26983861D01*
X152484733Y-27040078D01*
X152484724Y-27040083D01*
X152362580Y-27121698D01*
X152362576Y-27121701D01*
X152258701Y-27225576D01*
X152258698Y-27225580D01*
X152177083Y-27347724D01*
X152177078Y-27347733D01*
X152120861Y-27483455D01*
X152120858Y-27483465D01*
X152092200Y-27627540D01*
X129735370Y-27627540D01*
X129779179Y-27609394D01*
X129910289Y-27521789D01*
X130021789Y-27410289D01*
X130109394Y-27279179D01*
X130169737Y-27133497D01*
X130200500Y-26978842D01*
X130200500Y-26821158D01*
X130200500Y-26821155D01*
X130200499Y-26821153D01*
X130179684Y-26716510D01*
X130169737Y-26666503D01*
X130163932Y-26652489D01*
X130109397Y-26520827D01*
X130109390Y-26520814D01*
X130021789Y-26389711D01*
X130021786Y-26389707D01*
X129910292Y-26278213D01*
X129910288Y-26278210D01*
X129779185Y-26190609D01*
X129779172Y-26190602D01*
X129633501Y-26130264D01*
X129633489Y-26130261D01*
X129478845Y-26099500D01*
X129478842Y-26099500D01*
X129321158Y-26099500D01*
X129321155Y-26099500D01*
X129166510Y-26130261D01*
X129166498Y-26130264D01*
X129020827Y-26190602D01*
X129020814Y-26190609D01*
X128889711Y-26278210D01*
X128889707Y-26278213D01*
X128778212Y-26389708D01*
X128764231Y-26410632D01*
X128710617Y-26455435D01*
X128641292Y-26464140D01*
X128578265Y-26433983D01*
X128541548Y-26374538D01*
X128539514Y-26365928D01*
X128532012Y-26328213D01*
X128519737Y-26266503D01*
X128517319Y-26260666D01*
X128459397Y-26120827D01*
X128459390Y-26120814D01*
X128371789Y-25989711D01*
X128371786Y-25989707D01*
X128260292Y-25878213D01*
X128260288Y-25878210D01*
X128129185Y-25790609D01*
X128129172Y-25790602D01*
X127983501Y-25730264D01*
X127983489Y-25730261D01*
X127828845Y-25699500D01*
X127828842Y-25699500D01*
X127671158Y-25699500D01*
X127671155Y-25699500D01*
X127516510Y-25730261D01*
X127516498Y-25730264D01*
X127370827Y-25790602D01*
X127370814Y-25790609D01*
X127239711Y-25878210D01*
X127239707Y-25878213D01*
X127128213Y-25989707D01*
X127128210Y-25989711D01*
X127040609Y-26120814D01*
X127040602Y-26120827D01*
X126980264Y-26266498D01*
X126980261Y-26266510D01*
X126949500Y-26421153D01*
X126054500Y-26421153D01*
X126054500Y-26340158D01*
X126054500Y-26340155D01*
X126054499Y-26340153D01*
X126034698Y-26240609D01*
X126023737Y-26185503D01*
X126021566Y-26180261D01*
X125963397Y-26039827D01*
X125963390Y-26039814D01*
X125875789Y-25908711D01*
X125875786Y-25908707D01*
X125764292Y-25797213D01*
X125764288Y-25797210D01*
X125633185Y-25709609D01*
X125633172Y-25709602D01*
X125487501Y-25649264D01*
X125487489Y-25649261D01*
X125332845Y-25618500D01*
X125332842Y-25618500D01*
X125175158Y-25618500D01*
X125175155Y-25618500D01*
X125020510Y-25649261D01*
X125020498Y-25649264D01*
X124874827Y-25709602D01*
X124874814Y-25709609D01*
X124743711Y-25797210D01*
X124743707Y-25797213D01*
X124636181Y-25904740D01*
X124574858Y-25938225D01*
X124505166Y-25933241D01*
X124460819Y-25904740D01*
X124353292Y-25797213D01*
X124353288Y-25797210D01*
X124222185Y-25709609D01*
X124222172Y-25709602D01*
X124076501Y-25649264D01*
X124076489Y-25649261D01*
X123921845Y-25618500D01*
X123921842Y-25618500D01*
X123764158Y-25618500D01*
X123764155Y-25618500D01*
X123609510Y-25649261D01*
X123609498Y-25649264D01*
X123463827Y-25709602D01*
X123463814Y-25709609D01*
X123332711Y-25797210D01*
X123332707Y-25797213D01*
X123221213Y-25908707D01*
X123221210Y-25908711D01*
X123133609Y-26039814D01*
X123133604Y-26039824D01*
X123104569Y-26109921D01*
X123060728Y-26164325D01*
X122994433Y-26186389D01*
X122926734Y-26169109D01*
X122879124Y-26117972D01*
X122875449Y-26109924D01*
X122863394Y-26080821D01*
X122863392Y-26080818D01*
X122863390Y-26080814D01*
X122775789Y-25949711D01*
X122775786Y-25949707D01*
X122664292Y-25838213D01*
X122664288Y-25838210D01*
X122533185Y-25750609D01*
X122533172Y-25750602D01*
X122387501Y-25690264D01*
X122387489Y-25690261D01*
X122232845Y-25659500D01*
X122232842Y-25659500D01*
X122075158Y-25659500D01*
X122075155Y-25659500D01*
X121920510Y-25690261D01*
X121920498Y-25690264D01*
X121774827Y-25750602D01*
X121774814Y-25750609D01*
X121643711Y-25838210D01*
X121643707Y-25838213D01*
X121532213Y-25949707D01*
X121532210Y-25949711D01*
X121444609Y-26080814D01*
X121444602Y-26080827D01*
X121384264Y-26226498D01*
X121384261Y-26226510D01*
X121353500Y-26381153D01*
X100372695Y-26381153D01*
X100459016Y-26342728D01*
X100461422Y-26341690D01*
X102021463Y-25689327D01*
X102023945Y-25688322D01*
X103598308Y-25071632D01*
X103600908Y-25070647D01*
X105188984Y-24489869D01*
X105191459Y-24488996D01*
X106792319Y-23944473D01*
X106794896Y-23943629D01*
X108407705Y-23435643D01*
X108410224Y-23434881D01*
X110034152Y-22963692D01*
X110036765Y-22962966D01*
X111670936Y-22528828D01*
X111673642Y-22528142D01*
X113317253Y-22131267D01*
X113319930Y-22130654D01*
X114972138Y-21771245D01*
X114974809Y-21770696D01*
X116634767Y-21448937D01*
X116637469Y-21448445D01*
X118304324Y-21164503D01*
X118306996Y-21164078D01*
X119979914Y-20918096D01*
X119982628Y-20917729D01*
X121660659Y-20709846D01*
X121663320Y-20709546D01*
X123345682Y-20539858D01*
X123348419Y-20539614D01*
X125034142Y-20408219D01*
X125036921Y-20408035D01*
X126725182Y-20314995D01*
X126727943Y-20314875D01*
X128418546Y-20260217D01*
X128419310Y-20260195D01*
X128419664Y-20260185D01*
X128485149Y-20258814D01*
X128486403Y-20258449D01*
X128495570Y-20258211D01*
X128496173Y-20258371D01*
X128498816Y-20258169D01*
X128526528Y-20258177D01*
X128759466Y-20221342D01*
X128983774Y-20148518D01*
X129193926Y-20041499D01*
X129238526Y-20009108D01*
X129304336Y-19985642D01*
X129372387Y-20001480D01*
X129373391Y-20002054D01*
X129413814Y-20025392D01*
X129541108Y-20059500D01*
X129541110Y-20059500D01*
X129672890Y-20059500D01*
X129672892Y-20059500D01*
X129800186Y-20025392D01*
X129914314Y-19959500D01*
X129919319Y-19954495D01*
X129980642Y-19921010D01*
X130050334Y-19925994D01*
X130094681Y-19954495D01*
X130099686Y-19959500D01*
X130196492Y-20015391D01*
X130213810Y-20025390D01*
X130213814Y-20025392D01*
X130341108Y-20059500D01*
X130341110Y-20059500D01*
X130472890Y-20059500D01*
X130472892Y-20059500D01*
X130600186Y-20025392D01*
X130714314Y-19959500D01*
X130724319Y-19949495D01*
X130732264Y-19945156D01*
X130737690Y-19937909D01*
X130762449Y-19928674D01*
X130785642Y-19916010D01*
X130794671Y-19916655D01*
X130803154Y-19913492D01*
X130828974Y-19919108D01*
G37*
G04 #@! TD.AperFunction*
M02*
